<svg xmlns="http://www.w3.org/2000/svg" version="1.1" xmlns:xlink="http://www.w3.org/1999/xlink" xmlns:svgjs="http://svgjs.dev/svgjs" width="1000" height="964" viewBox="0 0 1000 964"><g transform="matrix(1,0,0,1,-0.35681714347492743,0.3902858564135272)"><svg viewBox="0 0 256 247" data-background-color="#ffffff" preserveAspectRatio="xMidYMid meet" height="964" width="1000" xmlns="http://www.w3.org/2000/svg" xmlns:xlink="http://www.w3.org/1999/xlink"><g id="tight-bounds" transform="matrix(1,0,0,1,0.09134518872957642,-0.10000062918479102)"><svg viewBox="0 0 255.8173035033244 247.2" height="247.2" width="255.8173035033244"><g><svg viewBox="0 0 395.52 382.1967578464817" height="247.2" width="255.8173035033244"><g transform="matrix(1,0,0,1,0,276.3677443068299)"><svg viewBox="0 0 395.52 105.82901353965184" height="105.82901353965184" width="395.52"><g id="textblocktransform"><svg viewBox="0 0 395.52 105.82901353965184" height="105.82901353965184" width="395.52" id="textblock"><g><svg viewBox="0 0 395.52 105.82901353965184" height="105.82901353965184" width="395.52"><g transform="matrix(1,0,0,1,0,0)"><svg width="395.52" viewBox="3.049999952316284 -40.95000076293945 155.08999633789062 41.5" height="105.82901353965184" data-palette-color="#68f478"><path d="M10.45 0L3.05 0 3.05-40.5 19.7-40.5 19.7-35.4 10.45-35.4 10.45-23.6 18-23.6 18-18.45 10.45-18.45 10.45 0ZM31.05 0L23.75 0 23.75-40.5 31.05-40.5 31.05 0ZM48.75 0L41.35 0 41.35-35.05 34.9-35.05 34.9-40.5 55.1-40.5 55.1-35.05 48.75-35.05 48.75 0ZM66.19 0L58.79 0 58.79-40.5 75.44-40.5 75.44-35.4 66.19-35.4 66.19-23.6 73.74-23.6 73.74-18.45 66.19-18.45 66.19 0ZM90.44 0.55L90.44 0.55Q86.14 0.55 83.59-1.05 81.04-2.65 79.94-5.65 78.84-8.65 78.84-12.75L78.84-12.75 78.84-27.9Q78.84-32 79.94-34.93 81.04-37.85 83.59-39.4 86.14-40.95 90.44-40.95L90.44-40.95Q94.84-40.95 97.37-39.4 99.89-37.85 101.02-34.93 102.14-32 102.14-27.9L102.14-27.9 102.14-12.7Q102.14-8.65 101.02-5.68 99.89-2.7 97.37-1.07 94.84 0.55 90.44 0.55ZM90.44-4.9L90.44-4.9Q92.29-4.9 93.17-5.7 94.04-6.5 94.34-7.9 94.64-9.3 94.64-10.95L94.64-10.95 94.64-29.6Q94.64-31.3 94.34-32.65 94.04-34 93.17-34.77 92.29-35.55 90.44-35.55L90.44-35.55Q88.69-35.55 87.79-34.77 86.89-34 86.59-32.65 86.29-31.3 86.29-29.6L86.29-29.6 86.29-10.95Q86.29-9.3 86.57-7.9 86.84-6.5 87.74-5.7 88.64-4.9 90.44-4.9ZM118.59 0.55L118.59 0.55Q114.29 0.55 111.74-1.05 109.19-2.65 108.09-5.65 106.99-8.65 106.99-12.75L106.99-12.75 106.99-27.9Q106.99-32 108.09-34.93 109.19-37.85 111.74-39.4 114.29-40.95 118.59-40.95L118.59-40.95Q122.99-40.95 125.51-39.4 128.04-37.85 129.16-34.93 130.29-32 130.29-27.9L130.29-27.9 130.29-12.7Q130.29-8.65 129.16-5.68 128.04-2.7 125.51-1.07 122.99 0.55 118.59 0.55ZM118.59-4.9L118.59-4.9Q120.44-4.9 121.31-5.7 122.19-6.5 122.49-7.9 122.79-9.3 122.79-10.95L122.79-10.95 122.79-29.6Q122.79-31.3 122.49-32.65 122.19-34 121.31-34.77 120.44-35.55 118.59-35.55L118.59-35.55Q116.84-35.55 115.94-34.77 115.04-34 114.74-32.65 114.44-31.3 114.44-29.6L114.44-29.6 114.44-10.95Q114.44-9.3 114.71-7.9 114.99-6.5 115.89-5.7 116.79-4.9 118.59-4.9ZM145.59 0L135.74 0 135.74-40.5 145.29-40.5Q150.24-40.5 153.01-39.15 155.79-37.8 156.96-35 158.14-32.2 158.14-27.9L158.14-27.9 158.14-13.1Q158.14-8.7 156.96-5.78 155.79-2.85 153.06-1.43 150.34 0 145.59 0L145.59 0ZM143.14-35.25L143.14-5.15 145.39-5.15Q147.94-5.15 149.04-6.05 150.14-6.95 150.39-8.68 150.64-10.4 150.64-12.9L150.64-12.9 150.64-28.4Q150.64-30.85 150.29-32.35 149.94-33.85 148.84-34.55 147.74-35.25 145.29-35.25L145.29-35.25 143.14-35.25Z" opacity="1" transform="matrix(1,0,0,1,0,0)" fill="#68f478" class="wordmark-text-0" data-fill-palette-color="primary" id="text-0"></path></svg></g></svg></g></svg></g></svg></g><g transform="matrix(1,0,0,1,84.55981804697191,0)"><svg viewBox="0 0 226.40036390605616 226.40036390605616" height="226.40036390605616" width="226.40036390605616"><g><svg></svg></g><g id="icon-0"><svg viewBox="0 0 226.40036390605616 226.40036390605616" height="226.40036390605616" width="226.40036390605616"><g><path d="M0 113.2c0-62.519 50.681-113.2 113.2-113.2 62.519 0 113.2 50.681 113.2 113.2 0 62.519-50.681 113.2-113.2 113.2-62.519 0-113.2-50.681-113.2-113.2zM113.2 216.857c57.248 0 103.656-46.409 103.657-103.657 0-57.248-46.409-103.656-103.657-103.656-57.248 0-103.656 46.409-103.656 103.656 0 57.248 46.409 103.656 103.656 103.657z" data-fill-palette-color="accent" fill="#01ff70" stroke="transparent"></path></g><g transform="matrix(1,0,0,1,50.701138671433256,48.54598351425075)"><svg viewBox="0 0 124.99808656318964 129.30839687755466" height="129.30839687755466" width="124.99808656318964"><g><svg xmlns="http://www.w3.org/2000/svg" viewBox="2.9999806880950928 2 58.00001907348633 60.00003433227539" x="0" y="0" height="129.30839687755466" width="124.99808656318964" class="icon-s-0" data-fill-palette-color="accent" id="s-0"><g fill="#01ff70" data-fill-palette-color="accent"><path d="M38 49a4 4 0 1 0 4 4A4 4 0 0 0 38 49Zm0 6a2 2 0 1 1 2-2A2 2 0 0 1 38 55Z" fill="#01ff70" data-fill-palette-color="accent"></path><path d="M48 39a4 4 0 0 0-4 4V53a4 4 0 0 0 8 0V43A4 4 0 0 0 48 39Zm2 14a2 2 0 0 1-4 0V43a2 2 0 0 1 4 0Z" fill="#01ff70" data-fill-palette-color="accent"></path><path d="M38 39a4 4 0 1 0 4 4A4 4 0 0 0 38 39Zm0 6a2 2 0 1 1 2-2A2 2 0 0 1 38 45Z" fill="#01ff70" data-fill-palette-color="accent"></path><path d="M38 29a4 4 0 1 0 4 4A4 4 0 0 0 38 29Zm0 6a2 2 0 1 1 2-2A2 2 0 0 1 38 35Z" fill="#01ff70" data-fill-palette-color="accent"></path><path d="M28 29a4 4 0 1 0 4 4A4 4 0 0 0 28 29Zm0 6a2 2 0 1 1 2-2A2 2 0 0 1 28 35Z" fill="#01ff70" data-fill-palette-color="accent"></path><path d="M48 29a4 4 0 1 0 4 4A4 4 0 0 0 48 29Zm0 6a2 2 0 1 1 2-2A2 2 0 0 1 48 35Z" fill="#01ff70" data-fill-palette-color="accent"></path><path d="M38 19a4 4 0 1 0 4 4A4 4 0 0 0 38 19Zm0 6a2 2 0 1 1 2-2A2 2 0 0 1 38 25Z" fill="#01ff70" data-fill-palette-color="accent"></path><path d="M48 19a4 4 0 1 0 4 4A4 4 0 0 0 48 19Zm0 6a2 2 0 1 1 2-2A2 2 0 0 1 48 25Z" fill="#01ff70" data-fill-palette-color="accent"></path><path d="M18 27H28a4 4 0 0 0 0-8H18a4 4 0 0 0 0 8Zm0-6H28a2 2 0 0 1 0 4H18a2 2 0 0 1 0-4Z" fill="#01ff70" data-fill-palette-color="accent"></path><path d="M15 17H51a1 1 0 0 0 1-1V8a1 1 0 0 0-1-1H15a1 1 0 0 0-1 1v8A1 1 0 0 0 15 17Zm1-8H50v6H16Z" fill="#01ff70" data-fill-palette-color="accent"></path><path d="M57 58V6a4 4 0 0 0-4-4H13A4 4 0 0 0 9 6V42.859a7.262 7.262 0 0 0-1.106 1.617A8.509 8.509 0 0 0 7 48.263a13.652 13.652 0 0 0 1.211 5.643l2.228 4.953a5.329 5.329 0 0 0 6.543 2.868L19 61.054l2.019 0.673a5.34 5.34 0 0 0 0.981 0.216V62H53A4 4 0 0 0 57 58ZM13 4H53a2 2 0 0 1 2 2V58a2 2 0 0 1-2 2H26.849a5.337 5.337 0 0 0 0.712-1.141l2.228-4.953A13.652 13.652 0 0 0 31 48.263a8.509 8.509 0 0 0-0.894-3.787A7.164 7.164 0 0 0 20.038 41.5a10.021 10.021 0 0 1 0.384-2.111l0-0.009a10 10 0 0 1 2.518-4.2l-1.414-1.414a12.085 12.085 0 0 0-1.739 2.219 6.826 6.826 0 0 0-6.111-3.807 1 1 0 0 0-1 1 6.83 6.83 0 0 0 5.562 6.7 12.059 12.059 0 0 0-0.2 1.673A7.087 7.087 0 0 0 11 41.327V6A2 2 0 0 1 13 4Zm5.366 33.865a4.842 4.842 0 0 1-3.554-3.554A4.842 4.842 0 0 1 18.366 37.865Zm0.95 21.186a1 1 0 0 0-0.632 0l-2.333 0.778a3.388 3.388 0 0 1-4.087-1.79l-2.229-4.953A11.689 11.689 0 0 1 9 48.263a6.493 6.493 0 0 1 0.683-2.892 5.192 5.192 0 0 1 7.888-1.733l0.8 0.643a1 1 0 0 0 1.25 0l0.8-0.643a5.192 5.192 0 0 1 7.888 1.733A6.493 6.493 0 0 1 29 48.263a11.689 11.689 0 0 1-1.035 4.823l-2.229 4.952a3.326 3.326 0 0 1-4.086 1.791Z" fill="#01ff70" data-fill-palette-color="accent"></path><rect x="46" y="11" width="2" height="2" fill="#01ff70" data-fill-palette-color="accent"></rect><rect x="42" y="11" width="2" height="2" fill="#01ff70" data-fill-palette-color="accent"></rect><rect x="38" y="11" width="2" height="2" fill="#01ff70" data-fill-palette-color="accent"></rect><path d="M8.125 58.59L6.388 54.727A15.64 15.64 0 0 1 5 48.263a10.541 10.541 0 0 1 1.1-4.682 9.56 9.56 0 0 1 0.714-1.2l-1.636-1.15a11.212 11.212 0 0 0-0.867 1.453A12.546 12.546 0 0 0 3 48.263a17.633 17.633 0 0 0 1.563 7.284L6.3 59.41Z" fill="#01ff70" data-fill-palette-color="accent"></path><rect x="59" y="11" width="2" height="22" fill="#01ff70" data-fill-palette-color="accent"></rect><rect x="59" y="35" width="2" height="2" fill="#01ff70" data-fill-palette-color="accent"></rect></g></svg></g></svg></g></svg></g></svg></g><g></g></svg></g><defs></defs></svg><rect width="255.8173035033244" height="247.2" fill="none" stroke="none" visibility="hidden"></rect></g></svg></g></svg>