<svg width="334" height="314" viewBox="0 0 334 314" fill="none" xmlns="http://www.w3.org/2000/svg">
<g id="Science_SVG">
<g id="&#208;&#161;&#208;&#187;&#208;&#190;&#208;&#185; 2">
<g id="&#208;&#161;&#208;&#187;&#208;&#190;&#208;&#185; 1">
<path id="Vector" opacity="0.4" d="M243.526 184.811L101.843 266.659L0 207.83L141.897 126.108L243.526 184.811Z" fill="#D6D8E5"/>
<path id="Vector_2" d="M249.645 172.192L107.962 254.047L6.11914 195.217L148.016 113.489L249.645 172.192Z" fill="#41538C"/>
<path id="Vector_3" d="M249.645 181.242L107.962 263.09V254.047L249.645 172.199V181.242Z" fill="#263351"/>
<path id="Vector_4" d="M107.962 263.09L6.11914 204.267V195.224L107.962 254.047V263.09Z" fill="#314366"/>
<path id="Vector_5" d="M102.344 224.886L39.5791 188.627L79.2516 165.709L142.01 201.968L102.344 224.886Z" fill="#41538C"/>
<path id="Vector_6" d="M142.017 208.832L102.344 231.75V224.906L142.017 201.988V208.832Z" fill="#263351"/>
<path id="Vector_7" d="M102.344 231.75L39.5791 195.491V188.654L102.344 224.906V231.75Z" fill="#314366"/>
<path id="Vector_8" d="M98.7372 209.754L60.6211 187.738L82.8521 174.899L120.968 196.915L98.7372 209.754Z" fill="#8DBBFF"/>
<path id="Vector_9" d="M98.7372 212.461L60.6211 190.445V187.692L98.7372 209.708V212.461Z" fill="#7FAEDD"/>
<path id="Vector_10" d="M120.968 199.622L98.7368 212.461V209.708L120.968 196.868V199.622Z" fill="#6F98C9"/>
<path id="Vector_11" opacity="0.2" d="M90.9281 197.804C96.1632 197.804 100.407 195.35 100.407 192.323C100.407 189.296 96.1632 186.843 90.9281 186.843C85.6931 186.843 81.4492 189.296 81.4492 192.323C81.4492 195.35 85.6931 197.804 90.9281 197.804Z" fill="white"/>
<path id="Vector_12" d="M133.406 136.1C133.406 136.1 145.43 114.278 135.838 88.9132C126.245 63.5486 146.613 66.0416 146.613 66.0416L168.282 86.2531L171.622 143.847L155.343 160.75L133.132 152.435L133.406 136.1Z" fill="#314366"/>
<path id="Vector_13" d="M126.252 34.0267C126.252 34.0267 154.021 41.7597 164.996 54.0042C175.971 66.2488 132.725 54.7194 132.725 54.7194L126.252 34.0267Z" fill="#41538C"/>
<path id="Vector_14" d="M146.512 44.8676L102.177 70.4796L81.8833 59.6386L126.218 34.0267L146.512 44.8676Z" fill="#41538C"/>
<path id="Vector_15" d="M167.855 172.199C167.855 172.199 185.169 129.035 179.324 86.4603C174.755 53.5698 154.121 46.2579 154.121 46.2579C154.121 46.2579 148.276 43.698 143.713 43.5175L112.838 60.982V103.758L143.713 85.9323C143.713 85.9323 161.789 94.3337 154.121 125.767C151.138 140.257 147.41 154.584 142.952 168.69L167.855 172.199Z" fill="#263351"/>
<path id="Vector_16" d="M146.8 162.14L160.4 151.813L139.973 139.896L127.762 132.845C125.023 131.261 120.333 136.187 120.333 140.692V173.93L144.054 187.752L163.693 167.032L146.8 162.14Z" fill="#314366"/>
<path id="Vector_17" d="M183.333 165.087L144.054 187.812V154.507C144.054 150.029 148.73 145.076 151.482 146.66L163.693 153.725L183.333 165.087Z" fill="#263351"/>
<path id="Vector_18" d="M160.41 169.988C163.224 165.113 163.225 159.844 160.413 158.22C157.602 156.596 153.042 159.231 150.229 164.106C147.416 168.981 147.415 174.25 150.226 175.874C153.038 177.498 157.597 174.863 160.41 169.988Z" fill="#ACBAD1"/>
<path id="Vector_19" d="M157.865 168.517C159.271 166.081 159.27 163.448 157.865 162.636C156.459 161.824 154.18 163.14 152.774 165.576C151.368 168.012 151.369 170.645 152.774 171.457C154.18 172.27 156.459 170.953 157.865 168.517Z" fill="#99A9BF"/>
<path id="Vector_20" d="M129.275 80.0688C132.088 75.1937 132.089 69.9251 129.278 68.3009C126.466 66.6767 121.907 69.3121 119.094 74.1872C116.28 79.0622 116.279 84.3309 119.091 85.9551C121.902 87.5792 126.462 84.9439 129.275 80.0688Z" fill="#ACBAD1"/>
<path id="Vector_21" d="M126.73 78.5984C128.135 76.1625 128.135 73.5294 126.729 72.7173C125.324 71.9053 123.044 73.2216 121.639 75.6576C120.233 78.0935 120.233 80.7266 121.639 81.5386C123.045 82.3507 125.324 81.0343 126.73 78.5984Z" fill="#99A9BF"/>
<path id="Vector_22" d="M97.4813 148.572V132.337H84.3618V148.786C84.4086 149.715 85.0298 150.637 86.2723 151.352C87.7116 152.081 89.302 152.46 90.9149 152.46C92.5278 152.46 94.1181 152.081 95.5575 151.352C96.8601 150.564 97.5281 149.568 97.4813 148.572Z" fill="#314366"/>
<path id="Vector_23" d="M90.9214 135.966C94.548 135.966 97.4878 134.267 97.4878 132.17C97.4878 130.073 94.548 128.374 90.9214 128.374C87.2949 128.374 84.355 130.073 84.355 132.17C84.355 134.267 87.2949 135.966 90.9214 135.966Z" fill="#BCC0CE"/>
<path id="Vector_24" d="M104.048 134.596V102.08C104.181 100.075 102.912 97.983 100.227 96.4324C95.0967 93.4648 86.7801 93.4648 81.6565 96.4324C78.9845 97.983 77.702 100.042 77.8289 102.08V134.623C77.8221 134.701 77.8221 134.779 77.8289 134.857V134.971C77.9291 136.835 79.1649 138.68 81.6565 140.104C86.7868 143.065 95.0967 143.065 100.227 140.104C102.872 138.586 104.115 136.588 104.048 134.596Z" fill="#263351"/>
<path id="Vector_25" d="M112.839 114.325V38.1305L69.0244 37.7428V114.338C69.0244 117.58 71.162 120.821 75.4439 123.294C84.001 128.233 97.8753 128.233 106.439 123.294C110.701 120.808 112.839 117.566 112.839 114.325Z" fill="#314366"/>
<path id="Vector_26" d="M90.9283 50.3884C103.033 50.3884 112.845 44.7208 112.845 37.7295C112.845 30.7381 103.033 25.0705 90.9283 25.0705C78.8238 25.0705 69.0112 30.7381 69.0112 37.7295C69.0112 44.7208 78.8238 50.3884 90.9283 50.3884Z" fill="#41538C"/>
<path id="Vector_27" d="M101.596 37.2416V10.8209H80.2734V37.5557C80.3469 39.0662 81.3756 40.57 83.3796 41.7263C87.548 44.1324 94.3014 44.1324 98.4631 41.7263C100.614 40.4765 101.649 38.8523 101.596 37.2416Z" fill="#263351"/>
<path id="Vector_28" d="M90.9351 16.756C96.8268 16.756 101.603 13.997 101.603 10.5937C101.603 7.19028 96.8268 4.43129 90.9351 4.43129C85.0433 4.43129 80.2671 7.19028 80.2671 10.5937C80.2671 13.997 85.0433 16.756 90.9351 16.756Z" fill="#8DBBFF"/>
<path id="Vector_29" d="M105.39 8.35462L104.468 8.90268C103.876 8.01289 103.124 7.24023 102.251 6.62354C101.901 6.36448 101.535 6.12785 101.155 5.91507C100.54 5.55889 99.8988 5.24838 99.2379 4.98604C93.8828 2.96116 87.9732 2.96116 82.6181 4.98604C81.9612 5.25248 81.3229 5.56286 80.7076 5.91507C80.4137 6.08885 80.1331 6.25594 79.8726 6.4364C78.8287 7.1171 77.9463 8.01821 77.2875 9.07646L76.4658 8.34125V11.8168C76.4825 12.9503 76.8514 14.0505 77.5213 14.9648C78.372 16.1041 79.4589 17.0458 80.7076 17.7252C86.3522 20.9935 95.5105 20.9935 101.155 17.7252C103.981 16.0943 105.397 13.9556 105.397 11.8168V8.35462H105.39ZM83.7604 7.68625C87.7216 5.40043 94.1411 5.40043 98.0957 7.68625C99.1418 8.23613 100.014 9.06708 100.614 10.0857V10.1525C100.841 10.5728 100.979 11.0352 101.021 11.5111C101.062 11.987 101.006 12.4664 100.854 12.9196L92.0302 15.0183C92.0302 15.0183 86.3455 14.6039 85.5573 14.5036C84.0107 14.1006 82.4856 13.6187 80.9882 13.0599C80.8085 12.5773 80.7357 12.0614 80.775 11.5478C80.8142 11.0343 80.9644 10.5354 81.2153 10.0857C81.8244 9.06655 82.7059 8.23784 83.7604 7.69293V7.68625Z" fill="#314366"/>
<path id="Vector_30" d="M102.438 4.87242L102.251 6.63691L101.883 10.0924L100.648 10.1592H100.567C100.586 10.1368 100.602 10.1121 100.614 10.0857C100.014 9.06709 99.1419 8.23614 98.0958 7.68625C94.1412 5.40043 87.7217 5.40043 83.7605 7.68625C82.7216 8.23536 81.8547 9.06113 81.2555 10.0723L79.6924 9.40396L79.8861 6.46314L79.9729 5.1264L82.9055 3.12129C82.9055 3.12129 87.2341 1.30332 87.4679 1.26322C87.7017 1.22312 96.2187 1.93159 96.2187 1.93159L102.438 4.87242Z" fill="#263351"/>
<path id="Vector_31" d="M101.155 2.44623C95.5105 -0.815411 86.3522 -0.815411 80.7076 2.44623C77.8753 4.07705 76.4658 6.21584 76.4658 8.35462C76.4658 10.4934 77.8753 12.6255 80.7076 14.2563C86.3522 17.5247 95.5105 17.5247 101.155 14.2563C103.981 12.6255 105.39 10.5068 105.39 8.36799C105.39 6.21584 103.981 4.07705 101.155 2.44623ZM81.2487 10.0924C80.3469 8.40141 80.8078 6.52329 82.6248 5.01946C82.9804 4.72385 83.3628 4.46206 83.7671 4.23746C87.7283 1.94496 94.1478 1.94496 98.1023 4.23746C98.5055 4.4637 98.8878 4.72539 99.2446 5.01946C101.075 6.52329 101.529 8.41477 100.621 10.1124C100.608 10.1388 100.593 10.1635 100.574 10.186C99.9727 11.1684 99.1192 11.9716 98.1023 12.5119C94.1478 14.8044 87.7283 14.8044 83.7671 12.5119C82.7176 11.9574 81.845 11.1191 81.2487 10.0924Z" fill="#41538C"/>
<path id="Vector_32" opacity="0.2" d="M87.8155 11.262C89.6859 11.262 91.2022 10.3853 91.2022 9.30371C91.2022 8.22215 89.6859 7.34538 87.8155 7.34538C85.945 7.34538 84.4287 8.22215 84.4287 9.30371C84.4287 10.3853 85.945 11.262 87.8155 11.262Z" fill="white"/>
<path id="Vector_33" opacity="0.2" d="M95.2566 11.9972C96.3819 11.9972 97.294 11.4706 97.294 10.8209C97.294 10.1712 96.3819 9.64458 95.2566 9.64458C94.1314 9.64458 93.2192 10.1712 93.2192 10.8209C93.2192 11.4706 94.1314 11.9972 95.2566 11.9972Z" fill="white"/>
<path id="Vector_34" opacity="0.4" d="M42.6583 314C58.8395 314 71.9568 306.423 71.9568 297.077C71.9568 287.73 58.8395 280.154 42.6583 280.154C26.4772 280.154 13.3599 287.73 13.3599 297.077C13.3599 306.423 26.4772 314 42.6583 314Z" fill="#D6D8E5"/>
<path id="Vector_35" d="M75.6713 234.751H17.0811C17.0811 234.751 17.2815 284.458 17.1278 293.889C17.09 294.313 17.0788 294.74 17.0944 295.165C17.0992 295.232 17.0992 295.299 17.0944 295.366C17.3282 299.51 20.1806 303.614 25.6582 306.782C37.0943 313.392 55.6447 313.392 67.0742 306.782C72.5518 303.614 75.3975 299.51 75.6313 295.366L75.6713 234.751Z" fill="#8C50FF"/>
<path id="Vector_36" d="M46.3795 251.12C62.5606 251.12 75.678 243.543 75.678 234.197C75.678 224.85 62.5606 217.274 46.3795 217.274C30.1984 217.274 17.0811 224.85 17.0811 234.197C17.0811 243.543 30.1984 251.12 46.3795 251.12Z" fill="#8C50FF"/>
<path id="Vector_37" d="M77.1071 236.462C76.8007 237.272 76.4112 238.047 75.9447 238.775C75.0244 240.208 73.8991 241.498 72.6047 242.605C72.2173 242.946 71.8031 243.273 71.3689 243.601C70.506 244.251 69.6024 244.844 68.6635 245.379C68.4631 245.499 68.2627 245.612 68.0557 245.719C67.6415 245.953 67.2073 246.174 66.7731 246.388C65.7177 246.902 64.6155 247.377 63.4799 247.798C63.059 247.958 62.6382 248.112 62.204 248.252C61.1151 248.62 59.9929 248.921 58.864 249.228C58.4832 249.329 58.0891 249.415 57.7017 249.502C56.5794 249.75 55.4438 249.964 54.2949 250.131C53.9074 250.191 53.5133 250.244 53.1259 250.291C51.9969 250.431 50.8613 250.538 49.7191 250.605C49.3316 250.605 48.9442 250.652 48.5501 250.659C47.4211 250.712 46.2855 250.719 45.1499 250.692L43.9342 250.639C42.7941 250.585 41.6585 250.498 40.5274 250.378C40.1333 250.331 39.7458 250.291 39.3584 250.231C38.2094 250.084 37.0738 249.897 35.9583 249.669L34.7893 249.422C33.6269 249.155 32.4913 248.847 31.3825 248.5L30.2135 248.119C29.0445 247.711 27.9022 247.257 26.8067 246.749C26.4103 246.57 26.0229 246.383 25.6443 246.187C25.1233 245.929 24.6156 245.655 24.1213 245.365C23.4533 244.977 22.8321 244.583 22.2375 244.175C21.8301 243.901 21.4426 243.614 21.0685 243.32C19.7997 242.351 18.6554 241.228 17.6617 239.978C17.2349 239.431 16.8465 238.855 16.4994 238.254C12.8789 231.931 15.4173 224.692 24.1213 219.666C36.4125 212.568 56.3389 212.568 68.6301 219.666C72.0904 221.671 74.5687 224.004 76.085 226.504C76.4883 227.164 76.8304 227.86 77.1071 228.582C78.0956 231.116 78.0956 233.929 77.1071 236.462Z" fill="#EF990F"/>
<path id="Vector_38" d="M14.9033 232.526C14.9033 232.359 14.9033 223.469 14.9033 223.469L25.3842 227.994L14.9033 232.526Z" fill="#EF990F"/>
<path id="Vector_39" d="M77.8556 222.988L77.8422 232.091L72.1442 236.95L68.6572 228.602L77.8556 222.988Z" fill="#EF990F"/>
<path id="Vector_40" d="M17.6618 228.322V239.978C17.235 239.431 16.8466 238.855 16.4995 238.254V228.322H17.6618Z" fill="#DD8910"/>
<path id="Vector_41" d="M22.2378 231.924V244.182C21.8304 243.908 21.4429 243.621 21.0688 243.327V231.924H22.2378Z" fill="#DD8910"/>
<path id="Vector_42" d="M26.8069 235.106V246.762C26.4105 246.584 26.0231 246.397 25.6445 246.201V235.106H26.8069Z" fill="#DD8910"/>
<path id="Vector_43" d="M31.3961 236.516V248.513L30.2271 248.132V236.516H31.3961Z" fill="#DD8910"/>
<path id="Vector_44" d="M35.9585 238.087V249.683L34.7896 249.436V238.073L35.9585 238.087Z" fill="#DD8910"/>
<path id="Vector_45" d="M40.5274 239.276V250.418C40.1333 250.371 39.7458 250.331 39.3584 250.271V239.276H40.5274Z" fill="#DD8910"/>
<path id="Vector_46" d="M45.1031 239.276V250.719L43.9341 250.639V239.276H45.1031Z" fill="#DD8910"/>
<path id="Vector_47" d="M49.6724 239.276V250.639C49.285 250.639 48.8975 250.685 48.5034 250.692V239.276H49.6724Z" fill="#DD8910"/>
<path id="Vector_48" d="M54.2481 238.822V250.131C53.8607 250.191 53.4665 250.244 53.0791 250.291V238.822H54.2481Z" fill="#DD8910"/>
<path id="Vector_49" d="M58.8176 237.599V249.228C58.4368 249.329 58.0427 249.415 57.6553 249.502V237.599H58.8176Z" fill="#DD8910"/>
<path id="Vector_50" d="M63.46 235.934V247.785C63.0391 247.945 62.6183 248.099 62.1841 248.239V235.934H63.46Z" fill="#DD8910"/>
<path id="Vector_51" d="M68.0223 233.381V245.719C67.6081 245.953 67.1739 246.174 66.7397 246.388V233.381H68.0223Z" fill="#DD8910"/>
<path id="Vector_52" d="M72.5713 230.587V242.618C72.1838 242.959 71.7697 243.286 71.3354 243.614V230.587H72.5713Z" fill="#DD8910"/>
<path id="Vector_53" d="M77.1071 226.504V236.462C76.8008 237.272 76.4113 238.047 75.9448 238.775V226.504H77.1071Z" fill="#DD8910"/>
<path id="Vector_54" d="M46.3795 241.168C63.7633 241.168 77.8556 233.029 77.8556 222.988C77.8556 212.948 63.7633 204.808 46.3795 204.808C28.9957 204.808 14.9033 212.948 14.9033 222.988C14.9033 233.029 28.9957 241.168 46.3795 241.168Z" fill="#FCA70D"/>
<path id="Vector_55" d="M67.0938 256.159C55.6509 262.769 37.1005 262.769 25.6777 256.159L25.1433 255.838L25.0298 255.905V279.071L25.6978 279.452C37.1339 286.062 55.6843 286.062 67.1138 279.452L67.7818 279.064V255.912L67.6682 255.845L67.0938 256.159Z" fill="#ECE8F9"/>
<path id="Vector_56" d="M64.3817 262.562C53.8273 267.328 38.9309 267.328 28.3765 262.562V265.496C38.9309 270.262 53.8273 270.262 64.3817 265.496V262.562Z" fill="#8C50FF"/>
<path id="Vector_57" d="M51.369 276.972C43.4265 277.761 35.0364 276.652 28.3765 273.63V276.558C35.0565 279.566 43.4265 280.675 51.369 279.9V276.972Z" fill="#8C50FF"/>
<path id="Vector_58" d="M58.7037 270.115C48.9175 272.735 37.154 272.08 28.3765 268.11V271.044C37.154 275.001 48.9175 275.656 58.7037 273.049V270.115Z" fill="#8C50FF"/>
<path id="Vector_59" opacity="0.4" d="M274.248 254.535C306.304 254.535 332.29 239.522 332.29 221.003C332.29 202.484 306.304 187.471 274.248 187.471C242.192 187.471 216.205 202.484 216.205 221.003C216.205 239.522 242.192 254.535 274.248 254.535Z" fill="#D6D8E5"/>
<path id="Vector_60" d="M333.566 213.37L333.532 213.277C333.131 211.453 332.493 209.689 331.635 208.03L297.166 112.814H297.3V66.4025H257.18V112.814L222.871 208.104C222.032 209.74 221.407 211.479 221.014 213.277L220.981 213.37C218.91 223.048 224.288 233.161 237.153 240.593C259.304 253.392 295.229 253.392 317.387 240.593C330.259 233.161 335.643 223.048 333.566 213.37Z" fill="#E1EAFF"/>
<path id="Vector_61" d="M277.28 238.708C301.998 238.708 322.036 227.134 322.036 212.856C322.036 198.578 301.998 187.003 277.28 187.003C252.562 187.003 232.524 198.578 232.524 212.856C232.524 227.134 252.562 238.708 277.28 238.708Z" fill="#FCA70D"/>
<path id="Vector_62" d="M232.731 210.363L248.683 163.383H305.623L321.829 210.363H232.731Z" fill="#FCA70D"/>
<path id="Vector_63" d="M277.153 181.482C292.947 181.482 305.75 174.085 305.75 164.96C305.75 155.835 292.947 148.438 277.153 148.438C261.36 148.438 248.556 155.835 248.556 164.96C248.556 174.085 261.36 181.482 277.153 181.482Z" fill="#EF990F"/>
<path id="Vector_64" opacity="0.2" d="M277.053 112.54V221.003C264.775 221.003 252.504 218.283 243.132 212.869C232.037 206.459 227.508 197.69 229.538 189.356L230.874 185.693L237.688 166.899L237.989 166.05L257.18 112.814V68.1737L277.013 76.9694L277.053 112.54Z" fill="white"/>
<path id="Vector_65" d="M277.28 76.9427C288.838 76.9427 298.208 71.5295 298.208 64.8519C298.208 58.1743 288.838 52.7611 277.28 52.7611C265.722 52.7611 256.352 58.1743 256.352 64.8519C256.352 71.5295 265.722 76.9427 277.28 76.9427Z" fill="#D6DFF2"/>
<path id="Vector_66" d="M277.28 70.5531C284.895 70.5531 291.068 68.0006 291.068 64.8519C291.068 61.7032 284.895 59.1507 277.28 59.1507C269.666 59.1507 263.493 61.7032 263.493 64.8519C263.493 68.0006 269.666 70.5531 277.28 70.5531Z" fill="#ACBAD1"/>
<path id="Vector_67" d="M273.633 55.4613C276.725 55.4613 279.231 52.9537 279.231 49.8604C279.231 46.7671 276.725 44.2594 273.633 44.2594C270.541 44.2594 268.035 46.7671 268.035 49.8604C268.035 52.9537 270.541 55.4613 273.633 55.4613Z" fill="#FCA70D"/>
<path id="Vector_68" opacity="0.2" d="M272.591 51.3041C274.096 51.3041 275.316 50.0832 275.316 48.5771C275.316 47.0711 274.096 45.8502 272.591 45.8502C271.085 45.8502 269.865 47.0711 269.865 48.5771C269.865 50.0832 271.085 51.3041 272.591 51.3041Z" fill="white"/>
<path id="Vector_69" opacity="0.2" d="M275.53 53.5631C276.128 53.5631 276.612 53.0784 276.612 52.4804C276.612 51.8824 276.128 51.3976 275.53 51.3976C274.932 51.3976 274.448 51.8824 274.448 52.4804C274.448 53.0784 274.932 53.5631 275.53 53.5631Z" fill="white"/>
<path id="Vector_70" d="M293.285 40.1356C297.926 40.1356 301.689 36.3712 301.689 31.7275C301.689 27.0838 297.926 23.3194 293.285 23.3194C288.644 23.3194 284.882 27.0838 284.882 31.7275C284.882 36.3712 288.644 40.1356 293.285 40.1356Z" fill="#FCA70D"/>
<path id="Vector_71" opacity="0.2" d="M291.722 33.893C293.98 33.893 295.811 32.0617 295.811 29.8026C295.811 27.5435 293.98 25.7122 291.722 25.7122C289.465 25.7122 287.634 27.5435 287.634 29.8026C287.634 32.0617 289.465 33.893 291.722 33.893Z" fill="white"/>
<path id="Vector_72" opacity="0.2" d="M296.138 37.2883C297.034 37.2883 297.761 36.5612 297.761 35.6642C297.761 34.7672 297.034 34.0401 296.138 34.0401C295.241 34.0401 294.515 34.7672 294.515 35.6642C294.515 36.5612 295.241 37.2883 296.138 37.2883Z" fill="white"/>
<path id="Vector_73" d="M269.091 21.7688C275.067 21.7688 279.912 16.9211 279.912 10.9412C279.912 4.96129 275.067 0.113617 269.091 0.113617C263.114 0.113617 258.269 4.96129 258.269 10.9412C258.269 16.9211 263.114 21.7688 269.091 21.7688Z" fill="#FCA70D"/>
<path id="Vector_74" opacity="0.2" d="M267.073 13.735C269.98 13.735 272.337 11.377 272.337 8.46824C272.337 5.5595 269.98 3.20149 267.073 3.20149C264.166 3.20149 261.809 5.5595 261.809 8.46824C261.809 11.377 264.166 13.735 267.073 13.735Z" fill="white"/>
<path id="Vector_75" opacity="0.2" d="M272.758 18.0928C273.909 18.0928 274.842 17.1591 274.842 16.0074C274.842 14.8558 273.909 13.9221 272.758 13.9221C271.607 13.9221 270.674 14.8558 270.674 16.0074C270.674 17.1591 271.607 18.0928 272.758 18.0928Z" fill="white"/>
<path id="Vector_76" opacity="0.4" d="M290.433 312.062C303.869 312.062 314.762 305.769 314.762 298.006C314.762 290.243 303.869 283.95 290.433 283.95C276.997 283.95 266.104 290.243 266.104 298.006C266.104 305.769 276.997 312.062 290.433 312.062Z" fill="#D6D8E5"/>
<g id="Men 1">
<path id="&#60;&#208;&#154;&#208;&#190;&#208;&#189;&#209;&#130;&#209;&#131;&#209;&#128;&#62;" d="M310.547 190.953C310.827 193.379 313.726 203.873 313.105 207.469C312.484 211.064 302.604 217.073 302.604 217.073L301.268 210.917L306.752 205.57L305.269 195.378L310.547 190.953Z" fill="#FFCEA9"/>
<path id="&#60;&#208;&#154;&#208;&#190;&#208;&#189;&#209;&#130;&#209;&#131;&#209;&#128;&#62;_2" d="M302.885 180.614C303.849 180.166 304.943 180.089 305.96 180.396C306.977 180.702 307.846 181.372 308.402 182.278C309.859 184.697 311.375 192.972 311.509 194.395C311.509 194.395 309.465 197.223 306.398 196.748L302.885 180.614Z" fill="#EDEDED"/>
<path id="Vector_77" d="M291.575 297.578C289.419 298.173 287.115 297.894 285.163 296.803C283.62 296.85 275.236 293.26 274.094 296.275C273.099 298.948 276.726 301.361 278.67 301.829C282.905 302.858 286.018 304.97 287.734 305.325C289.004 305.592 290.64 305.772 291.656 304.776C292.865 303.58 292.758 299.156 291.575 297.578Z" fill="#38226D"/>
<path id="Vector_78" d="M287.734 304.596C286.038 304.235 282.905 302.123 278.67 301.1C277.046 300.706 274.241 298.922 273.96 296.803C273.586 299.236 276.859 301.395 278.67 301.829C282.905 302.858 286.018 304.97 287.734 305.325C289.003 305.592 290.64 305.772 291.655 304.776C291.915 304.485 292.105 304.137 292.21 303.761C291.58 304.238 290.848 304.563 290.071 304.708C289.294 304.853 288.494 304.814 287.734 304.596Z" fill="#9C73FF"/>
<path id="Vector_79" d="M305.169 291.469C303.013 292.068 300.708 291.789 298.756 290.694C297.213 290.741 288.83 287.152 287.694 290.166C286.692 292.806 290.326 295.252 292.264 295.72C296.499 296.749 299.612 298.861 301.328 299.222C302.597 299.49 304.241 299.663 305.249 298.668C306.459 297.471 306.352 293.047 305.169 291.469Z" fill="#38226D"/>
<path id="Vector_80" d="M301.328 298.487C299.632 298.126 296.499 296.014 292.264 294.992C290.64 294.597 287.835 292.819 287.588 290.694C287.214 293.127 290.487 295.286 292.264 295.72C296.499 296.749 299.612 298.861 301.328 299.222C302.598 299.49 304.241 299.663 305.25 298.668C305.509 298.376 305.699 298.028 305.804 297.652C305.174 298.129 304.442 298.454 303.665 298.599C302.888 298.744 302.088 298.706 301.328 298.487Z" fill="#9C73FF"/>
<path id="&#60;&#208;&#154;&#208;&#190;&#208;&#189;&#209;&#130;&#209;&#131;&#209;&#128;&#62;_3" d="M305.336 268.685C304.977 265.57 304.328 262.496 303.399 259.501C303.399 259.501 303.98 251.574 304.268 244.055C304.595 235.527 307.554 228.014 305.216 221.217L278.917 227.065C278.917 227.065 280.507 261.072 280.861 265.162C281.053 268.365 281.448 271.553 282.043 274.707C283.239 281.31 285.19 297.01 285.19 297.01C287.975 298.628 291.622 297.732 291.622 297.732C291.622 297.732 291.422 277.875 291.242 273.116C291.028 267.308 290.847 267.769 290.847 267.769L291.716 253.312L292.284 246.12C292.284 246.12 293.012 251.401 293.486 256.146C293.9 260.256 294.896 263.979 296.004 271.632C296.966 278.276 298.523 291.623 298.523 291.623C301.308 293.24 305.083 291.897 305.083 291.897C305.083 291.897 306.085 274.446 305.336 268.685Z" fill="#8C50FF"/>
<path id="&#60;&#208;&#154;&#208;&#190;&#208;&#189;&#209;&#130;&#209;&#131;&#209;&#128;&#62;_4" d="M301.495 180.754C299.491 180.854 298.001 181.369 297.748 180.754C297.533 179.719 297.382 178.672 297.293 177.619C297.52 177.038 297.721 176.416 297.721 176.416C300.239 174.866 301.061 172.145 301.361 168.977C301.929 163.563 299.003 158.825 293.593 158.283C288.502 157.755 284.762 161.331 283.766 166.244C283.225 168.67 282.156 173.248 283.606 177.238C284.414 179.471 285.456 181.248 286.498 181.583C287.507 181.558 288.513 181.471 289.511 181.322C289.511 181.322 289.785 182.826 289.965 183.788C290.146 184.751 290.079 185.265 288.162 186.462C286.245 187.658 291.061 190.078 294.214 189.844C297.367 189.61 300.894 187.698 301.889 185.66C302.965 183.367 302.871 180.687 301.495 180.754Z" fill="#FFCEA9"/>
<path id="&#60;&#208;&#154;&#208;&#190;&#208;&#189;&#209;&#130;&#209;&#131;&#209;&#128;&#62;_5" d="M298.596 181.055C299.15 182.438 297.741 184.129 293.98 185.312C290.219 186.495 289.879 184.978 289.879 184.978C289.879 184.978 284.361 187.491 282.564 188.741C280.306 190.325 279.311 194.89 279.004 202.61C278.65 211.539 278.623 224.779 278.917 227.065C278.917 227.065 283.139 231.276 288.536 230.828C293.933 230.38 303.018 225.608 305.236 221.912C305.169 214.085 304.261 212.809 305.523 208.304C308.422 197.978 309.952 193.754 308.543 186.916C307.38 181.262 305.75 180.56 303.519 180.614C301.871 180.671 300.228 180.818 298.596 181.055Z" fill="#F4F4F4"/>
<path id="&#60;&#208;&#154;&#208;&#190;&#208;&#189;&#209;&#130;&#209;&#131;&#209;&#128;&#62;_6" d="M270.54 211.485C274.976 212.602 276.011 209.808 276.599 207.475C278.008 201.874 278.763 196.781 279.819 193.633C281.054 189.877 282.35 189.282 284.174 188.547C286.312 187.692 288.182 189.503 287.441 194.275C286.599 199.923 285.49 203.893 283.379 210.577C282.831 212.321 281.596 215.422 279.739 216.919C277.454 218.771 274.014 218.691 268.803 217.394C266.579 216.839 264.127 215.516 259.939 213.551C258.81 213.023 257.935 212.675 255.771 211.666C253.596 210.689 251.689 209.201 250.213 207.328C249.077 205.684 248.93 204.909 249.157 204.534C249.385 204.16 249.966 204.167 250.567 204.862C251.447 206.027 252.528 207.025 253.76 207.809C253.76 207.809 252.357 206.366 251.602 205.423C250.921 204.591 250.356 203.669 249.926 202.683C249.525 201.727 250.347 200.424 250.974 201.106C251.602 201.787 251.903 202.489 253.052 203.859C253.654 204.594 254.343 205.254 255.103 205.824C254.393 204.86 253.761 203.841 253.212 202.777C252.733 201.941 252.502 200.986 252.544 200.023C252.544 199.522 253.286 198.927 253.947 199.876C254.608 200.825 254.936 202.068 256.332 203.512C257.341 204.568 258.202 205.169 258.229 204.882C258.256 204.595 257.614 204.013 257.254 202.79C256.893 201.567 257.254 200.27 257.922 200.117C258.59 199.963 258.469 200.01 259.01 201.159C259.552 202.309 260.387 203.164 261.014 204.822C261.355 206 261.979 207.076 262.831 207.957C263.894 209.14 266.298 210.423 270.54 211.485Z" fill="#FFCEA9"/>
<path id="&#60;&#208;&#154;&#208;&#190;&#208;&#189;&#209;&#130;&#209;&#131;&#209;&#128;&#62;_7" d="M285.791 187.812C282.831 187.371 280.741 188.707 279.431 193.159C278.122 197.61 277.22 201.346 277.22 201.346C278.394 203.038 280.17 204.217 282.183 204.641C285.724 205.497 286.993 203.806 286.993 203.806C286.993 203.806 287.975 199.127 288.59 195.906C289.204 192.684 289.451 188.34 285.791 187.812Z" fill="#EDEDED"/>
<path id="Vector_81" d="M283.934 165.528C283.934 165.528 279.258 158.417 289.391 156.967C296.699 155.924 301.415 160.616 301.936 165.716C302.457 170.581 299.458 175.641 297.294 177.646C296.238 178.027 293.954 178.241 290.981 176.884C290.857 175.551 290.811 174.212 290.841 172.874C290.841 172.874 294.401 165.401 283.934 165.528Z" fill="#3A2C6D"/>
</g>
<path id="Vector_82" d="M307.881 197.042L278.916 224.044L277.22 275.97C277.22 275.97 285.343 279.933 294.588 277.788L296.258 257.817L298.83 275.943L298.522 276.498C302.898 274.538 306.651 271.412 309.371 267.461L307.881 197.042Z" fill="#F4F4F4"/>
<path id="Vector_83" d="M277.22 201.346L275.797 207.609C275.797 207.609 274.588 212 271.502 210.884C268.563 209.649 265.699 208.243 262.925 206.673L259.184 214.353L266.926 217.982C266.926 217.982 277.668 221.812 280.654 217.982C283.64 214.152 286.993 203.806 286.993 203.806L277.22 201.346Z" fill="#EDEDED"/>
<path id="Vector_84" d="M311.508 194.395L312.764 200.371C312.764 200.371 313.372 204.869 313.432 205.717C313.492 206.566 313.853 208.09 311.375 210.556C308.897 213.023 308.235 213.771 308.235 213.771L307.895 199.736L308.609 196.501L310.687 193.881L311.508 194.395Z" fill="#EDEDED"/>
</g>
</g>
</g>
</svg>
