<?xml version="1.0" standalone="no"?><svg xmlns="http://www.w3.org/2000/svg" viewBox="0 0 1440 320"><path fill="#000b76" fill-opacity="1" d="M0,320L34.3,309.3C68.6,299,137,277,206,234.7C274.3,192,343,128,411,122.7C480,117,549,171,617,170.7C685.7,171,754,117,823,85.3C891.4,53,960,43,1029,42.7C1097.1,43,1166,53,1234,64C1302.9,75,1371,85,1406,90.7L1440,96L1440,320L1405.7,320C1371.4,320,1303,320,1234,320C1165.7,320,1097,320,1029,320C960,320,891,320,823,320C754.3,320,686,320,617,320C548.6,320,480,320,411,320C342.9,320,274,320,206,320C137.1,320,69,320,34,320L0,320Z"></path></svg>