<svg width="368" height="328" viewBox="0 0 368 328" fill="none" xmlns="http://www.w3.org/2000/svg">
<g id="yoga">
<g id="Layer 4">
<g id="Group">
<g id="Group_2">
<path id="Vector" d="M177.388 114.318C198.782 165.467 190.751 236.741 171.918 288.869C130.168 257.565 101.572 202.222 93.956 179.443C85.3013 153.588 84.5397 125.638 88.2093 98.5956C91.8789 71.6233 101.711 45.5594 110.435 19.775C138.199 47.0268 162.363 78.4712 177.388 114.318Z" fill="#005A2A"/>
</g>
<g id="Group_3">
<path id="Vector_2" d="M99.3565 52.8266C99.495 52.3375 99.6334 51.8484 99.8412 51.3592L125.459 74.0691C124.144 69.3175 122.828 64.496 121.443 59.6046L103.026 41.856C103.165 41.3669 103.372 40.8778 103.511 40.3886L120.613 56.9493C118.535 49.6822 116.389 42.2054 114.173 34.6588C114.104 34.6588 114.035 34.6588 114.035 34.5889C113.966 34.5889 113.896 34.519 113.827 34.4491L107.527 28.4398C107.665 27.9506 107.873 27.4615 108.011 26.9724L113.412 32.1432C112.304 28.4398 111.196 24.7363 110.088 20.963C110.227 20.6136 110.365 20.1943 110.504 19.845C110.85 20.1943 111.196 20.5437 111.542 20.8931C113.481 27.3217 115.35 33.6106 117.151 39.8296L120.751 30.3264C121.097 30.6758 121.443 31.0951 121.79 31.4444L117.774 42.0657C119.436 47.7955 121.028 53.4555 122.62 58.9758C122.62 59.0456 122.62 59.0456 122.69 59.1155C124.282 64.7755 125.875 70.3656 127.398 75.8859C127.398 75.9557 127.467 76.0256 127.467 76.0955C128.436 79.5194 129.337 82.8735 130.237 86.2276L142.699 55.7614C143.046 56.1807 143.392 56.6 143.669 57.0192L130.791 88.3937C131.552 91.2587 132.314 94.1236 133.075 96.9187L148.377 63.378C148.723 63.7972 149 64.2165 149.346 64.7056L133.629 99.0848C135.36 105.653 137.022 112.082 138.614 118.371C138.684 118.51 138.684 118.58 138.684 118.72C139.722 122.773 140.692 126.686 141.661 130.599L164.232 87.8347C164.509 88.3239 164.786 88.813 165.063 89.3021L142.146 132.626C144.5 142.199 146.715 151.422 148.792 160.366C148.862 160.506 148.862 160.646 148.862 160.786C150.385 167.354 151.839 173.713 153.154 179.932L182.027 127.385C182.234 128.014 182.442 128.643 182.581 129.271L153.708 182.098C154.401 185.173 155.024 188.177 155.647 191.112L185.212 139.194C185.35 139.893 185.489 140.522 185.627 141.22L156.062 193.139C156.962 197.471 157.863 201.803 158.693 205.926C158.763 206.066 158.763 206.205 158.763 206.345C159.94 212.075 161.048 217.665 162.086 223.116L189.92 176.228C189.989 177.067 189.989 177.975 189.989 178.814L162.571 225.072C162.571 225.142 162.502 225.142 162.502 225.142C162.917 227.168 163.263 229.125 163.609 231.081C163.679 231.221 163.679 231.291 163.679 231.431C164.163 234.016 164.648 236.532 165.063 239.047L189.851 198.519C189.781 199.497 189.781 200.476 189.712 201.454L165.479 241.144C168.594 258.333 170.949 273.496 172.818 286.563C172.541 287.332 172.264 288.101 171.987 288.939C171.918 288.869 171.779 288.799 171.71 288.73C171.641 288.31 171.572 287.891 171.502 287.472C169.356 271.959 166.379 253.372 162.363 231.92L102.68 200.056C102.334 199.358 101.988 198.589 101.641 197.89L162.086 230.173C160.701 222.766 159.178 214.94 157.516 206.834L91.3941 170.848C91.2556 170.219 91.0479 169.59 90.9095 168.961L157.032 204.948C154.262 191.322 151.077 176.718 147.546 161.205L86.2705 122.493C86.2705 121.934 86.2705 121.375 86.3397 120.886L147.131 159.318C144.153 146.601 140.969 133.185 137.368 119.209L90.494 85.9481C90.5633 85.4589 90.7017 84.9698 90.8402 84.4108L136.883 117.043C133.56 104.116 130.029 90.6298 126.152 76.5846L99.3565 52.8266Z" fill="#003D1B"/>
</g>
</g>
</g>
<g id="Layer 2">
<g id="Group_4">
<g id="Group_5">
<path id="Vector_3" d="M82.2543 132.136C85.5085 132.346 88.6935 132.695 91.5322 134.372C97.1405 137.727 100.118 144.225 101.572 150.374C103.51 158.55 103.857 171.267 111.957 176.089C118.397 179.932 127.259 175.6 133.767 179.303C138.822 182.238 140.345 188.736 141.384 194.536C142.422 200.336 143.945 206.834 149 209.699C153.708 212.355 159.247 211.935 163.817 215.08C168.94 218.504 171.918 223.954 173.164 230.033C174.41 236.462 173.718 243.17 172.264 249.599C170.948 255.398 169.148 261.478 170.81 267.138C172.679 273.287 178.287 277.619 180.503 283.698C182.788 289.848 180.918 297.394 176.003 301.726C171.087 306.059 163.401 306.897 157.655 303.683C153.985 301.657 151.215 298.233 147.823 295.787C138.476 289.079 127.882 291.035 117.358 290.337C108.426 289.778 99.91 282.51 97.2097 273.986C94.8557 266.649 95.7558 257.634 90.2167 252.324C84.9546 247.363 76.4383 248.201 70.3454 244.428C58.8519 237.37 61.8291 222.766 62.5907 211.586C62.8677 207.044 62.4523 202.222 59.8905 198.449C54.5591 190.623 43.2041 190.902 38.0805 182.727C34.4109 176.857 36.4188 169.45 38.5652 163.371C40.0191 159.179 41.6809 154.916 41.9578 150.444C42.1655 145.972 40.7808 141.15 37.1804 138.565C31.5721 134.512 22.1557 135.281 21.6018 126.127C21.3249 121.865 24.0252 118.091 25.2715 114.108C27.0716 108.518 25.8254 102.649 22.7789 97.7572C20.7017 94.4031 16.8937 89.931 20.1478 85.8782C24.9253 79.8688 32.2645 90.9093 35.4494 93.914C42.4425 100.412 52.8974 93.2851 59.3366 101.181C66.3988 109.916 59.9597 126.476 72.9072 130.739C75.8844 131.927 79.0694 131.927 82.2543 132.136Z" fill="#0F7437"/>
</g>
<g id="Group_6">
<g id="Group_7">
<path id="Vector_4" d="M120.681 186.57C120.681 187.339 121.305 188.038 122.135 188.038C122.966 188.038 123.589 187.409 123.589 186.57C123.589 185.732 122.966 185.103 122.135 185.103C121.305 185.103 120.681 185.802 120.681 186.57Z" fill="#004C1B"/>
</g>
<g id="Group_8">
<path id="Vector_5" d="M111.75 184.264C111.75 184.684 112.096 185.033 112.512 185.033C112.927 185.033 113.273 184.684 113.273 184.264C113.273 183.845 112.927 183.496 112.512 183.496C112.096 183.496 111.75 183.845 111.75 184.264Z" fill="#004C1B"/>
</g>
<g id="Group_9">
<path id="Vector_6" d="M117.151 192.509C117.151 192.859 117.428 193.208 117.843 193.208C118.258 193.208 118.535 192.929 118.535 192.509C118.535 192.16 118.258 191.811 117.843 191.811C117.428 191.811 117.151 192.09 117.151 192.509Z" fill="#004C1B"/>
</g>
<g id="Group_10">
<path id="Vector_7" d="M63.2139 133.464C63.7875 133.464 64.2524 132.995 64.2524 132.416C64.2524 131.837 63.7875 131.368 63.2139 131.368C62.6403 131.368 62.1753 131.837 62.1753 132.416C62.1753 132.995 62.6403 133.464 63.2139 133.464Z" fill="#004C1B"/>
</g>
<g id="Group_11">
<path id="Vector_8" d="M41.6802 103.138C41.6802 103.697 42.1648 104.186 42.7187 104.186C43.2726 104.186 43.7573 103.697 43.7573 103.138C43.7573 102.579 43.2726 102.089 42.7187 102.089C42.1648 102.089 41.6802 102.579 41.6802 103.138Z" fill="#004C1B"/>
</g>
<g id="Group_12">
<path id="Vector_9" d="M31.0183 124.031C31.0183 124.52 31.3645 124.869 31.8492 124.869C32.3338 124.869 32.68 124.52 32.68 124.031C32.68 123.542 32.3338 123.192 31.8492 123.192C31.3645 123.192 31.0183 123.611 31.0183 124.031Z" fill="#004C1B"/>
</g>
<g id="Group_13">
<path id="Vector_10" d="M50.8201 184.194C51.4702 184.194 51.9972 183.662 51.9972 183.006C51.9972 182.35 51.4702 181.818 50.8201 181.818C50.17 181.818 49.6431 182.35 49.6431 183.006C49.6431 183.662 50.17 184.194 50.8201 184.194Z" fill="#004C1B"/>
</g>
<g id="Group_14">
<path id="Vector_11" d="M69.5146 215.988C69.5146 216.547 69.9993 217.036 70.5532 217.036C71.1071 217.036 71.5918 216.547 71.5918 215.988C71.5918 215.429 71.1071 214.94 70.5532 214.94C69.9301 214.94 69.5146 215.429 69.5146 215.988Z" fill="#004C1B"/>
</g>
</g>
<g id="Group_15">
<g id="Group_16">
<path id="Vector_12" d="M22.0864 128.922L58.3671 138.775C61.552 143.386 64.6677 147.998 67.7835 152.61L54.2128 151.213C54.1436 149.955 53.105 148.907 51.7895 148.907C50.474 148.907 49.3661 150.025 49.3661 151.352C49.3661 152.68 50.474 153.798 51.7895 153.798C52.7588 153.798 53.5897 153.239 54.0051 152.401L68.5451 153.728C72.6301 159.738 76.5767 165.677 80.5232 171.547L37.388 167.214C37.3187 167.564 37.1803 167.913 37.111 168.262L81.2849 172.665C99.7022 200.475 116.804 227.448 132.729 253.931L62.7983 234.435C62.9368 234.855 63.0753 235.274 63.2137 235.693L133.629 255.328C138.337 263.155 142.907 270.911 147.338 278.597L96.1018 269.094C96.171 269.513 96.2403 269.863 96.3095 270.282L148.1 279.855C151.838 286.284 155.508 292.712 159.108 299.071C159.178 299.281 159.385 299.351 159.593 299.351C159.662 299.351 159.801 299.351 159.87 299.281C160.147 299.141 160.216 298.792 160.078 298.512C154.539 288.729 148.861 278.877 143.045 268.954L147.961 208.931C147.615 208.651 147.269 208.372 146.922 208.022L142.076 267.277C139.583 263.015 137.021 258.822 134.46 254.56C134.46 254.56 134.46 254.56 134.46 254.49C132.313 250.926 130.167 247.363 127.951 243.729L133.975 179.303C133.906 179.303 133.906 179.233 133.837 179.233C133.56 179.093 133.213 178.884 132.936 178.744L126.982 242.122C118.604 228.356 109.88 214.521 100.81 200.406L102.333 153.728C102.126 152.54 101.849 151.352 101.641 150.234C101.572 149.955 101.502 149.605 101.433 149.326L99.8406 198.798C98.4559 196.632 97.0019 194.396 95.5479 192.23L97.625 140.312C97.2788 139.823 96.9327 139.334 96.5865 138.844L94.5093 190.693C90.4935 184.474 86.3392 178.185 82.185 171.896C82.185 171.826 82.1157 171.756 82.1157 171.756C77.9614 165.467 73.7379 159.179 69.4452 152.89C69.4452 152.82 69.3759 152.82 69.3759 152.75C66.0525 147.859 62.6598 142.897 59.2672 137.936C59.2672 137.866 59.1979 137.866 59.1979 137.796C57.1208 134.792 55.1129 131.857 53.0358 128.852L54.282 97.827C53.9359 97.6873 53.5897 97.6174 53.1742 97.5475L51.928 127.385C42.2346 113.409 32.1951 99.1547 21.7402 84.6902C21.4632 84.83 21.117 85.0396 20.8401 85.3191C33.5799 102.998 45.6965 120.257 57.3978 137.237L21.8094 127.594C21.8094 128.153 21.9479 128.503 22.0864 128.922ZM53.105 151.213C53.105 151.911 52.5511 152.54 51.7895 152.54C51.0971 152.54 50.474 151.981 50.474 151.213C50.474 150.444 51.0279 149.885 51.7895 149.885C52.5511 149.885 53.105 150.514 53.105 151.213Z" fill="#005A2A"/>
</g>
<g id="Group_17">
<path id="Vector_13" d="M86.3401 152.051C86.3401 150.724 85.2323 149.605 83.9167 149.605C82.6012 149.605 81.4934 150.724 81.4934 152.051C81.4934 153.379 82.6012 154.497 83.9167 154.497C85.2323 154.427 86.3401 153.379 86.3401 152.051ZM85.2323 152.051C85.2323 152.75 84.6783 153.379 83.9167 153.379C83.2244 153.379 82.6012 152.82 82.6012 152.051C82.6012 151.352 83.1551 150.724 83.9167 150.724C84.6783 150.724 85.2323 151.283 85.2323 152.051Z" fill="#004C1B"/>
</g>
</g>
</g>
</g>
<g id="Layer 3">
<g id="Group_18">
<path id="Vector_14" d="M18.7631 173.503C18.6939 173.294 18.8324 173.014 19.0401 172.874C19.2478 172.735 19.5247 172.735 19.7325 172.874C30.6721 179.932 39.3268 191.042 43.4119 203.48C46.8738 207.673 50.4049 211.726 54.0745 215.709C54.7669 216.268 55.4593 216.896 56.1517 217.525C51.1665 208.022 48.2585 197.331 47.7046 186.291C47.7046 186.011 47.8431 185.801 48.12 185.662C48.397 185.592 48.674 185.662 48.8124 185.871C56.1517 196.353 60.1675 209.14 59.9597 221.997V222.067C64.391 226.749 68.8914 231.291 73.5304 235.693C67.2297 224.583 63.8371 212.634 63.1447 199.218C63.1447 198.938 63.2832 198.729 63.5601 198.589C63.8371 198.519 64.114 198.589 64.2525 198.798C71.9379 210.468 76.2999 224.583 76.6461 238.558C79.6926 241.423 82.8083 244.218 85.924 247.013C80.5234 233.317 78.7925 219.901 80.5927 206.066C80.6619 205.786 80.8004 205.576 81.0773 205.576C81.3543 205.507 81.6312 205.646 81.7005 205.926C87.8627 219.132 90.1475 234.435 88.0011 248.9C92.7093 252.953 97.4867 256.936 102.403 260.779C94.7172 247.293 91.463 233.108 92.1554 216.547C92.1554 216.337 92.2939 216.128 92.5708 216.058C92.7786 215.988 93.0555 216.058 93.194 216.268C102.403 229.684 106.834 246.664 105.241 262.945C110.019 266.648 114.935 270.212 119.851 273.706C112.65 259.102 109.396 241.703 110.503 223.325C110.503 223.115 110.711 222.906 110.919 222.836C111.127 222.766 111.404 222.906 111.542 223.115C120.751 238.349 124.559 257.285 121.859 275.173C137.991 286.354 154.954 296.276 172.541 304.871C172.818 305.011 172.956 305.36 172.818 305.709C172.679 305.919 172.472 306.059 172.264 306.059C172.195 306.059 172.056 306.059 171.987 305.989C154.123 297.254 136.952 287.192 120.612 275.802C111.75 279.296 102.264 281.113 92.7786 281.113C85.3701 281.113 77.9616 279.995 70.8301 277.829C70.6224 277.759 70.4147 277.549 70.4147 277.34C70.4147 277.13 70.5532 276.85 70.7609 276.781C86.0625 271.47 101.433 270.492 117.635 273.776C113.273 270.701 108.98 267.487 104.688 264.203C96.8636 266.648 88.832 267.836 80.5927 267.836C70.4147 267.836 59.9597 266.02 49.3663 262.316C49.1586 262.246 49.0201 262.037 49.0201 261.827C49.0201 261.617 49.1586 261.408 49.3663 261.338C66.3989 255.957 84.8162 256.167 101.71 261.967C96.8636 258.124 92.0862 254.21 87.378 250.158C87.378 250.158 87.3088 250.228 87.2395 250.228C80.8004 252.394 74.4305 253.442 68.1298 253.442C58.7827 253.442 49.7125 251.066 41.2655 246.314C41.0578 246.175 40.9885 245.965 40.9885 245.755C40.9885 245.546 41.1962 245.336 41.404 245.336C55.8747 241.912 71.384 243.03 85.3009 248.411C81.0081 244.637 76.7846 240.724 72.6303 236.741C70.7609 236.811 68.9607 236.881 67.1605 236.881C53.2437 236.881 42.3733 233.876 32.403 227.308C32.1953 227.168 32.0568 226.889 32.1261 226.679C32.1953 226.4 32.403 226.26 32.6107 226.19C44.9351 224.373 57.8134 226.819 68.6837 232.898C64.4602 228.775 60.3752 224.513 56.3594 220.181C43.1349 218.504 32.9569 213.403 25.2715 204.738C25.133 204.528 25.0638 204.249 25.2023 204.039C25.3407 203.83 25.5485 203.69 25.8254 203.69C34.2032 204.668 42.2348 207.603 49.2279 212.215C47.0122 209.699 44.7966 207.114 42.6502 204.528C30.1182 199.427 21.3942 188.107 18.7631 173.503Z" fill="#84A21D"/>
</g>
</g>
<g id="Layer 5">
<g id="Group_19">
<g id="Group_20">
<path id="Vector_15" d="M180.226 114.108C158.832 165.258 166.863 236.532 185.696 288.66C227.447 257.355 256.042 202.013 263.658 179.233C272.313 153.379 273.075 125.428 269.405 98.386C265.735 71.4137 255.904 45.3498 247.18 19.5654C219.415 46.8172 195.251 78.1917 180.226 114.108Z" fill="#005A2A"/>
</g>
<g id="Group_21">
<path id="Vector_16" d="M258.188 52.617C258.049 52.1279 257.911 51.6387 257.703 51.1496L232.085 73.8595C233.4 69.1079 234.716 64.2864 236.101 59.395L254.518 41.6464C254.38 41.1573 254.172 40.6681 254.033 40.179L236.932 56.7397C239.009 49.4726 241.155 41.9958 243.371 34.4491C243.44 34.4491 243.509 34.4491 243.509 34.3793C243.578 34.3793 243.648 34.3094 243.717 34.2395L250.018 28.2301C249.879 27.741 249.671 27.2519 249.533 26.7627L244.132 31.9336C245.24 28.2301 246.348 24.5267 247.456 20.7534C247.317 20.404 247.179 19.9847 247.04 19.6353C246.694 19.9847 246.348 20.3341 246.002 20.6835C244.063 27.1121 242.194 33.401 240.393 39.62L236.793 30.0469C236.447 30.3963 236.101 30.8156 235.754 31.1649L239.77 41.7862C238.109 47.516 236.516 53.176 234.924 58.6963C234.924 58.7661 234.924 58.7661 234.854 58.836C233.262 64.496 231.669 70.0861 230.146 75.6064C230.146 75.6762 230.077 75.7461 230.077 75.816C229.108 79.2399 228.208 82.594 227.307 85.9481L214.845 55.482C214.498 55.9012 214.152 56.3205 213.875 56.7397L226.754 88.1143C225.992 90.9792 225.23 93.8441 224.469 96.6392L209.167 63.0985C208.821 63.5177 208.544 63.937 208.198 64.4261L223.915 98.8053C222.184 105.374 220.522 111.802 218.93 118.091C218.86 118.231 218.86 118.301 218.86 118.441C217.822 122.493 216.852 126.407 215.883 130.32L193.312 87.5552C193.035 88.0444 192.758 88.5335 192.481 89.0226L215.398 132.346C213.044 141.919 210.829 151.143 208.752 160.087C208.682 160.227 208.682 160.367 208.682 160.506C207.159 167.075 205.705 173.433 204.39 179.652L175.517 127.175C175.31 127.804 175.102 128.433 174.963 129.062L203.905 181.819C203.213 184.893 202.589 187.898 201.966 190.833L172.402 138.984C172.263 139.683 172.125 140.312 171.986 141.011L201.551 192.929C200.651 197.261 199.751 201.594 198.92 205.716C198.851 205.856 198.851 205.996 198.851 206.136C197.674 211.865 196.566 217.456 195.527 222.906L167.693 176.019C167.624 176.857 167.624 177.766 167.624 178.604L195.043 224.862C195.043 224.932 195.112 224.932 195.112 224.932C194.696 226.959 194.35 228.915 194.004 230.872C193.935 231.012 193.935 231.081 193.935 231.221C193.45 233.807 192.965 236.322 192.55 238.838L167.763 198.309C167.832 199.288 167.832 200.266 167.901 201.244L192.135 240.934C189.019 258.124 186.665 273.287 184.795 286.354C185.072 287.122 185.349 287.891 185.626 288.73C185.695 288.66 185.834 288.59 185.903 288.52C185.972 288.101 186.042 287.681 186.111 287.262C188.257 271.75 191.234 253.162 195.25 231.71L254.933 199.847C255.28 199.148 255.626 198.379 255.972 197.681L195.596 229.894C196.981 222.487 198.504 214.661 200.166 206.555L266.219 170.638C266.358 170.009 266.565 169.381 266.704 168.752L200.512 204.738C203.282 191.112 206.467 176.508 209.998 160.995L271.274 122.284C271.274 121.725 271.274 121.166 271.204 120.677L210.413 159.109C213.391 146.391 216.576 132.975 220.176 119L267.05 85.7384C266.981 85.2493 266.842 84.7602 266.704 84.2012L220.661 116.833C223.984 103.906 227.515 90.4202 231.392 76.375L258.188 52.617Z" fill="#003D1B"/>
</g>
</g>
<g id="Group_22">
<g id="Group_23">
<path id="Vector_17" d="M275.291 131.927C272.036 132.136 268.851 132.486 266.013 134.163C260.404 137.517 257.427 144.015 255.973 150.164C254.035 158.34 253.688 171.058 245.587 175.879C239.148 179.722 230.286 175.39 223.778 179.093C218.723 182.028 217.2 188.527 216.161 194.326C215.123 200.126 213.6 206.625 208.545 209.49C203.837 212.145 198.298 211.726 193.728 214.87C188.605 218.294 185.627 223.744 184.381 229.824C183.135 236.252 183.827 242.96 185.281 249.389C186.597 255.189 188.397 261.268 186.735 266.928C184.866 273.077 179.257 277.41 177.042 283.489C174.757 289.638 176.626 297.185 181.542 301.517C186.458 305.849 194.144 306.688 199.89 303.473C203.56 301.447 206.33 298.023 209.722 295.577C219.069 288.869 229.663 290.826 240.187 290.127C249.119 289.568 257.635 282.301 260.335 273.776C262.689 266.439 261.789 257.425 267.328 252.114C272.59 247.153 281.107 247.992 287.2 244.218C298.693 237.161 295.716 222.556 294.954 211.376C294.677 206.834 295.093 202.013 297.654 198.24C302.986 190.413 314.341 190.693 319.464 182.517C323.134 176.648 321.126 169.241 318.98 163.162C317.526 158.969 315.864 154.706 315.587 150.234C315.379 145.762 316.764 140.941 320.365 138.355C325.973 134.303 335.389 135.071 335.943 125.917C336.22 121.655 333.52 117.882 332.273 113.899C330.473 108.309 331.72 102.439 334.766 97.5475C336.843 94.1935 340.651 89.7214 337.397 85.6685C332.62 79.6592 325.28 90.6997 322.095 93.7043C315.102 100.203 304.648 93.0754 298.208 100.971C291.146 109.706 297.585 126.267 284.638 130.529C281.73 131.717 278.476 131.717 275.291 131.927Z" fill="#0F7437"/>
</g>
<g id="Group_24">
<g id="Group_25">
<path id="Vector_18" d="M236.932 186.36C236.932 187.129 236.309 187.828 235.478 187.828C234.647 187.828 234.024 187.199 234.024 186.36C234.024 185.522 234.647 184.893 235.478 184.893C236.309 184.893 236.932 185.522 236.932 186.36Z" fill="#004C1B"/>
</g>
<g id="Group_26">
<path id="Vector_19" d="M245.864 183.985C245.864 184.404 245.518 184.753 245.102 184.753C244.687 184.753 244.341 184.404 244.341 183.985C244.341 183.565 244.687 183.216 245.102 183.216C245.518 183.216 245.864 183.565 245.864 183.985Z" fill="#004C1B"/>
</g>
<g id="Group_27">
<path id="Vector_20" d="M240.464 192.23C240.464 192.58 240.187 192.929 239.771 192.929C239.425 192.929 239.079 192.649 239.079 192.23C239.079 191.881 239.356 191.531 239.771 191.531C240.187 191.601 240.464 191.881 240.464 192.23Z" fill="#004C1B"/>
</g>
<g id="Group_28">
<path id="Vector_21" d="M294.399 133.184C294.973 133.184 295.438 132.715 295.438 132.136C295.438 131.557 294.973 131.088 294.399 131.088C293.826 131.088 293.361 131.557 293.361 132.136C293.361 132.715 293.826 133.184 294.399 133.184Z" fill="#004C1B"/>
</g>
<g id="Group_29">
<path id="Vector_22" d="M315.932 102.928C315.932 103.487 315.447 103.976 314.894 103.976C314.34 103.976 313.855 103.487 313.855 102.928C313.855 102.369 314.34 101.88 314.894 101.88C315.447 101.88 315.932 102.369 315.932 102.928Z" fill="#004C1B"/>
</g>
<g id="Group_30">
<path id="Vector_23" d="M326.595 123.821C326.595 124.31 326.249 124.66 325.764 124.66C325.28 124.66 324.933 124.31 324.933 123.821C324.933 123.332 325.28 122.982 325.764 122.982C326.18 122.982 326.595 123.332 326.595 123.821Z" fill="#004C1B"/>
</g>
<g id="Group_31">
<path id="Vector_24" d="M306.792 183.985C307.442 183.985 307.969 183.453 307.969 182.797C307.969 182.141 307.442 181.609 306.792 181.609C306.142 181.609 305.615 182.141 305.615 182.797C305.615 183.453 306.142 183.985 306.792 183.985Z" fill="#004C1B"/>
</g>
<g id="Group_32">
<path id="Vector_25" d="M288.099 215.779C288.099 216.338 287.615 216.827 287.061 216.827C286.507 216.827 286.022 216.338 286.022 215.779C286.022 215.22 286.507 214.73 287.061 214.73C287.615 214.73 288.099 215.15 288.099 215.779Z" fill="#004C1B"/>
</g>
</g>
<g id="Group_33">
<g id="Group_34">
<path id="Vector_26" d="M335.804 127.455L300.216 137.098C311.917 120.118 324.034 102.788 336.774 85.1795C336.497 84.9 336.22 84.6903 335.874 84.5506C325.488 99.015 315.448 113.27 305.686 127.245L304.44 97.4078C304.093 97.4777 303.747 97.5476 303.332 97.6873L304.578 128.712C302.501 131.717 300.424 134.722 298.416 137.657C298.347 137.727 298.347 137.727 298.347 137.796C294.954 142.758 291.561 147.719 288.238 152.61C288.169 152.68 288.169 152.68 288.169 152.75C283.876 159.109 279.652 165.398 275.498 171.617C275.429 171.686 275.429 171.686 275.429 171.756C271.275 178.045 267.12 184.334 263.104 190.553L261.027 138.705C260.681 139.194 260.335 139.683 259.989 140.172L262.066 192.09C260.612 194.326 259.227 196.493 257.773 198.659L256.181 149.186C256.111 149.466 256.042 149.815 255.973 150.095C255.696 151.213 255.488 152.331 255.281 153.588L256.804 200.266C247.734 214.381 239.01 228.216 230.632 241.982L224.677 178.604C224.331 178.744 224.054 178.884 223.777 179.093C223.708 179.093 223.708 179.163 223.639 179.163L229.662 243.589C227.447 247.153 225.3 250.787 223.154 254.35C223.154 254.35 223.154 254.35 223.154 254.42C220.592 258.683 218.1 262.945 215.538 267.138L210.691 207.882C210.345 208.162 209.999 208.511 209.653 208.791L214.569 268.815C208.753 278.737 203.075 288.59 197.536 298.372C197.398 298.652 197.467 299.001 197.744 299.141C197.813 299.211 197.951 299.211 198.021 299.211C198.228 299.211 198.367 299.141 198.505 298.931C202.106 292.573 205.775 286.144 209.514 279.715L261.304 270.142C261.374 269.793 261.443 269.374 261.512 268.954L210.276 278.458C214.776 270.771 219.346 263.015 223.985 255.189L294.4 235.484C294.539 235.064 294.677 234.645 294.815 234.226L224.816 253.721C240.741 227.308 257.842 200.266 276.26 172.455L320.434 168.053C320.364 167.704 320.226 167.354 320.157 167.005L277.021 171.337C280.968 165.398 284.914 159.458 288.999 153.519L303.609 151.981C303.955 152.82 304.855 153.379 305.824 153.379C307.14 153.379 308.248 152.261 308.248 150.933C308.248 149.606 307.14 148.487 305.824 148.487C304.509 148.487 303.47 149.536 303.401 150.793L289.83 152.191C292.946 147.579 296.062 143.037 299.247 138.355L335.527 128.503C335.666 128.293 335.735 127.874 335.804 127.455ZM305.755 149.675C306.447 149.675 307.071 150.234 307.071 151.003C307.071 151.702 306.517 152.331 305.755 152.331C305.063 152.331 304.44 151.772 304.44 151.003C304.509 150.304 305.063 149.675 305.755 149.675Z" fill="#005A2A"/>
</g>
<g id="Group_35">
<path id="Vector_27" d="M273.628 154.217C274.944 154.217 276.052 153.099 276.052 151.772C276.052 150.444 274.944 149.326 273.628 149.326C272.313 149.326 271.205 150.444 271.205 151.772C271.205 153.099 272.313 154.217 273.628 154.217ZM273.628 150.514C274.321 150.514 274.944 151.073 274.944 151.842C274.944 152.54 274.39 153.169 273.628 153.169C272.936 153.169 272.313 152.61 272.313 151.842C272.382 151.073 272.936 150.514 273.628 150.514Z" fill="#004C1B"/>
</g>
</g>
</g>
<g id="Group_36">
<path id="Vector_28" d="M347.852 173.783C347.921 173.573 347.782 173.293 347.575 173.154C347.367 173.014 347.09 173.014 346.882 173.154C335.943 180.211 327.288 191.322 323.203 203.76C319.741 207.952 316.21 212.005 312.54 215.988C311.848 216.547 311.155 217.176 310.463 217.805C315.448 208.302 318.356 197.61 318.91 186.57C318.91 186.29 318.772 186.081 318.495 185.941C318.218 185.871 317.941 185.941 317.802 186.151C310.463 196.632 306.447 209.42 306.655 222.277V222.347C302.224 227.028 297.723 231.57 293.084 235.973C299.385 224.862 302.778 212.913 303.47 199.497C303.47 199.218 303.332 199.008 303.055 198.868C302.778 198.798 302.501 198.868 302.362 199.078C294.677 210.747 290.315 224.862 289.969 238.838C286.922 241.702 283.806 244.498 280.691 247.293C286.091 233.597 287.822 220.181 286.022 206.345C285.953 206.065 285.814 205.856 285.537 205.856C285.26 205.786 284.983 205.926 284.914 206.205C278.752 219.412 276.467 234.715 278.614 249.179C273.905 253.232 269.128 257.215 264.212 261.058C271.897 247.572 275.152 233.387 274.459 216.826C274.459 216.617 274.321 216.407 274.044 216.337C273.836 216.267 273.559 216.337 273.421 216.547C264.212 229.963 259.781 246.943 261.373 263.224C256.596 266.928 251.68 270.492 246.764 273.985C253.965 259.381 257.219 241.982 256.111 223.604C256.111 223.395 255.903 223.185 255.696 223.115C255.488 223.045 255.211 223.185 255.073 223.395C245.864 238.628 242.056 257.564 244.756 275.453C228.624 286.633 211.66 296.555 194.074 305.15C193.797 305.29 193.659 305.639 193.797 305.989C193.935 306.198 194.143 306.338 194.351 306.338C194.42 306.338 194.559 306.338 194.628 306.268C212.491 297.534 229.662 287.472 246.002 276.082C254.865 279.575 264.351 281.392 273.836 281.392C281.245 281.392 288.653 280.274 295.785 278.108C295.992 278.038 296.2 277.829 296.2 277.619C296.2 277.409 296.062 277.13 295.854 277.06C280.552 271.749 265.181 270.771 248.98 274.055C253.342 270.981 257.634 267.766 261.927 264.482C269.751 266.928 277.783 268.116 286.022 268.116C296.2 268.116 306.655 266.299 317.248 262.596C317.456 262.526 317.595 262.316 317.595 262.106C317.595 261.897 317.456 261.687 317.248 261.617C300.216 256.237 281.799 256.446 264.904 262.246C269.751 258.403 274.529 254.49 279.237 250.437C279.237 250.437 279.306 250.507 279.375 250.507C285.814 252.673 292.184 253.721 298.485 253.721C307.832 253.721 316.902 251.345 325.349 246.594C325.557 246.454 325.626 246.244 325.626 246.035C325.626 245.825 325.418 245.616 325.211 245.616C310.74 242.192 295.231 243.31 281.314 248.69C285.607 244.917 289.83 241.004 293.984 237.021C295.854 237.091 297.654 237.16 299.454 237.16C313.371 237.16 324.241 234.156 334.212 227.587C334.419 227.448 334.558 227.168 334.489 226.959C334.419 226.679 334.212 226.539 334.004 226.469C321.68 224.653 308.801 227.098 297.931 233.178C302.154 229.055 306.24 224.792 310.255 220.46C323.48 218.783 333.658 213.682 341.343 205.017C341.482 204.808 341.551 204.528 341.412 204.319C341.274 204.109 341.066 203.969 340.789 203.969C332.411 204.947 324.38 207.882 317.387 212.494C319.602 209.979 321.818 207.393 323.964 204.808C336.566 199.707 345.221 188.387 347.852 173.783Z" fill="#84A21D"/>
</g>
</g>
<g id="Layer 6">
<g id="Group_37">
<g id="Group_38">
<path id="Vector_29" d="M180.988 281.322C174.133 270.352 173.095 256.237 174.687 242.681C175.795 233.317 178.08 224.094 180.295 214.8C182.165 207.114 185.973 197.051 182.511 189.854C179.811 184.194 172.472 181.679 166.517 185.592C160.701 189.435 160.216 195.584 159.801 201.593C159.524 205.227 158.97 210.118 156.547 213.263C153.016 217.805 147.269 215.708 145.469 211.306C137.922 192.649 144.222 167.214 152.393 148.068C154.193 143.876 156.27 139.683 157.447 135.281C159.94 126.197 157.308 114.737 147.2 113.34C141.176 112.571 134.46 116.274 131.552 122.074C127.952 129.201 130.375 137.447 128.229 144.994C127.952 146.042 127.536 147.16 126.775 147.998C124.836 150.234 121.166 150.025 119.228 148.138C114.866 144.085 115.489 134.722 116.112 128.922C116.873 122.214 118.881 115.506 122.274 109.357C124.974 104.395 128.09 99.3643 128.298 93.7741C128.575 86.5769 120.889 84.1312 115.558 89.0924C112.511 91.9574 111.265 96.0102 108.357 98.945C103.234 104.186 101.987 93.4946 101.987 90.7695C101.918 85.6685 103.303 80.2181 102.68 75.2569C101.849 68.7584 96.1713 60.0937 88.7628 62.5394C79.4849 65.6139 77.8925 75.5364 83.2238 84.2011C87.0319 90.3502 92.5017 95.3813 95.0635 102.369C97.2099 108.169 95.9636 121.795 86.7549 116.344C83.57 114.458 79.9696 113.06 76.1615 112.361C72.4919 111.663 68.1992 111.732 65.0142 114.178C60.3753 117.742 60.2368 125.009 63.214 129.411C66.1913 133.813 71.2456 136.259 76.0231 138.635C92.7787 147.02 109.257 158.55 115.143 176.648C116.043 179.373 116.597 182.587 114.935 185.173C113.204 187.898 109.603 189.016 106.557 188.527C97.0022 187.059 90.9785 179.303 82.116 176.508C73.5305 173.783 62.6601 177.416 62.3139 188.317C61.76 202.502 77.477 208.092 88.4167 211.656C103.234 216.407 118.189 222.067 131.829 229.265C135.983 231.431 142.492 238.628 134.183 241.703C127.952 244.008 121.443 243.659 115.143 245.686C100.256 250.507 101.433 267.277 114.242 271.47C126.775 275.593 140.968 268.884 153.985 268.815C164.786 268.745 173.995 275.313 181.888 281.951" fill="#E9F5DF"/>
</g>
<g id="Group_39">
<path id="Vector_30" d="M117.012 257.075C117.012 256.656 117.358 256.307 117.773 256.307C120.474 256.097 123.035 255.818 125.597 255.538C133.213 254.63 140.483 253.861 148.169 255.468C156.685 257.285 163.332 260.08 168.594 264.203C166.309 260.849 164.094 257.425 161.947 254.001C141.73 225.072 115.558 204.459 85.5777 194.047C85.2315 193.907 85.0238 193.488 85.2315 193.139C85.37 192.789 85.8547 192.58 86.2009 192.649C112.096 201.663 135.221 218.294 154.123 241.144C140.691 218.224 129.198 193.907 119.851 168.682C119.851 168.682 119.851 168.682 119.781 168.612C111.957 148.837 94.371 130.32 75.9536 122.424C75.6075 122.284 75.469 121.865 75.6767 121.445C75.8844 121.096 76.2998 120.886 76.646 121.026C91.7399 127.525 106.349 141.011 115.558 156.593C113.065 149.326 110.78 142.059 108.703 134.652C108.703 134.582 108.634 134.512 108.634 134.442C103.095 115.017 98.7329 95.1718 95.6865 74.9775C95.6172 74.5582 95.8942 74.2088 96.3096 74.0691C96.7251 73.9992 97.0712 74.2088 97.1405 74.6281C99.91 92.8659 103.718 110.894 108.565 128.503C108.98 118.161 112.304 106.492 117.843 96.6392C118.05 96.2898 118.466 96.0802 118.812 96.2898C119.158 96.4296 119.297 96.9187 119.089 97.2681C112.65 108.728 109.257 122.773 110.088 134.023C117.081 158.48 126.013 182.168 136.745 204.878C130.167 176.298 133.144 153.239 146.161 130.949C146.369 130.599 146.853 130.459 147.2 130.599C147.546 130.809 147.615 131.228 147.407 131.577C133.56 155.266 131.275 179.932 139.999 211.516C146.992 225.771 154.746 239.536 163.194 252.883C164.094 254.141 164.924 255.398 165.825 256.656C159.316 237.72 161.74 219.412 173.233 199.847C173.441 199.497 173.925 199.358 174.272 199.497C174.618 199.707 174.687 200.126 174.479 200.476C161.74 222.207 160.355 242.262 170.256 263.574C175.033 270.632 179.949 277.479 185.073 284.257C185.28 284.537 185.211 284.956 184.934 285.236C184.934 285.236 184.865 285.236 184.865 285.306C184.519 285.585 184.103 285.515 183.826 285.236C180.088 280.344 176.487 275.383 172.956 270.352C167.279 263.504 159.316 259.172 147.823 256.726C140.276 255.119 133.213 255.957 125.667 256.796C123.105 257.075 120.543 257.355 117.843 257.635C117.358 257.774 117.012 257.495 117.012 257.075Z" fill="#D5EBC1"/>
</g>
</g>
</g>
<g id="Layer 7">
<g id="Group_40">
<g id="Group_41">
<path id="Vector_31" d="M157.101 260.29C166.448 251.415 170.949 237.999 172.749 224.443C173.995 215.08 174.064 205.577 174.203 196.073C174.341 188.177 173.164 177.486 178.219 171.337C182.235 166.516 189.989 165.957 194.697 171.267C199.406 176.438 198.298 182.517 197.259 188.387C196.567 192.021 195.944 196.842 197.536 200.545C199.821 205.856 205.914 205.227 208.753 201.384C220.662 185.173 220.939 158.969 217.754 138.425C217.061 133.883 216.092 129.341 216.023 124.799C215.815 115.366 221.216 104.954 231.394 106.212C237.417 106.981 243.026 112.291 244.341 118.58C246.003 126.407 241.641 133.744 241.848 141.64C241.848 142.758 241.987 143.876 242.541 144.924C243.856 147.579 247.457 148.278 249.811 147.02C255.073 144.155 256.735 134.931 257.566 129.202C258.535 122.493 258.189 115.506 256.458 108.658C255.073 103.208 253.342 97.4777 254.45 92.0273C255.973 84.9698 264.074 84.5505 267.951 90.6997C270.167 94.2634 270.375 98.456 272.452 102.09C276.121 108.448 279.929 98.3861 280.691 95.7308C282.007 90.8394 282.007 85.1794 283.876 80.4977C286.23 74.4185 293.985 67.4308 300.493 71.6933C308.732 77.0039 307.832 86.9962 300.493 94.0537C295.3 99.015 288.723 102.509 284.568 108.658C281.106 113.759 278.891 127.245 289.138 124.24C292.738 123.192 296.547 122.773 300.355 123.052C304.093 123.332 308.248 124.45 310.671 127.664C314.271 132.346 312.61 139.334 308.594 142.897C304.647 146.461 299.108 147.509 293.846 148.557C275.567 152.401 256.735 159.458 246.557 175.46C245.033 177.836 243.718 180.84 244.618 183.775C245.587 186.85 248.842 188.806 251.888 189.156C261.443 190.134 269.267 184.124 278.545 183.705C287.546 183.286 297.1 189.505 294.816 200.126C291.838 213.962 275.221 215.429 263.728 216.058C248.149 216.897 232.294 218.574 217.269 222.137C212.699 223.185 204.598 228.496 211.938 233.597C217.407 237.37 223.847 238.698 229.386 242.262C242.61 250.647 237.279 266.649 223.847 267.417C210.691 268.256 198.644 258.193 186.043 254.839C175.588 252.044 165.064 256.027 155.786 260.499" fill="#E9F5DF"/>
</g>
<g id="Group_42">
<path id="Vector_32" d="M225.093 253.023C225.162 252.603 224.954 252.184 224.539 252.044C221.977 251.136 219.554 250.228 217.199 249.319C209.999 246.524 203.213 243.939 195.32 243.52C186.596 243.1 179.465 244.148 173.441 246.804C176.487 244.148 179.465 241.423 182.442 238.628C209.168 215.779 239.633 202.432 271.274 199.847C271.69 199.847 271.897 199.427 271.828 199.008C271.759 198.589 271.413 198.309 270.997 198.309C243.648 200.476 217.199 210.678 193.243 228.077C212.007 209.28 229.108 188.667 244.41 166.655C244.41 166.655 244.479 166.655 244.479 166.586C256.942 149.466 278.614 135.91 298.346 132.975C298.762 132.905 298.97 132.556 298.9 132.137C298.831 131.717 298.416 131.438 298.069 131.508C281.868 133.953 264.351 143.387 251.541 156.104C255.696 149.745 259.781 143.247 263.589 136.609C263.658 136.539 263.658 136.539 263.658 136.469C273.836 119.07 282.976 100.972 290.938 82.1749C291.076 81.8255 290.938 81.3364 290.592 81.1267C290.246 80.9171 289.83 81.0568 289.692 81.4062C282.491 98.3862 274.321 114.807 265.251 130.669C267.397 120.537 267.12 108.379 264.212 97.4778C264.074 97.0585 263.727 96.779 263.312 96.8489C262.966 96.9188 262.689 97.338 262.827 97.7573C266.22 110.475 266.012 124.939 262.412 135.63C249.534 157.502 235.063 178.255 219 197.541C232.501 171.547 235.271 148.418 228.208 123.612C228.07 123.192 227.724 122.913 227.308 123.053C226.962 123.122 226.754 123.542 226.824 123.961C234.37 150.374 230.424 174.831 214.153 203.271C203.836 215.289 192.897 226.679 181.403 237.44C180.226 238.419 179.119 239.467 177.941 240.445C188.95 223.744 191.097 205.437 184.865 183.566C184.727 183.146 184.381 182.867 183.965 183.007C183.619 183.076 183.411 183.496 183.481 183.915C190.404 208.162 186.735 227.937 171.918 246.035C165.548 251.625 159.109 257.076 152.462 262.316C152.185 262.526 152.116 262.945 152.323 263.295C152.323 263.295 152.323 263.364 152.393 263.364C152.67 263.714 153.085 263.784 153.362 263.574C158.209 259.801 162.917 255.888 167.556 251.905C167.556 251.905 167.556 251.905 167.625 251.905C174.826 246.734 183.619 244.568 195.389 245.057C203.075 245.406 209.722 247.992 216.784 250.717C219.138 251.625 221.631 252.603 224.192 253.512C224.608 253.652 224.954 253.442 225.093 253.023Z" fill="#D5EBC1"/>
</g>
</g>
</g>
<g id="Layer 8">
<g id="Group_43">
<path id="Vector_33" d="M362.045 320.313H10.2468L53.659 266.089H322.995L362.045 320.313Z" fill="#342F33"/>
<g id="Group_44">
<path id="Vector_34" d="M17.3086 311.509H355.675L351.936 306.338H21.4629L17.3086 311.509Z" fill="#E85C46"/>
<path id="Vector_35" d="M325.487 269.513H50.8887L46.7344 274.684H329.225L325.487 269.513Z" fill="#E85C46"/>
</g>
<path id="Vector_36" opacity="0.7" d="M317.664 266.089H308.732L346.12 320.313H355.052L317.664 266.089Z" fill="#55B9C6"/>
<path id="Vector_37" opacity="0.7" d="M291.423 266.089L328.742 320.313H337.743L300.354 266.089H291.423Z" fill="#EEB247"/>
<path id="Vector_38" opacity="0.7" d="M59.9601 266.089L22.5715 320.313H31.5725L68.8918 266.089H59.9601Z" fill="#55B9C6"/>
<path id="Vector_39" opacity="0.7" d="M76.7844 266.089L39.4651 320.313H48.3968L85.7853 266.089H76.7844Z" fill="#EEB247"/>
</g>
</g>
<g id="Layer 13">
<g id="Group_45">
<path id="Vector_40" d="M192.412 244.288C192.412 244.288 189.365 264.482 191.996 267.277C194.697 270.072 210.344 274.614 215.122 275.243C219.899 275.872 228.762 280.135 233.193 279.785C237.693 279.366 246.833 279.715 246.833 281.882C246.833 284.048 257.426 234.016 257.426 234.016L228.208 231.011L192.412 244.288Z" fill="#011838"/>
<path id="Vector_41" d="M258.119 220.6C258.119 220.6 262.135 226.19 261.027 235.134C259.919 244.078 256.388 250.577 257.011 257.495C257.635 264.412 262.897 285.305 240.879 286.074C240.879 286.074 247.387 283.698 247.387 277.479C247.387 271.26 245.379 255.748 249.672 250.297C253.896 244.847 255.28 237.929 255.211 234.505C255.003 231.081 258.119 220.6 258.119 220.6Z" fill="#0242B2"/>
<path id="Vector_42" d="M193.659 245.476C193.659 245.476 192.689 274.894 191.858 277.409C191.858 277.409 222.254 287.961 225.647 289.219C229.039 290.476 234.717 290.476 236.309 290.406C237.902 290.337 248.703 286.633 257.635 294.529C266.566 302.425 252.58 299.56 252.58 299.56C252.58 299.56 209.93 295.158 207.645 295.158C205.36 295.158 178.703 289.708 177.18 285.375C175.657 281.043 183.342 241.633 186.25 240.864C189.089 239.956 193.659 242.052 193.659 245.476Z" fill="#D06C6A"/>
<path id="Vector_43" d="M262.896 302.425C262.342 303.473 260.819 303.893 259.434 303.334C256.526 302.146 250.018 301.587 250.018 301.587C241.778 306.688 232.293 303.753 232.293 303.753C232.293 303.753 201.966 306.548 174.133 306.269C146.299 305.989 160.077 237.091 160.077 237.091V237.021C159.247 236.182 158.139 235.134 157.446 234.785C156.2 234.226 148.584 215.569 152.115 202.572C154.261 194.536 159.731 188.736 164.163 185.522C166.863 183.565 169.148 182.517 170.048 182.517C172.402 182.517 184.103 185.312 188.95 191.392L189.088 191.252C195.112 198.799 198.089 207.393 198.92 208.441C200.236 210.188 203.282 208.581 203.282 208.581C203.282 208.581 256.18 228.147 254.449 236.672C252.718 245.266 243.025 253.023 240.809 253.372C238.593 253.791 236.724 254.7 234.716 258.892C232.708 263.015 232.293 260.499 230.216 259.801C228.069 259.102 226.754 261.548 224.261 263.294C221.769 265.041 220.522 266.649 216.714 265.181C212.906 263.714 209.444 252.603 209.444 252.603C209.375 252.603 209.236 252.603 209.167 252.534C197.951 251.136 189.988 243.729 189.988 243.729C189.85 243.939 189.711 244.148 189.573 244.428V244.498C189.434 244.777 189.296 245.057 189.157 245.336C189.088 245.476 189.019 245.686 188.95 245.895C184.934 255.748 182.441 283.908 182.441 283.908C188.811 282.86 212.144 291.664 217.268 293.272C222.461 294.879 232.085 293.831 232.085 293.831C240.809 290.337 251.195 292.084 258.742 296.626C262.757 299.141 263.519 301.237 262.896 302.425Z" fill="#F89594"/>
<path id="Vector_44" d="M167.141 168.891L122.967 193.138C122.551 192.719 122.205 192.23 121.859 191.741C114.381 181.749 114.797 162.602 114.797 162.602C120.059 163.092 125.321 163.371 130.306 163.581C149.208 164.349 164.371 163.441 164.371 163.441L167.141 168.891Z" fill="#E9A29C"/>
<path id="Vector_45" d="M189.92 243.869C185.281 250.786 182.373 283.978 182.373 283.978C180.642 284.746 182.927 248.76 184.658 243.519C186.389 238.279 191.235 227.028 190.266 220.39C189.297 213.752 185.835 206.205 189.02 207.743C189.02 207.812 199.613 220.74 189.92 243.869Z" fill="#FFB3B3"/>
<path id="Vector_46" d="M227.793 232.479C227.793 232.479 221.838 241.493 222.046 246.175C222.046 246.175 223.638 240.724 228.485 241.074C233.332 241.423 242.679 247.083 254.726 235.973C266.704 224.792 227.793 232.479 227.793 232.479Z" fill="#EA8888"/>
<path id="Vector_47" d="M167.14 168.891L122.966 193.138C122.551 192.719 122.205 192.23 121.859 191.741C128.367 183.216 140.553 176.019 145.538 171.547C148.446 168.891 140.068 165.957 130.306 163.581C149.208 164.349 164.371 163.441 164.371 163.441L167.14 168.891Z" fill="#EA8888"/>
<path id="Vector_48" d="M216.576 234.366C216.576 234.366 220.177 231.361 221.146 235.763" stroke="#D06C6A" stroke-miterlimit="10" stroke-linecap="round"/>
<path id="Vector_49" d="M217.199 237.51C217.199 237.51 218.238 233.667 219.415 233.527" stroke="#D06C6A" stroke-miterlimit="10" stroke-linecap="round"/>
<path id="Vector_50" d="M262.896 302.425C262.342 303.473 260.819 303.893 259.434 303.334C256.526 302.146 250.018 301.587 250.018 301.587C241.778 306.688 232.293 303.753 232.293 303.753C232.293 303.753 201.966 306.548 174.133 306.268C146.299 305.989 160.077 237.091 160.077 237.091V237.021C159.247 236.182 158.139 235.134 157.446 234.785C156.2 234.226 148.584 215.569 152.115 202.572C154.261 194.536 159.731 188.736 164.163 185.522C171.848 189.435 182.58 196.493 182.234 205.646C181.611 219.831 169.355 245.127 169.355 253.162C169.355 261.198 169.217 292.433 173.856 293.132C178.495 293.83 200.305 297.883 207.852 299.421C215.399 300.958 231.6 300.539 234.647 300.539C237.555 300.678 253.272 295.577 262.896 302.425Z" fill="#EA8888"/>
<path id="Vector_51" d="M160.979 233.038L164.094 219.132C164.094 219.132 161.255 225.421 160.563 228.286C159.871 231.151 158.486 231.92 160.979 233.038Z" fill="#D06C6A"/>
<path id="Vector_52" d="M189.089 191.322L188.95 191.462C188.95 191.462 178.426 181.539 168.456 186.361C168.456 186.361 159.593 188.177 159.039 205.297C158.97 208.511 158.832 211.376 158.763 213.962C158.486 224.862 158.486 229.474 158.486 229.474C158.486 229.474 158.486 231.92 160.909 233.038L160.355 235.414L159.94 237.161C132.106 239.257 133.352 212.285 130.375 206.764C127.467 201.314 118.466 195.235 119.228 195.375C119.297 195.375 119.297 195.375 119.366 195.375C120.266 195.305 122.828 193.139 122.828 193.139C122.828 193.139 124.628 191.322 127.813 188.597C135.429 182.168 150.731 170.848 166.933 168.822L167.002 168.891L172.956 180.421C179.88 181.958 185.142 186.43 189.089 191.322Z" fill="#5E02AF"/>
<path id="Vector_53" d="M160.424 235.414L160.009 237.161C132.175 239.257 133.421 212.285 130.444 206.764C127.536 201.314 118.535 195.235 119.297 195.375C119.366 195.375 119.366 195.375 119.435 195.375C123.936 197.471 130.721 201.244 133.491 206.066C137.991 213.612 134.183 233.876 160.424 235.414Z" fill="#9146F2"/>
<path id="Vector_54" d="M189.089 191.322L188.95 191.461C188.95 191.461 178.426 181.539 168.456 186.36C168.456 186.36 159.593 188.177 159.039 205.297C158.97 208.511 158.832 211.376 158.763 213.962C158.209 213.822 157.862 213.612 157.793 213.123C156.547 207.114 154.401 191.671 148.446 187.968C145.33 186.081 136.122 187.129 127.952 188.527C135.568 182.098 150.869 170.778 167.071 168.752L167.14 168.821L173.095 180.351C179.88 181.958 185.142 186.43 189.089 191.322Z" fill="#46028E"/>
<path id="Vector_55" d="M235.201 245.266C235.201 245.266 240.117 242.401 244.202 248.271C244.202 248.271 239.84 244.917 235.201 245.266Z" fill="#032D6B"/>
<path id="Vector_56" d="M240.325 248.62C240.325 248.62 238.04 248.83 237.971 250.787" stroke="#011838" stroke-miterlimit="10"/>
<path id="Vector_57" d="M232.709 247.223C232.709 247.223 236.101 250.717 238.04 250.786C238.04 250.786 239.84 252.324 240.256 251.835C240.256 251.835 237.555 253.582 236.863 251.346C236.863 251.415 233.055 248.69 232.709 247.223Z" fill="#011838"/>
<path id="Vector_58" d="M188.812 245.965C188.812 245.965 188.881 245.755 189.089 245.476C189.02 245.616 188.95 245.755 188.812 245.965Z" fill="#EA8888"/>
<path id="Vector_59" d="M213.184 235.134C213.115 235.484 213.045 235.833 212.907 236.182C212.907 235.763 213.045 235.414 213.184 235.134Z" fill="#EA8888"/>
<path id="Vector_60" d="M212.422 245.546C211.106 247.223 210.068 250.437 210.068 250.437C210.068 250.437 209.444 251.206 209.098 252.673C209.029 252.673 208.96 252.673 208.891 252.673C208.544 252.603 208.267 252.603 207.921 252.533C207.09 252.394 206.329 252.254 205.567 252.044C196.22 249.808 189.919 243.939 189.919 243.939C189.781 244.148 189.642 244.358 189.504 244.637C190.196 243.24 191.166 241.144 191.65 239.676C192.412 237.3 196.843 245.126 200.997 245.126C202.174 245.126 203.49 245.266 204.805 245.196C207.644 244.987 210.552 243.799 212.422 237.859C212.491 237.58 212.629 237.23 212.699 236.951C212.768 236.741 212.837 236.602 212.837 236.392C212.768 238.139 213.46 241.004 213.46 241.703C213.529 242.471 213.737 243.869 212.422 245.546Z" fill="#EA8888"/>
<path id="Vector_61" d="M225.161 256.447C225.161 256.447 226.061 259.591 227.446 260.709C227.446 260.709 225.923 262.037 225.577 262.386C225.23 262.666 223.776 257.565 225.161 256.447Z" fill="#FFD0C7"/>
<path id="Vector_62" d="M212.421 245.546C211.106 247.223 210.067 250.437 210.067 250.437C210.067 250.437 209.444 251.206 209.098 252.673C209.029 252.673 208.96 252.673 208.89 252.673C208.96 251.136 209.998 247.083 210.552 246.524C211.175 245.895 212.837 242.89 212.837 241.493C212.837 240.515 212.56 238.768 212.421 237.789C212.491 237.51 212.629 237.161 212.698 236.881C212.768 236.671 212.837 236.532 212.837 236.322C212.768 238.069 213.46 240.934 213.46 241.633C213.529 242.471 213.737 243.869 212.421 245.546Z" fill="#D06C6A"/>
<path id="Vector_63" d="M127.536 188.736C127.536 188.736 133.49 200.266 140.968 203.061C140.968 203.061 146.438 218.084 158.485 223.185" stroke="#9146F2" stroke-miterlimit="10"/>
<path id="Vector_64" d="M259.158 226.959C258.604 230.173 257.497 233.317 255.835 235.344C255.419 235.903 254.935 236.322 254.45 236.741C250.711 239.466 231.671 238.558 230.286 237.44C228.901 236.322 225.439 236.811 225.439 235.204C225.439 233.527 223.847 230.872 221.908 230.173C214.431 227.378 213.115 235.204 213.115 235.204C192.621 233.806 200.375 208.162 200.375 208.162C200.375 208.162 205.014 209 213.392 203.969C213.738 203.76 214.084 203.55 214.431 203.34C216.369 202.082 218.516 201.104 220.731 200.405C228.694 197.75 237.764 198.239 244.688 200.825C253.55 204.109 258.189 215.08 259.228 220.39C259.574 222.347 259.574 224.653 259.158 226.959Z" fill="#032D6B"/>
<path id="Vector_65" d="M259.158 226.959C258.604 230.173 257.496 233.317 255.835 235.344L254.45 236.741C254.45 236.741 265.736 220.25 251.196 224.862C236.656 229.404 224.816 219.132 227.17 219.691C228.416 220.041 231.532 219.761 233.748 219.552C229.801 218.713 223.362 215.149 226.962 216.477C229.386 217.386 232.917 216.477 235.202 215.848C230.424 215.219 219.762 210.608 224.401 211.027C230.009 211.516 233.54 208.441 233.54 208.441C226.824 208.441 222.67 203.76 220.593 200.266C228.555 197.611 237.625 198.1 244.549 200.685C253.411 203.969 258.05 214.94 259.089 220.25C259.574 222.347 259.574 224.653 259.158 226.959Z" fill="#0242B2"/>
<path id="Vector_66" d="M287.752 127.664C287.752 127.664 292.738 136.609 295.923 140.591C299.108 144.574 310.463 160.017 312.678 163.162C314.894 166.306 320.294 172.176 321.264 172.665C322.302 173.154 324.102 179.023 313.855 176.857C303.608 174.691 279.859 149.047 279.859 149.047L278.959 130.18L287.752 127.664Z" fill="#F89594"/>
<path id="Vector_67" d="M313.717 169.59C313.717 169.59 316.971 172.245 320.364 172.385" stroke="#D06C6A" stroke-miterlimit="10" stroke-linecap="round"/>
<path id="Vector_68" d="M312.055 182.517C312.055 182.517 312.055 182.517 302.708 181.469C293.361 180.421 287.683 173.433 284.914 169.311C282.144 165.118 275.567 165.118 271.274 162.882C266.981 160.646 264.904 155.056 265.735 151.352C266.566 147.719 266.566 139.543 266.566 139.543C266.566 139.543 270.028 137.796 273.42 136.469C276.259 135.351 279.028 134.442 279.652 135.001C280.967 136.329 286.922 141.15 290.522 145.273C294.053 149.326 304.993 165.467 306.931 168.891C307.831 170.498 309.632 172.455 311.363 174.412C313.44 176.717 315.378 178.954 315.863 180.491C316.832 183.356 312.055 182.517 312.055 182.517Z" fill="#F89594"/>
<path id="Vector_69" d="M311.432 174.412C308.662 174.272 305.962 174.342 303.954 173.433C295.715 169.66 287.476 157.222 279.859 148.977C276.744 145.623 275.636 140.032 273.559 136.399C276.398 135.281 279.167 134.372 279.79 134.931C281.106 136.259 287.06 141.081 290.661 145.203C294.192 149.256 305.131 165.398 307.07 168.822C307.901 170.429 309.701 172.455 311.432 174.412Z" fill="#FFB3B3"/>
<path id="Vector_70" d="M297.793 176.508L303.332 181.12" stroke="#D06C6A" stroke-miterlimit="10" stroke-linecap="round"/>
<path id="Vector_71" d="M302.084 177.137L306.239 181.469" stroke="#D06C6A" stroke-miterlimit="10" stroke-linecap="round"/>
<path id="Vector_72" d="M304.992 176.508L309.354 181.749" stroke="#D06C6A" stroke-miterlimit="10" stroke-linecap="round"/>
<path id="Vector_73" d="M307.555 175.53L312.886 182.098" stroke="#D06C6A" stroke-miterlimit="10" stroke-linecap="round"/>
<path id="Vector_74" d="M269.544 144.854C269.544 144.854 272.106 149.536 276.121 149.885C276.121 149.885 267.951 152.96 269.544 144.854Z" fill="#D06C6A"/>
<path id="Vector_75" d="M288.861 129.551C288.861 129.551 256.527 69.5271 255.627 68.7584C254.727 68.0597 244.479 51.9182 229.939 59.5347C215.4 67.1513 169.91 101.74 157.863 117.043C144.223 134.442 131.068 162.393 138.615 164.908C146.162 167.424 165.202 163.092 165.202 163.092C165.202 163.092 196.844 157.991 197.536 127.874C197.536 127.874 237.625 94.8922 242.264 94.8922C246.903 94.8922 241.156 102.299 250.711 112.501C260.266 122.633 277.644 134.652 277.644 134.652C277.644 134.652 285.676 127.385 288.861 129.551Z" fill="#E27703"/>
<path id="Vector_76" d="M279.721 135.001C277.783 138.355 273.213 140.591 270.166 141.709C268.505 142.338 267.258 142.618 267.258 142.618C266.912 142.199 256.596 128.643 242.679 116.833C228.485 104.885 226.893 82.0349 226.893 82.0349C222.046 97.9668 193.797 118.86 193.797 118.86C198.713 149.186 173.233 155.265 167.902 156.593C167.625 156.663 167.417 156.733 167.21 156.733C163.955 157.641 162.917 162.742 162.917 162.742C148.931 169.101 114.935 164.559 114.935 164.559C114.866 163.86 114.796 163.231 114.796 162.602C114.381 155.755 115.489 149.955 118.535 143.107C122.551 134.233 129.89 123.611 141.73 106.911C163.471 76.0954 211.314 49.9617 231.809 45.4197C252.303 40.8777 259.504 81.6856 262.343 89.6515C265.112 97.4078 278.89 132.695 279.721 134.931C279.721 135.001 279.721 135.001 279.721 135.001Z" fill="#FCB100"/>
<path id="Vector_77" d="M279.651 134.931C278.474 132.416 256.387 83.5722 249.741 66.5224C242.955 48.9834 238.039 49.752 230.492 49.4027C160.701 79.8688 138.06 122.074 126.774 135.421C123.658 139.054 120.889 141.5 118.465 143.107C122.481 134.233 129.82 123.611 141.66 106.911C163.401 76.0955 211.244 49.9617 231.739 45.4197C252.233 40.8777 259.434 81.6856 262.273 89.6515C265.042 97.4078 278.821 132.695 279.651 134.931Z" fill="#FFC969"/>
<path id="Vector_78" d="M267.328 142.618C266.982 142.199 256.665 128.642 242.679 116.833C228.485 104.885 226.893 82.0349 226.893 82.0349C222.046 97.9667 193.797 118.86 193.797 118.86C198.99 150.793 170.395 155.894 167.21 156.803C154.677 156.104 151.562 151.562 151.562 151.562C199.128 158.41 190.335 116.833 190.335 116.833C221.631 93.285 230.147 67.3609 231.878 56.1806C222.185 79.17 242.748 112.361 242.748 112.361C243.995 115.645 263.866 135.42 270.236 141.639" fill="#FC9B32"/>
<path id="Vector_79" d="M167.902 156.593C167.625 156.663 167.417 156.733 167.209 156.733C163.955 157.641 164.301 163.371 164.301 163.371C150.315 169.73 114.865 164.489 114.865 164.489C114.796 163.79 114.727 163.161 114.727 162.533C124.212 163.651 153.015 166.585 161.047 161.484C161.047 161.484 163.332 156.174 165.132 155.545C165.686 155.405 166.655 155.894 167.902 156.593Z" fill="#FC9B32"/>
</g>
</g>
</g>
</svg>
