<svg width="383" height="352" viewBox="0 0 383 352" fill="none" xmlns="http://www.w3.org/2000/svg">
<g id="diet-planning">
<g id="Group">
<g id="Group_2">
<g id="Group_3">
<g id="Group_4">
<path id="Vector" d="M80.1581 147.438C83.6721 147.641 87.1332 148.02 90.2319 149.848C96.3194 153.435 99.5647 160.467 101.145 167.087C103.25 175.91 103.592 189.579 112.444 194.778C119.423 198.878 129.086 194.273 136.126 198.268C141.631 201.391 143.28 208.41 144.4 214.636C145.52 220.861 147.185 227.885 152.703 230.983C157.825 233.862 163.798 233.41 168.815 236.741C174.389 240.442 177.622 246.264 178.929 252.811C180.322 259.766 179.499 266.985 177.936 273.902C176.527 280.144 174.516 286.671 176.36 292.803C178.359 299.439 184.475 304.114 186.923 310.6C189.431 317.253 187.379 325.363 182.008 330.021C176.637 334.679 168.318 335.567 162.084 332.147C158.09 329.952 155.109 326.304 151.395 323.666C141.252 316.451 129.717 318.564 118.287 317.819C108.551 317.184 99.3611 309.382 96.4212 300.258C93.8763 292.359 94.8576 282.677 88.8231 276.976C83.1387 271.602 73.8875 272.506 67.2055 268.442C54.7334 260.857 57.9542 245.124 58.7605 233.125C59.0903 228.227 58.6179 223.023 55.8246 218.984C50.0263 210.593 37.7089 210.865 32.1712 202.062C28.1767 195.711 30.3999 187.771 32.7168 181.265C34.3252 176.741 36.1127 172.181 36.3774 167.389C36.638 162.592 35.0785 157.401 31.1776 154.6C25.1187 150.251 14.8698 151.037 14.259 141.249C13.974 136.693 16.8813 132.629 18.2779 128.285C20.2202 122.234 18.8602 115.976 15.5824 110.691C13.3225 107.047 9.19767 102.304 12.728 97.8737C17.9074 91.3836 25.8557 103.273 29.3249 106.485C36.9067 113.517 48.2591 105.822 55.2424 114.319C62.9382 123.684 55.9346 141.579 69.9744 146.151C73.2197 147.21 76.7133 147.238 80.1581 147.438Z" fill="#0F7437"/>
</g>
<g id="Group_5">
<g id="Group_6">
<path id="Vector_2" d="M121.871 206.032C121.871 206.891 122.567 207.588 123.426 207.588C124.285 207.588 124.982 206.891 124.982 206.032C124.982 205.173 124.285 204.477 123.426 204.477C122.571 204.477 121.871 205.173 121.871 206.032Z" fill="#004C1B"/>
</g>
<g id="Group_7">
<path id="Vector_3" d="M112.155 203.516C112.155 203.976 112.529 204.351 112.99 204.351C113.45 204.351 113.824 203.976 113.824 203.516C113.824 203.056 113.45 202.681 112.99 202.681C112.529 202.681 112.155 203.056 112.155 203.516Z" fill="#004C1B"/>
</g>
<g id="Group_8">
<path id="Vector_4" d="M118.01 212.38C118.01 212.783 118.336 213.109 118.739 213.109C119.142 213.109 119.468 212.783 119.468 212.38C119.468 211.977 119.142 211.651 118.739 211.651C118.336 211.651 118.01 211.977 118.01 212.38Z" fill="#004C1B"/>
</g>
<g id="Group_9">
<path id="Vector_5" d="M59.457 148.855C60.0935 148.855 60.6094 148.339 60.6094 147.702C60.6094 147.066 60.0935 146.55 59.457 146.55C58.8206 146.55 58.3047 147.066 58.3047 147.702C58.3047 148.339 58.8206 148.855 59.457 148.855Z" fill="#004C1B"/>
</g>
<g id="Group_10">
<path id="Vector_6" d="M36.0596 116.261C36.0596 116.884 36.5645 117.385 37.1834 117.385C37.8064 117.385 38.3072 116.88 38.3072 116.261C38.3072 115.638 37.8023 115.137 37.1834 115.137C36.5645 115.137 36.0596 115.638 36.0596 116.261Z" fill="#004C1B"/>
</g>
<g id="Group_11">
<path id="Vector_7" d="M24.467 138.732C24.467 139.229 24.8702 139.628 25.3629 139.628C25.8596 139.628 26.2587 139.225 26.2587 138.732C26.2587 138.236 25.8555 137.837 25.3629 137.837C24.8702 137.837 24.467 138.236 24.467 138.732Z" fill="#004C1B"/>
</g>
<g id="Group_12">
<path id="Vector_8" d="M45.9661 203.516C46.6925 203.516 47.2813 202.927 47.2813 202.201C47.2813 201.475 46.6925 200.886 45.9661 200.886C45.2397 200.886 44.6509 201.475 44.6509 202.201C44.6509 202.927 45.2397 203.516 45.9661 203.516Z" fill="#004C1B"/>
</g>
<g id="Group_13">
<path id="Vector_9" d="M66.2725 237.681C66.2725 238.312 66.7814 238.821 67.4126 238.821C68.0437 238.821 68.5527 238.312 68.5527 237.681C68.5527 237.05 68.0437 236.541 67.4126 236.541C66.7855 236.541 66.2725 237.05 66.2725 237.681Z" fill="#004C1B"/>
</g>
</g>
<g id="Group_14">
<g id="Group_15">
<path id="Vector_10" d="M14.7478 143.96L54.1595 154.539C57.6083 159.514 61.0165 164.465 64.3839 169.392L49.6478 167.885C49.5949 166.497 48.4507 165.381 47.05 165.381C45.6167 165.381 44.4481 166.55 44.4481 167.983C44.4481 169.416 45.6167 170.585 47.05 170.585C48.1046 170.585 49.0126 169.954 49.4239 169.046L65.2553 170.662C69.657 177.108 73.9854 183.508 78.2527 189.872L31.414 185.222C31.3 185.605 31.1941 185.988 31.0883 186.375L79.1078 191.146C99.1414 221.057 117.717 250.12 134.994 278.572L58.9683 257.555C59.1027 258.011 59.2452 258.459 59.4081 258.898L135.886 280.038C140.972 288.43 145.943 296.773 150.809 305.066L95.1428 294.875C95.2161 295.29 95.2976 295.706 95.379 296.117L151.599 306.41C155.651 313.332 159.629 320.221 163.534 327.082C163.644 327.273 163.843 327.379 164.047 327.379C164.145 327.379 164.247 327.355 164.336 327.302C164.621 327.139 164.719 326.78 164.556 326.499C158.57 315.978 152.41 305.388 146.07 294.72L151.42 230.136C151.029 229.839 150.663 229.526 150.317 229.188L145.031 292.97C142.319 288.413 139.571 283.845 136.794 279.26C136.786 279.244 136.774 279.228 136.765 279.212C134.436 275.368 132.075 271.508 129.697 267.64L136.252 198.341C136.208 198.317 136.167 198.288 136.126 198.264C135.796 198.076 135.462 197.918 135.125 197.767L128.671 265.975C119.562 251.195 110.103 236.24 100.265 221.085L101.914 170.829C101.674 169.518 101.426 168.26 101.145 167.087C101.063 166.753 100.978 166.42 100.888 166.082L99.1414 219.359C97.6063 217.001 96.0631 214.636 94.5117 212.266L96.8001 156.395C96.4499 155.846 96.0753 155.316 95.6844 154.803L93.4001 210.572C89.0024 203.874 84.5356 197.132 79.9914 190.348C79.9629 190.287 79.9263 190.234 79.8855 190.19C75.3739 183.455 70.793 176.684 66.1348 169.86C66.1104 169.807 66.0737 169.758 66.033 169.713C62.4213 164.428 58.7647 159.115 55.0593 153.773C55.0349 153.72 55.0023 153.671 54.9616 153.631C52.7425 150.426 50.5029 147.214 48.2512 143.989L49.6356 110.593C49.2488 110.479 48.862 110.382 48.467 110.3L47.1355 142.393C36.5853 127.32 25.6686 112.019 14.3651 96.4487C14.0393 96.6237 13.7217 96.8558 13.4082 97.1408C27.2118 116.147 40.4332 134.763 53.1171 153.04L14.4302 142.653C14.5117 143.118 14.6175 143.553 14.7478 143.96ZM48.4751 167.987C48.4751 168.773 47.8358 169.408 47.0541 169.408C46.2682 169.408 45.633 168.769 45.633 167.987C45.633 167.205 46.2723 166.566 47.0541 166.566C47.8358 166.566 48.4751 167.201 48.4751 167.987Z" fill="#005A2A"/>
</g>
<g id="Group_16">
<path id="Vector_11" d="M84.5517 168.863C84.5517 167.429 83.3831 166.261 81.9498 166.261C80.5165 166.261 79.3479 167.429 79.3479 168.863C79.3479 170.296 80.5165 171.464 81.9498 171.464C83.3831 171.464 84.5517 170.296 84.5517 168.863ZM83.3709 168.863C83.3709 169.648 82.7316 170.283 81.9498 170.283C81.164 170.283 80.5287 169.644 80.5287 168.863C80.5287 168.077 81.168 167.441 81.9498 167.441C82.7316 167.441 83.3709 168.077 83.3709 168.863Z" fill="#004C1B"/>
</g>
</g>
</g>
<g id="Group_17">
<path id="Vector_12" d="M11.181 191.957C11.1362 191.7 11.2462 191.44 11.462 191.297C11.6778 191.151 11.9628 191.146 12.1786 191.289C24.0888 198.862 33.4501 210.869 37.9006 224.265C41.663 228.744 45.5109 233.145 49.4566 237.461C50.218 238.088 50.9632 238.732 51.6961 239.395C46.2846 229.143 43.133 217.636 42.5426 205.768C42.5263 205.479 42.7054 205.21 42.9823 205.116C43.2551 205.023 43.5646 205.12 43.7315 205.356C51.7205 216.61 56.0327 230.409 55.8739 244.208C55.8739 244.24 55.8616 244.273 55.8576 244.306C60.6461 249.318 65.5486 254.22 70.5733 258.992C63.7081 247.046 60.0109 234.167 59.3186 219.758C59.3064 219.465 59.4897 219.196 59.7706 219.102C60.0475 219.009 60.357 219.114 60.5199 219.363C68.8672 231.908 73.6435 247.111 73.9733 262.176C77.2837 265.25 80.639 268.279 84.0471 271.248C78.1755 256.541 76.2698 242.099 78.2203 227.193C78.2569 226.903 78.4809 226.675 78.77 226.631C79.0591 226.586 79.34 226.737 79.4663 226.997C86.1686 241.24 88.6076 257.644 86.3477 273.226C91.4579 277.616 96.674 281.887 101.988 286.032C93.6119 271.484 90.0735 256.256 90.8797 238.43C90.8919 238.178 91.0629 237.966 91.3032 237.897C91.5475 237.828 91.804 237.921 91.9465 238.125C101.98 252.583 106.731 270.869 105.034 288.389C110.246 292.379 115.547 296.247 120.938 299.989C113.128 284.244 109.614 265.547 110.767 245.759C110.783 245.499 110.966 245.279 111.219 245.214C111.471 245.148 111.736 245.258 111.874 245.482C121.911 261.879 125.987 282.269 123.084 301.471C140.597 313.482 158.998 324.191 178.119 333.429C178.445 333.588 178.584 333.979 178.425 334.305C178.311 334.537 178.079 334.675 177.834 334.675C177.741 334.675 177.643 334.655 177.549 334.61C158.143 325.233 139.469 314.342 121.716 302.119C112.066 305.905 101.796 307.819 91.5149 307.819C83.473 307.819 75.4188 306.65 67.6538 304.305C67.4054 304.232 67.2344 304.004 67.2303 303.743C67.2262 303.483 67.3891 303.251 67.6334 303.169C84.2385 297.477 100.929 296.402 118.528 299.908C113.78 296.573 109.101 293.137 104.488 289.611C95.998 292.204 87.2639 293.507 78.3343 293.507C67.2914 293.507 55.9512 291.524 44.4115 287.563C44.1713 287.481 44.0125 287.253 44.0166 287.001C44.0206 286.748 44.1835 286.528 44.4278 286.451C62.9223 280.653 82.9599 280.914 101.275 287.127C95.9858 283.002 90.7901 278.752 85.7003 274.383C85.6636 274.407 85.627 274.427 85.5822 274.444C78.6112 276.765 71.6605 277.921 64.8482 277.921C54.6849 277.921 44.8269 275.348 35.6774 270.238C35.4656 270.12 35.3516 269.884 35.3842 269.647C35.4168 269.407 35.5959 269.216 35.828 269.159C51.5821 265.458 68.4193 266.655 83.5056 272.498C78.8188 268.422 74.2176 264.24 69.7141 259.965C67.6741 260.071 65.6952 260.124 63.7692 260.124C48.6666 260.124 36.8379 256.858 26.0148 249.806C25.7868 249.656 25.6728 249.383 25.7339 249.114C25.7909 248.85 26.0108 248.646 26.2795 248.605C39.6515 246.683 53.6384 249.318 65.4509 255.857C60.8822 251.394 56.4113 246.834 52.0463 242.172C37.6685 240.34 26.6134 234.9 18.2986 225.544C18.1195 225.34 18.0828 225.047 18.205 224.807C18.3312 224.566 18.5877 224.424 18.8606 224.456C27.9449 225.495 36.6709 228.683 44.2812 233.646C41.8585 230.914 39.4764 228.149 37.127 225.356C23.4781 219.847 14.0273 207.677 11.181 191.957Z" fill="#84A21D"/>
</g>
<g id="Group_18">
<g id="Group_19">
<path id="Vector_13" d="M289.839 147.193C286.325 147.397 282.864 147.776 279.765 149.604C273.678 153.191 270.433 160.222 268.853 166.843C266.748 175.666 266.406 189.335 257.553 194.534C250.574 198.634 240.912 194.029 233.871 198.023C228.366 201.146 226.717 208.166 225.597 214.391C224.478 220.617 222.812 227.64 217.295 230.739C212.172 233.618 206.199 233.166 201.182 236.496C195.608 240.197 192.375 246.02 191.068 252.567C189.675 259.521 190.498 266.74 192.061 273.658C193.47 279.9 195.482 286.427 193.637 292.558C191.638 299.195 185.522 303.869 183.075 310.355C180.566 317.008 182.619 325.119 187.99 329.777C193.36 334.435 201.679 335.323 207.913 331.902C211.908 329.708 214.888 326.06 218.602 323.421C228.745 316.206 240.28 318.32 251.71 317.574C261.446 316.939 270.636 309.138 273.576 300.014C276.121 292.115 275.14 282.432 281.174 276.732C286.859 271.357 296.11 272.261 302.792 268.198C315.264 260.612 312.043 244.88 311.237 232.881C310.907 227.982 311.379 222.779 314.173 218.74C319.971 210.348 332.288 210.621 337.826 201.818C341.821 195.466 339.597 187.527 337.281 181.02C335.672 176.497 333.885 171.937 333.62 167.144C333.359 162.348 334.919 157.157 338.82 154.355C344.879 150.007 355.128 150.793 355.738 141.004C356.023 136.448 353.116 132.385 351.719 128.04C349.777 121.99 351.137 115.732 354.415 110.447C356.675 106.803 360.8 102.059 357.269 97.6294C352.09 91.1393 344.142 103.028 340.672 106.241C333.091 113.273 321.738 105.577 314.755 114.075C307.059 123.439 314.063 141.334 300.023 145.907C296.778 146.965 293.284 146.994 289.839 147.193Z" fill="#0F7437"/>
</g>
<g id="Group_20">
<g id="Group_21">
<path id="Vector_14" d="M248.127 205.788C248.127 206.647 247.431 207.343 246.571 207.343C245.712 207.343 245.016 206.647 245.016 205.788C245.016 204.929 245.712 204.233 246.571 204.233C247.431 204.233 248.127 204.929 248.127 205.788Z" fill="#004C1B"/>
</g>
<g id="Group_22">
<path id="Vector_15" d="M257.843 203.272C257.843 203.732 257.468 204.106 257.008 204.106C256.548 204.106 256.173 203.732 256.173 203.272C256.173 202.812 256.548 202.437 257.008 202.437C257.468 202.437 257.843 202.812 257.843 203.272Z" fill="#004C1B"/>
</g>
<g id="Group_23">
<path id="Vector_16" d="M251.986 212.136C251.986 212.539 251.661 212.864 251.258 212.864C250.855 212.864 250.529 212.539 250.529 212.136C250.529 211.733 250.855 211.407 251.258 211.407C251.661 211.407 251.986 211.737 251.986 212.136Z" fill="#004C1B"/>
</g>
<g id="Group_24">
<path id="Vector_17" d="M310.54 148.61C311.177 148.61 311.693 148.094 311.693 147.458C311.693 146.822 311.177 146.306 310.54 146.306C309.904 146.306 309.388 146.822 309.388 147.458C309.388 148.094 309.904 148.61 310.54 148.61Z" fill="#004C1B"/>
</g>
<g id="Group_25">
<path id="Vector_18" d="M333.937 116.017C333.937 116.64 333.432 117.141 332.813 117.141C332.194 117.141 331.689 116.636 331.689 116.017C331.689 115.394 332.194 114.893 332.813 114.893C333.432 114.893 333.937 115.398 333.937 116.017Z" fill="#004C1B"/>
</g>
<g id="Group_26">
<path id="Vector_19" d="M345.53 138.488C345.53 138.985 345.127 139.384 344.634 139.384C344.137 139.384 343.738 138.981 343.738 138.488C343.738 137.991 344.141 137.592 344.634 137.592C345.127 137.592 345.53 137.995 345.53 138.488Z" fill="#004C1B"/>
</g>
<g id="Group_27">
<path id="Vector_20" d="M324.031 203.272C324.757 203.272 325.346 202.683 325.346 201.957C325.346 201.23 324.757 200.641 324.031 200.641C323.304 200.641 322.715 201.23 322.715 201.957C322.715 202.683 323.304 203.272 324.031 203.272Z" fill="#004C1B"/>
</g>
<g id="Group_28">
<path id="Vector_21" d="M303.724 237.437C303.724 238.068 303.215 238.577 302.584 238.577C301.953 238.577 301.444 238.068 301.444 237.437C301.444 236.806 301.953 236.297 302.584 236.297C303.211 236.297 303.724 236.806 303.724 237.437Z" fill="#004C1B"/>
</g>
</g>
<g id="Group_29">
<g id="Group_30">
<path id="Vector_22" d="M355.567 142.409L316.881 152.796C329.564 134.518 342.79 115.903 356.589 96.8965C356.28 96.6115 355.958 96.3835 355.632 96.2043C344.329 111.77 333.412 127.075 322.862 142.149L321.531 110.056C321.136 110.137 320.749 110.235 320.362 110.349L321.746 143.745C319.495 146.969 317.255 150.182 315.036 153.386C314.995 153.427 314.963 153.476 314.938 153.529C311.237 158.871 307.576 164.184 303.965 169.469C303.924 169.514 303.891 169.563 303.863 169.616C299.205 176.436 294.62 183.211 290.112 189.945C290.067 189.994 290.031 190.047 290.006 190.104C285.462 196.887 280.991 203.63 276.598 210.328L274.313 154.559C273.922 155.072 273.548 155.605 273.198 156.151L275.486 212.022C273.935 214.391 272.391 216.757 270.856 219.114L269.109 165.837C269.02 166.171 268.934 166.509 268.853 166.843C268.572 168.016 268.323 169.274 268.083 170.585L269.732 220.841C259.899 235.995 250.436 250.95 241.327 265.73L234.873 197.523C234.535 197.673 234.197 197.836 233.871 198.019C233.827 198.044 233.786 198.072 233.745 198.097L240.301 267.396C237.923 271.264 235.565 275.12 233.232 278.967C233.22 278.984 233.212 279 233.204 279.016C230.423 283.601 227.678 288.169 224.966 292.725L219.681 228.943C219.335 229.281 218.964 229.599 218.577 229.892L223.928 294.476C217.588 305.144 211.427 315.734 205.442 326.255C205.279 326.54 205.381 326.898 205.662 327.057C205.755 327.11 205.853 327.135 205.951 327.135C206.154 327.135 206.354 327.029 206.464 326.837C210.369 319.977 214.343 313.088 218.398 306.166L274.619 295.873C274.7 295.461 274.777 295.046 274.855 294.631L219.188 304.826C224.054 296.532 229.026 288.19 234.112 279.798L310.589 258.658C310.748 258.214 310.895 257.766 311.029 257.314L235.003 278.332C252.28 249.88 270.856 220.816 290.89 190.906L338.909 186.134C338.808 185.747 338.698 185.365 338.584 184.982L291.741 189.636C296.008 183.272 300.341 176.871 304.738 170.426L320.57 168.81C320.977 169.713 321.885 170.349 322.944 170.349C324.377 170.349 325.545 169.18 325.545 167.747C325.545 166.314 324.377 165.145 322.944 165.145C321.543 165.145 320.399 166.261 320.346 167.649L305.61 169.156C308.977 164.229 312.385 159.278 315.834 154.302L355.246 143.724C355.38 143.309 355.486 142.873 355.567 142.409ZM322.948 166.322C323.733 166.322 324.369 166.961 324.369 167.743C324.369 168.525 323.729 169.164 322.948 169.164C322.162 169.164 321.527 168.525 321.527 167.743C321.527 166.961 322.162 166.322 322.948 166.322Z" fill="#005A2A"/>
</g>
<g id="Group_31">
<path id="Vector_23" d="M288.047 171.22C289.481 171.22 290.649 170.051 290.649 168.618C290.649 167.185 289.481 166.016 288.047 166.016C286.614 166.016 285.446 167.185 285.446 168.618C285.446 170.051 286.614 171.22 288.047 171.22ZM288.047 167.197C288.833 167.197 289.469 167.836 289.469 168.618C289.469 169.404 288.829 170.039 288.047 170.039C287.262 170.039 286.626 169.4 286.626 168.618C286.626 167.832 287.266 167.197 288.047 167.197Z" fill="#004C1B"/>
</g>
</g>
</g>
<g id="Group_32">
<path id="Vector_24" d="M368.654 192.262C368.699 192.006 368.589 191.745 368.373 191.602C368.158 191.456 367.873 191.452 367.657 191.594C355.747 199.168 346.385 211.175 341.935 224.57C338.172 229.049 334.324 233.451 330.379 237.767C329.617 238.394 328.872 239.037 328.139 239.701C333.551 229.448 336.702 217.942 337.293 206.073C337.309 205.784 337.13 205.515 336.853 205.422C336.58 205.328 336.271 205.426 336.104 205.662C328.115 216.916 323.803 230.714 323.962 244.513C323.962 244.546 323.974 244.578 323.978 244.611C319.189 249.623 314.287 254.525 309.262 259.297C316.127 247.351 319.825 234.473 320.517 220.063C320.529 219.77 320.346 219.501 320.065 219.408C319.788 219.314 319.478 219.42 319.316 219.668C310.968 232.213 306.192 247.416 305.862 262.481C302.552 265.555 299.196 268.585 295.788 271.553C301.66 256.846 303.566 242.404 301.615 227.498C301.579 227.209 301.355 226.981 301.065 226.936C300.776 226.891 300.495 227.042 300.369 227.307C293.667 241.549 291.228 257.954 293.488 273.536C288.378 277.925 283.161 282.196 277.848 286.341C286.223 271.793 289.762 256.565 288.956 238.74C288.944 238.487 288.772 238.275 288.532 238.206C288.288 238.137 288.031 238.231 287.889 238.434C277.864 252.88 273.112 271.17 274.81 288.69C269.598 292.681 264.296 296.549 258.905 300.29C266.715 284.545 270.229 265.849 269.077 246.056C269.061 245.796 268.877 245.576 268.625 245.511C268.372 245.446 268.108 245.556 267.969 245.779C257.932 262.176 253.856 282.567 256.759 301.768C239.246 313.78 220.846 324.488 201.724 333.727C201.398 333.885 201.26 334.276 201.419 334.602C201.533 334.834 201.765 334.972 202.009 334.972C202.103 334.972 202.2 334.952 202.294 334.907C221.701 325.53 240.374 314.639 258.128 302.416C267.778 306.202 278.047 308.116 288.329 308.116C296.371 308.116 304.425 306.947 312.19 304.602C312.438 304.529 312.609 304.301 312.613 304.04C312.617 303.78 312.454 303.548 312.21 303.466C295.605 297.774 278.914 296.699 261.316 300.205C266.064 296.87 270.742 293.434 275.356 289.908C283.846 292.501 292.58 293.804 301.509 293.804C312.552 293.804 323.892 291.821 335.432 287.86C335.672 287.778 335.831 287.55 335.827 287.298C335.823 287.045 335.66 286.826 335.416 286.748C316.921 280.95 296.884 281.211 278.568 287.424C283.858 283.299 289.053 279.049 294.143 274.68C294.18 274.704 294.217 274.725 294.261 274.741C301.232 277.062 308.183 278.218 314.995 278.218C325.159 278.218 335.017 275.645 344.166 270.535C344.378 270.417 344.492 270.181 344.459 269.945C344.427 269.704 344.248 269.513 344.016 269.456C328.261 265.755 311.424 266.952 296.338 272.795C301.025 268.719 305.626 264.537 310.129 260.262C312.169 260.368 314.148 260.421 316.074 260.421C331.177 260.421 343.006 257.156 353.829 250.104C354.057 249.953 354.171 249.68 354.11 249.411C354.053 249.147 353.833 248.943 353.564 248.902C340.192 246.981 326.205 249.615 314.393 256.154C318.961 251.691 323.432 247.131 327.797 242.469C342.175 240.637 353.23 235.197 361.545 225.841C361.724 225.637 361.761 225.344 361.639 225.104C361.512 224.864 361.256 224.721 360.983 224.754C351.899 225.792 343.173 228.98 335.562 233.943C337.985 231.211 340.367 228.447 342.717 225.653C356.357 220.153 365.808 207.979 368.654 192.262Z" fill="#84A21D"/>
</g>
<g id="Group_33">
<g id="Group_34">
<path id="Vector_25" d="M187.403 307.97C179.984 296.194 178.836 280.995 180.595 266.394C181.805 256.329 184.297 246.358 186.715 236.407C188.727 228.129 192.856 217.315 189.154 209.575C186.243 203.479 178.262 200.78 171.816 204.998C165.497 209.131 164.996 215.715 164.532 222.184C164.251 226.122 163.652 231.37 161.001 234.758C157.17 239.66 150.915 237.368 148.985 232.62C140.809 212.51 147.597 185.145 156.494 164.542C158.456 160.003 160.68 155.52 161.991 150.813C164.707 141.07 161.869 128.692 150.834 127.23C144.323 126.367 136.973 130.422 133.85 136.603C129.957 144.302 132.604 153.142 130.222 161.297C129.888 162.437 129.44 163.594 128.626 164.51C126.496 166.904 122.555 166.66 120.429 164.697C115.673 160.308 116.394 150.243 117.078 143.997C117.868 136.762 120.12 129.527 123.74 122.91C126.643 117.601 130.051 112.128 130.295 106.147C130.609 98.4153 122.221 95.7646 116.48 101.086C113.169 104.156 111.838 108.517 108.69 111.697C103.144 117.308 101.792 105.83 101.76 102.87C101.699 97.4055 103.201 91.522 102.533 86.1556C101.666 79.1972 95.4606 69.804 87.439 72.4424C77.3408 75.7648 75.6021 86.4284 81.4168 95.728C85.5334 102.312 91.5191 107.772 94.2554 115.251C96.5519 121.518 95.2407 136.184 85.224 130.259C81.7303 128.191 77.8335 126.742 73.7372 125.976C69.7223 125.227 65.0886 125.276 61.6153 127.939C56.5702 131.807 56.4562 139.559 59.6771 144.335C62.8979 149.111 68.4153 151.684 73.6151 154.262C91.8204 163.276 109.737 175.691 116.089 195.141C117.046 198.068 117.652 201.521 115.881 204.343C114.02 207.311 110.075 208.451 106.817 207.946C96.4745 206.342 89.8699 197.983 80.2522 194.978C70.9317 192.067 59.1477 195.967 58.7039 207.689C58.1297 222.942 75.1949 229.004 87.0604 232.775C103.185 237.897 119.419 243.951 134.249 251.736C138.749 254.098 145.817 261.83 136.794 265.108C130.035 267.563 122.921 267.208 116.117 269.379C99.9478 274.533 101.259 292.615 115.136 297.119C128.732 301.532 144.132 294.354 158.277 294.277C170.041 294.212 179.993 301.235 188.568 308.413" fill="#E9F5DF"/>
</g>
<g id="Group_35">
<path id="Vector_26" d="M117.925 281.931C117.933 281.496 118.3 281.117 118.735 281.081C121.635 280.853 124.469 280.531 127.205 280.221C135.507 279.281 143.35 278.389 151.758 280.156C161.006 282.098 168.221 285.148 173.909 289.545C171.45 285.926 169.043 282.269 166.686 278.576C144.751 247.473 116.309 225.279 83.754 214.029C83.355 213.891 83.1758 213.443 83.359 213.031C83.5382 212.616 84.0105 212.396 84.4096 212.531C112.558 222.258 137.653 240.096 158.167 264.733C143.541 240.034 131.069 213.931 120.906 186.774C120.894 186.753 120.873 186.737 120.865 186.717C112.371 165.471 93.2374 145.5 73.2445 137.022C72.8577 136.86 72.7111 136.399 72.9147 135.992C73.1183 135.589 73.5987 135.394 73.9856 135.557C90.3952 142.515 106.231 157.091 116.256 173.81C113.585 166.025 111.101 158.158 108.804 150.223C108.78 150.157 108.751 150.096 108.743 150.023C108.743 150.019 108.743 150.019 108.743 150.015C102.717 129.123 97.9974 107.747 94.6748 86.0171C94.6096 85.5937 94.9109 85.1621 95.3425 85.0562C95.7742 84.9463 96.1773 85.2028 96.2424 85.6263C99.2475 105.28 103.401 124.645 108.629 143.618C109.065 132.495 112.701 119.897 118.691 109.348C118.919 108.949 119.403 108.782 119.778 108.965C120.152 109.148 120.279 109.616 120.051 110.015C113.063 122.316 109.338 137.466 110.311 149.587C117.913 175.902 127.608 201.435 139.286 225.877C132.136 195.1 135.377 170.296 149.507 146.346C149.739 145.956 150.227 145.793 150.598 145.984C150.968 146.175 151.082 146.648 150.85 147.039C135.801 172.543 133.317 199.086 142.8 233.084C150.431 248.398 158.852 263.255 168.017 277.599C168.97 278.951 169.911 280.315 170.839 281.695C163.778 261.284 166.413 241.639 178.889 220.548C179.121 220.153 179.61 219.994 179.98 220.185C180.351 220.377 180.465 220.849 180.233 221.24C166.389 244.639 164.927 266.219 175.632 289.142C180.791 296.716 186.149 304.138 191.736 311.386C191.972 311.695 191.915 312.151 191.61 312.444C191.589 312.465 191.569 312.481 191.549 312.497C191.19 312.786 190.698 312.75 190.445 312.424C186.394 307.167 182.464 301.809 178.633 296.378C178.62 296.365 178.608 296.361 178.596 296.349C172.456 288.979 163.77 284.326 151.27 281.699C143.102 279.985 135.381 280.857 127.209 281.785C124.456 282.098 121.606 282.42 118.683 282.652C118.263 282.689 117.917 282.367 117.925 281.931Z" fill="#D5EBC1"/>
</g>
</g>
<g id="Group_36">
<g id="Group_37">
<path id="Vector_27" d="M161.474 285.352C171.605 275.812 176.523 261.382 178.482 246.81C179.83 236.765 179.919 226.484 180.07 216.244C180.196 207.726 178.91 196.224 184.431 189.656C188.776 184.485 197.18 183.87 202.363 189.567C207.445 195.153 206.281 201.651 205.108 208.027C204.391 211.912 203.658 217.14 205.377 221.085C207.856 226.789 214.485 226.138 217.543 222.026C230.496 204.607 230.781 176.411 227.328 154.237C226.567 149.351 225.536 144.457 225.447 139.571C225.256 129.457 231.107 118.183 242.154 119.535C248.673 120.333 254.773 126.098 256.247 132.861C258.087 141.289 253.311 149.184 253.571 157.678C253.608 158.867 253.755 160.1 254.312 161.187C255.774 164.038 259.651 164.787 262.2 163.419C267.904 160.361 269.724 150.434 270.632 144.217C271.679 137.014 271.312 129.445 269.468 122.137C267.986 116.269 266.06 110.117 267.322 104.266C268.955 96.7052 277.742 96.2369 281.964 102.829C284.399 106.628 284.599 111.184 286.847 115.052C290.809 121.872 294.994 111.098 295.768 108.24C297.197 102.967 297.214 96.8924 299.209 91.864C301.794 85.3453 310.154 77.8047 317.255 82.369C326.201 88.114 325.212 98.8753 317.251 106.42C311.616 111.762 304.453 115.549 299.93 122.104C296.139 127.597 293.732 142.12 304.914 138.895C308.814 137.772 312.951 137.34 317.105 137.625C321.181 137.906 325.652 139.111 328.347 142.56C332.264 147.568 330.428 155.104 326.116 158.92C321.804 162.735 315.814 163.846 310.134 165.039C290.251 169.209 269.794 176.737 258.775 193.972C257.118 196.566 255.664 199.758 256.67 202.93C257.729 206.268 261.263 208.361 264.541 208.691C274.957 209.729 283.443 203.288 293.508 202.787C303.26 202.303 313.692 209.033 311.184 220.491C307.919 235.401 289.88 236.997 277.449 237.673C260.555 238.589 243.322 240.389 227.015 244.208C222.067 245.368 213.288 251.081 221.2 256.516C227.129 260.588 234.108 262.025 240.146 265.828C254.508 274.867 248.709 292.045 234.148 292.929C219.881 293.796 206.769 282.99 193.096 279.37C181.723 276.357 170.33 280.669 160.228 285.47" fill="#E9F5DF"/>
</g>
<g id="Group_38">
<path id="Vector_28" d="M235.26 277.55C235.357 277.127 235.101 276.667 234.686 276.524C231.937 275.576 229.274 274.558 226.701 273.568C218.899 270.576 211.529 267.75 202.945 267.355C193.507 266.919 185.758 268.064 179.145 270.893C182.431 268.002 185.677 265.067 188.885 262.086C217.914 237.469 251.01 223.105 285.344 220.368C285.763 220.336 286.048 219.945 285.979 219.501C285.91 219.057 285.511 218.724 285.087 218.756C255.399 221.122 226.636 232.103 200.604 250.816C220.951 230.568 239.568 208.422 256.209 184.677C256.226 184.66 256.25 184.648 256.262 184.632C269.805 166.191 293.337 151.652 314.812 148.451C315.227 148.39 315.484 147.979 315.386 147.539C315.288 147.1 314.873 146.79 314.458 146.851C296.83 149.477 277.847 159.624 263.954 173.296C268.49 166.428 272.867 159.437 277.078 152.328C277.118 152.271 277.159 152.222 277.184 152.153C277.184 152.148 277.184 152.148 277.188 152.144C288.255 133.431 298.178 113.916 306.839 93.7125C307.006 93.3175 306.823 92.8289 306.432 92.6131C306.041 92.4014 305.585 92.5439 305.418 92.9389C297.588 111.212 288.715 128.92 278.898 145.98C281.26 135.101 280.897 121.994 277.742 110.28C277.623 109.836 277.196 109.555 276.785 109.637C276.373 109.722 276.137 110.146 276.255 110.581C279.94 124.242 279.749 139.84 275.771 151.334C261.821 174.905 246.038 197.193 228.61 217.93C243.245 189.921 246.319 165.1 238.639 138.374C238.513 137.938 238.082 137.658 237.674 137.747C237.267 137.837 237.039 138.268 237.165 138.704C245.346 167.169 241.103 193.484 223.407 224.025C212.184 236.94 200.307 249.212 187.843 260.804C186.585 261.875 185.33 262.958 184.085 264.065C196.031 246.073 198.405 226.395 191.609 202.848C191.483 202.409 191.051 202.132 190.644 202.225C190.237 202.319 190.009 202.747 190.135 203.182C197.676 229.302 193.686 250.56 177.578 270.071C170.688 276.109 163.636 281.956 156.416 287.571C156.111 287.811 156.054 288.267 156.274 288.629C156.286 288.654 156.302 288.674 156.318 288.699C156.591 289.065 157.08 289.159 157.406 288.902C162.646 284.826 167.793 280.624 172.862 276.325C172.875 276.317 172.891 276.317 172.903 276.309C180.693 270.714 190.266 268.381 203.027 268.967C211.362 269.35 218.618 272.131 226.298 275.079C228.883 276.072 231.562 277.098 234.335 278.051C234.743 278.198 235.162 277.974 235.26 277.55Z" fill="#D5EBC1"/>
</g>
</g>
</g>
<g id="Group_39">
<path id="Vector_29" d="M251.022 338.336H139.71C131.269 338.336 124.424 331.491 124.424 323.051V27.7074C124.424 19.2669 131.269 12.4225 139.71 12.4225H251.022C259.463 12.4225 266.308 19.2669 266.308 27.7074V323.051C266.308 331.491 259.463 338.336 251.022 338.336Z" fill="white" stroke="#87A7AA" stroke-width="2" stroke-miterlimit="10" stroke-linecap="round"/>
<g id="Group_40">
<path id="Vector_30" d="M170.175 31.0626C169.817 30.8468 169.54 30.5373 169.345 30.1383C169.149 29.7393 169.052 29.267 169.052 28.7214V28.7173C169.052 28.1717 169.149 27.6994 169.345 27.3004C169.54 26.9014 169.817 26.596 170.175 26.3802C170.534 26.1644 170.957 26.0545 171.446 26.0545C171.824 26.0545 172.167 26.1277 172.472 26.2743C172.777 26.4209 173.03 26.6204 173.225 26.881C173.421 27.1416 173.547 27.4388 173.6 27.7808L173.604 27.8175H172.806L172.785 27.7442C172.732 27.5406 172.643 27.3655 172.517 27.223C172.39 27.0805 172.244 26.9665 172.061 26.8891C171.881 26.8118 171.674 26.7711 171.438 26.7711C171.116 26.7711 170.839 26.8525 170.607 27.0113C170.371 27.1701 170.192 27.3981 170.061 27.6872C169.931 27.9763 169.87 28.3224 169.87 28.7214V28.7254C169.87 29.1204 169.935 29.4665 170.061 29.7596C170.188 30.0528 170.371 30.2808 170.607 30.4396C170.843 30.5984 171.12 30.6798 171.438 30.6798C171.666 30.6798 171.869 30.6391 172.052 30.5617C172.232 30.4844 172.386 30.3704 172.513 30.2197C172.639 30.0691 172.732 29.8859 172.794 29.6701L172.806 29.6334H173.604L173.596 29.6701C173.543 30.0121 173.421 30.3134 173.221 30.574C173.026 30.8345 172.773 31.0341 172.468 31.1766C172.162 31.3191 171.82 31.3924 171.438 31.3924C170.957 31.3883 170.534 31.2784 170.175 31.0626Z" fill="#87A7AA"/>
<path id="Vector_31" d="M176.116 26.1399H176.987L178.848 31.3027H178.005L176.564 26.9949H176.548L175.102 31.3027H174.259L176.116 26.1399ZM175.257 29.2628H177.834V29.9061H175.257V29.2628Z" fill="#87A7AA"/>
<path id="Vector_32" d="M179.785 26.1399H180.587V30.6105H182.998V31.3068H179.789V26.1399H179.785Z" fill="#87A7AA"/>
<path id="Vector_33" d="M184.773 31.0624C184.411 30.8467 184.13 30.5372 183.935 30.1382C183.739 29.7392 183.641 29.2669 183.641 28.7213V28.7131C183.641 28.1675 183.739 27.6952 183.939 27.2962C184.134 26.8972 184.415 26.5918 184.777 26.376C185.14 26.1602 185.571 26.0503 186.064 26.0503C186.557 26.0503 186.984 26.1602 187.351 26.376C187.717 26.5918 187.994 26.9012 188.19 27.2962C188.385 27.6911 188.483 28.1635 188.483 28.7131V28.7213C188.483 29.2669 188.385 29.7392 188.19 30.1382C187.994 30.5372 187.713 30.8426 187.355 31.0624C186.993 31.2782 186.565 31.3882 186.068 31.3882C185.567 31.3882 185.136 31.2782 184.773 31.0624ZM186.919 30.4354C187.159 30.2766 187.343 30.0486 187.469 29.7555C187.595 29.4623 187.66 29.1162 187.66 28.7213V28.7131C187.66 28.3141 187.595 27.968 187.465 27.6789C187.335 27.3858 187.151 27.1618 186.911 27.003C186.671 26.8442 186.39 26.7669 186.064 26.7669C185.738 26.7669 185.453 26.8442 185.213 27.003C184.973 27.1618 184.79 27.3858 184.655 27.6789C184.521 27.9721 184.46 28.3182 184.46 28.7172V28.7253C184.46 29.1244 184.525 29.4704 184.655 29.7636C184.786 30.0568 184.973 30.2848 185.209 30.4436C185.445 30.6024 185.73 30.6797 186.06 30.6797C186.39 30.6797 186.679 30.5942 186.919 30.4354Z" fill="#87A7AA"/>
<path id="Vector_34" d="M189.614 26.1399H191.622C191.972 26.1399 192.277 26.205 192.534 26.3312C192.79 26.4574 192.99 26.6407 193.128 26.8768C193.267 27.113 193.336 27.3939 193.336 27.7197V27.7278C193.336 28.078 193.247 28.3833 193.071 28.648C192.892 28.9086 192.648 29.0959 192.338 29.1977L193.495 31.3027H192.567L191.516 29.3239C191.508 29.3239 191.5 29.3239 191.492 29.3239C191.483 29.3239 191.479 29.3239 191.467 29.3239H190.413V31.3027H189.61V26.1399H189.614ZM191.544 28.6602C191.854 28.6602 192.09 28.5788 192.261 28.42C192.432 28.2612 192.514 28.0291 192.514 27.7359V27.7278C192.514 27.4428 192.424 27.2188 192.245 27.056C192.066 26.8931 191.825 26.8117 191.516 26.8117H190.413V28.6602H191.544Z" fill="#87A7AA"/>
<path id="Vector_35" d="M194.48 26.1399H195.282V31.3027H194.48V26.1399Z" fill="#87A7AA"/>
<path id="Vector_36" d="M196.602 26.1399H199.88V26.8361H197.404V28.3385H199.749V29.0104H197.404V30.6105H199.88V31.3068H196.602V26.1399Z" fill="#87A7AA"/>
<path id="Vector_37" d="M202.922 26.1399H203.724V31.3027H202.922V26.1399ZM203.325 28.8638H204.648C204.994 28.8638 205.263 28.7742 205.454 28.5951C205.646 28.4159 205.743 28.1635 205.743 27.8459V27.8377C205.743 27.512 205.646 27.2596 205.454 27.0845C205.263 26.9094 204.994 26.8158 204.648 26.8158H203.325V26.1399H204.848C205.186 26.1399 205.483 26.2091 205.739 26.3516C205.996 26.4941 206.195 26.6895 206.342 26.946C206.489 27.2026 206.562 27.4957 206.562 27.8337V27.8418C206.562 28.1797 206.489 28.4729 206.342 28.7294C206.195 28.9859 205.996 29.1854 205.739 29.3279C205.483 29.4705 205.186 29.5397 204.848 29.5397H203.325V28.8638Z" fill="#87A7AA"/>
<path id="Vector_38" d="M207.628 26.1399H208.43V30.6105H210.841V31.3068H207.632V26.1399H207.628Z" fill="#87A7AA"/>
<path id="Vector_39" d="M213.37 26.1399H214.241L216.102 31.3027H215.259L213.813 26.9949H213.797L212.352 31.3027H211.509L213.37 26.1399ZM212.51 29.2628H215.088V29.9061H212.51V29.2628Z" fill="#87A7AA"/>
<path id="Vector_40" d="M217.039 26.1399H217.78L220.956 30.7042L220.109 29.9509H220.455V26.1399H221.253V31.3027H220.512L217.336 26.7343L218.183 27.4835H217.837V31.3068H217.039V26.1399Z" fill="#87A7AA"/>
</g>
<g id="Group_41">
<path id="Vector_41" d="M144.14 25.411H136.2C135.976 25.411 135.793 25.2278 135.793 25.0038C135.793 24.7799 135.976 24.5967 136.2 24.5967H144.14C144.364 24.5967 144.547 24.7799 144.547 25.0038C144.547 25.2278 144.364 25.411 144.14 25.411Z" fill="#87A7AA"/>
</g>
<g id="Group_42">
<path id="Vector_42" d="M144.14 28.7212H136.2C135.976 28.7212 135.793 28.538 135.793 28.3141C135.793 28.0901 135.976 27.9069 136.2 27.9069H144.14C144.364 27.9069 144.547 28.0901 144.547 28.3141C144.547 28.538 144.364 28.7212 144.14 28.7212Z" fill="#87A7AA"/>
</g>
<g id="Group_43">
<path id="Vector_43" d="M144.14 32.0274H136.2C135.976 32.0274 135.793 31.8442 135.793 31.6202C135.793 31.3963 135.976 31.2131 136.2 31.2131H144.14C144.364 31.2131 144.547 31.3963 144.547 31.6202C144.547 31.8442 144.364 32.0274 144.14 32.0274Z" fill="#87A7AA"/>
</g>
<g id="Group_44">
<path id="Vector_44" d="M171.898 66.5833C160.163 74.5433 164.931 117.092 203.268 115.793C215.089 112.198 220.353 102.377 214.335 93.3379C206.171 81.0782 223.354 79.8364 222.243 70.0278C221.131 60.2193 208.639 44.2341 192.302 65.2152C187.51 69.6655 181.288 60.2152 171.898 66.5833Z" fill="#F7E6E7"/>
<path id="Vector_45" d="M190.401 53.3546L189.656 53.9735V56.1273L190.47 55.4555V53.6844C190.47 53.5663 190.446 53.4564 190.401 53.3546ZM186.199 69.4945L187.013 68.9407V66.7991L186.199 67.3528V69.4945ZM186.199 62.5768V64.5515L187.013 63.9041V61.848L186.199 62.5768ZM189.656 65.0076V67.137L190.47 66.5833V64.4579L189.656 65.0076ZM186.199 70.0238V70.321H190.47V69.8813L186.199 70.0238ZM189.656 59.4905V61.8113L190.47 61.168V58.7658L189.656 59.4905ZM186.199 56.8521V58.9653L187.013 58.2975V56.1762L186.199 56.8521Z" fill="#7A2E56"/>
<path id="Vector_46" d="M190.47 55.4555V58.7658L189.656 59.4905V56.1274L190.47 55.4555Z" fill="#7A2E56"/>
<path id="Vector_47" d="M189.656 53.9735V53.6844C189.656 53.6722 189.648 53.6599 189.631 53.6599H187.038C187.025 53.6599 187.013 53.6722 187.013 53.6844V56.1762L186.199 56.8521V53.6844C186.199 53.2202 186.577 52.8456 187.038 52.8456H189.631C189.977 52.8456 190.275 53.0533 190.401 53.3546L189.656 53.9735Z" fill="#7A2E56"/>
<path id="Vector_48" d="M189.656 53.6844V53.9735L187.013 56.1762V53.6844C187.013 53.6722 187.025 53.66 187.037 53.66H189.631C189.647 53.66 189.656 53.6722 189.656 53.6844Z" fill="#FD5A7A"/>
<path id="Vector_49" d="M187.013 58.2975V61.848L186.199 62.5768V58.9653L187.013 58.2975Z" fill="#7A2E56"/>
<path id="Vector_50" d="M189.656 56.1273V59.4905L187.013 61.848V58.2975L189.656 56.1273Z" fill="#FD5A7A"/>
<path id="Vector_51" d="M190.47 61.168V64.4579L189.656 65.0076V61.8113L190.47 61.168Z" fill="#7A2E56"/>
<path id="Vector_52" d="M187.013 63.9041V66.799L186.199 67.3528V64.5515L187.013 63.9041Z" fill="#7A2E56"/>
<path id="Vector_53" d="M189.656 61.8113V65.0075L187.013 66.7991V63.9041L189.656 61.8113Z" fill="#FD5A7A"/>
<path id="Vector_54" d="M190.47 66.5833V69.8813L186.199 70.0238V69.4945L187.013 68.9407V69.5067H189.656V67.137L190.47 66.5833Z" fill="#7A2E56"/>
<path id="Vector_55" d="M185.38 70.0523L186.199 69.4945V70.0238L185.38 70.0523Z" fill="#7A2E56"/>
<path id="Vector_56" d="M189.656 67.137V69.5067H187.013V68.9408L189.656 67.137Z" fill="#FD5A7A"/>
<g id="Group_45">
<path id="Vector_57" d="M211.448 69.8487C211.367 71.9741 210.512 73.9 209.152 75.3576L208.859 75.0644C208.68 75.268 208.484 75.4553 208.276 75.6345L208.57 75.9276C207.144 77.1939 205.3 77.996 203.268 78.0856V77.6784C203.134 77.6866 202.999 77.6906 202.861 77.6906C202.722 77.6906 202.588 77.6866 202.454 77.6784V78.0856C200.3 77.9879 198.353 77.0962 196.9 75.6915L197.189 75.3983C196.989 75.211 196.806 75.0156 196.631 74.8079L196.338 75.1011C195.116 73.6801 194.351 71.8519 194.273 69.8487C194.269 69.7347 194.265 69.6166 194.265 69.5026L194.338 69.1036L194.351 69.0344L194.742 66.8764L194.815 66.4774C195.189 65.4798 195.743 64.5759 196.435 63.7942L196.729 64.0873C196.908 63.8838 197.099 63.6883 197.299 63.5051L197.006 63.2119C198.447 61.8683 200.353 61.0173 202.454 60.9196V61.3268C202.588 61.3186 202.726 61.3146 202.861 61.3146C202.999 61.3146 203.134 61.3186 203.268 61.3268V60.9196C205.231 61.0092 207.026 61.7584 208.427 62.9554L208.134 63.2486C208.346 63.4196 208.545 63.6069 208.732 63.8064L209.022 63.5092C210.43 64.9505 211.33 66.8886 211.444 69.0344H211.033C211.045 69.1891 211.049 69.3438 211.049 69.5026C211.049 69.6207 211.045 69.7347 211.041 69.8487H211.448Z" fill="#FFD262"/>
<path id="Vector_58" d="M194.432 66.3349C194.831 65.2763 195.417 64.3276 196.154 63.5133L196.728 64.0874C196.077 64.8203 195.552 65.6753 195.193 66.6199C195.124 66.8072 194.933 66.9131 194.741 66.8764C194.717 66.8724 194.692 66.8683 194.668 66.8561C194.46 66.7787 194.354 66.5425 194.432 66.3349Z" fill="#7A2E56"/>
<path id="Vector_59" d="M197.005 63.2119L196.724 62.931C198.263 61.4937 200.287 60.6102 202.453 60.5125V61.3268C200.507 61.4245 198.691 62.2185 197.298 63.5051L197.005 63.2119Z" fill="#7A2E56"/>
<path id="Vector_60" d="M208.134 63.2486C206.806 62.1248 205.116 61.4164 203.268 61.3268V60.5125C205.34 60.602 207.234 61.4001 208.712 62.6664L208.427 62.9554L208.134 63.2486Z" fill="#7A2E56"/>
<path id="Vector_61" d="M211.033 69.0344C210.923 67.0067 210.068 65.1745 208.732 63.8064L209.022 63.5091L209.307 63.2241C210.785 64.7429 211.738 66.7827 211.852 69.0344H211.033Z" fill="#7A2E56"/>
<path id="Vector_62" d="M196.631 74.808L196.052 75.3861C194.758 73.8878 193.943 71.9578 193.866 69.8487C193.862 69.7347 193.858 69.6166 193.858 69.5026C193.858 69.2787 194.041 69.0955 194.265 69.0955C194.289 69.0955 194.314 69.0995 194.338 69.1036C194.53 69.1362 194.672 69.3031 194.672 69.5026C194.672 69.6207 194.676 69.7347 194.68 69.8487C194.758 71.7379 195.478 73.4602 196.631 74.808Z" fill="#7A2E56"/>
<path id="Vector_63" d="M202.454 77.6784V78.4927C200.19 78.395 198.146 77.4545 196.615 75.9765L196.9 75.6915L197.189 75.3983C198.569 76.7256 200.414 77.5807 202.454 77.6784Z" fill="#7A2E56"/>
<path id="Vector_64" d="M208.854 76.2126C207.356 77.5522 205.41 78.3991 203.268 78.4927V77.6784C205.182 77.5848 206.928 76.8275 208.276 75.6345L208.854 76.2126Z" fill="#7A2E56"/>
<path id="Vector_65" d="M211.855 69.8487C211.774 72.0799 210.87 74.1117 209.436 75.6426L209.151 75.3576L208.858 75.0644C210.145 73.6842 210.959 71.8601 211.041 69.8487H211.855Z" fill="#7A2E56"/>
</g>
<g id="Group_46">
<path id="Vector_66" d="M203.268 60.5125V60.9197C203.134 60.9115 202.995 60.9074 202.861 60.9074C202.722 60.9074 202.588 60.9115 202.454 60.9197V60.5125C202.588 60.5043 202.726 60.5003 202.861 60.5003C202.995 60.5003 203.134 60.5043 203.268 60.5125Z" fill="#7A2E56"/>
<path id="Vector_67" d="M203.268 60.9197V61.3268C203.134 61.3187 202.999 61.3146 202.861 61.3146C202.726 61.3146 202.588 61.3187 202.454 61.3268V60.9197C202.588 60.9115 202.722 60.9075 202.861 60.9075C202.995 60.9075 203.134 60.9115 203.268 60.9197Z" fill="#7A2E56"/>
<path id="Vector_68" d="M203.268 78.4928V78.8999H202.454V78.4928C202.588 78.5009 202.726 78.505 202.861 78.505C202.995 78.505 203.134 78.5009 203.268 78.4928Z" fill="#FEEACD"/>
<path id="Vector_69" d="M203.268 78.0856V78.4928C203.134 78.5009 202.995 78.505 202.861 78.505C202.726 78.505 202.588 78.5009 202.454 78.4928V78.0856C202.588 78.0937 202.726 78.0978 202.861 78.0978C202.995 78.0978 203.134 78.0937 203.268 78.0856Z" fill="#FEEACD"/>
<path id="Vector_70" d="M203.268 77.6785V78.0856C203.134 78.0938 202.995 78.0978 202.861 78.0978C202.726 78.0978 202.588 78.0938 202.454 78.0856V77.6785C202.588 77.6866 202.722 77.6907 202.861 77.6907C202.999 77.6907 203.134 77.6866 203.268 77.6785Z" fill="#FEEACD"/>
<path id="Vector_71" d="M203.268 61.3268V77.6785C203.134 77.6866 202.999 77.6907 202.861 77.6907C202.722 77.6907 202.588 77.6866 202.454 77.6785V61.3268C202.588 61.3187 202.726 61.3146 202.861 61.3146C202.999 61.3146 203.134 61.3187 203.268 61.3268Z" fill="#FEEACD"/>
</g>
<g id="Group_47">
<path id="Vector_72" d="M197.299 63.5051C197.099 63.6884 196.908 63.8838 196.729 64.0874L196.436 63.7942C196.615 63.5906 196.806 63.3952 197.006 63.212L197.299 63.5051Z" fill="#7A2E56"/>
<path id="Vector_73" d="M197.006 63.212C196.806 63.3952 196.615 63.5906 196.436 63.7942L196.155 63.5133C196.33 63.3097 196.521 63.1142 196.725 62.931L197.006 63.212Z" fill="#7A2E56"/>
<path id="Vector_74" d="M209.437 75.6426C209.254 75.8422 209.058 76.0335 208.855 76.2127L208.57 75.9277C208.773 75.7485 208.969 75.5571 209.152 75.3576L209.437 75.6426Z" fill="#7A2E56"/>
<path id="Vector_75" d="M209.152 75.3576C208.969 75.5571 208.774 75.7485 208.57 75.9276L208.277 75.6345C208.485 75.4553 208.68 75.268 208.859 75.0644L209.152 75.3576Z" fill="#7A2E56"/>
<path id="Vector_76" d="M208.859 75.0644C208.68 75.268 208.484 75.4553 208.277 75.6345L196.729 64.0874C196.908 63.8838 197.099 63.6883 197.299 63.5051L202.454 68.6598L202.828 69.0344L203.179 69.3845L203.268 69.4741L208.859 75.0644Z" fill="#FEEACD"/>
</g>
<g id="Group_48">
<path id="Vector_77" d="M209.306 63.2242L209.021 63.5092C208.834 63.3138 208.634 63.1305 208.427 62.9554L208.712 62.6664C208.919 62.8455 209.115 63.0287 209.306 63.2242Z" fill="#7A2E56"/>
<path id="Vector_78" d="M209.021 63.5092L208.732 63.8064C208.545 63.6069 208.346 63.4196 208.134 63.2486L208.427 62.9554C208.635 63.1305 208.834 63.3137 209.021 63.5092Z" fill="#7A2E56"/>
<path id="Vector_79" d="M196.614 75.9765L194.395 78.2078L193.817 77.6337L196.052 75.3861C196.231 75.5938 196.419 75.7892 196.614 75.9765Z" fill="#FEEACD"/>
<path id="Vector_80" d="M196.899 75.6915L196.614 75.9765C196.419 75.7892 196.232 75.5938 196.052 75.3861L196.338 75.1011C196.517 75.3088 196.704 75.5083 196.899 75.6915Z" fill="#FEEACD"/>
<path id="Vector_81" d="M197.188 75.3983L196.899 75.6915C196.704 75.5083 196.517 75.3087 196.337 75.1011L196.631 74.8079C196.806 75.0156 196.989 75.211 197.188 75.3983Z" fill="#FEEACD"/>
<path id="Vector_82" d="M208.732 63.8064L203.524 69.0344L203.268 69.295L203.178 69.3845L202.714 69.8487L202.604 69.9627L202.453 70.1134L197.188 75.3983C196.989 75.211 196.806 75.0156 196.631 74.8079L201.566 69.8487L202.026 69.3845L202.376 69.0344L202.453 68.957L202.6 68.8064L203.268 68.1386L208.134 63.2486C208.345 63.4196 208.545 63.6069 208.732 63.8064Z" fill="#FEEACD"/>
</g>
<g id="Group_49">
<path id="Vector_83" d="M211.864 69.5026C211.864 69.6166 211.86 69.7347 211.856 69.8487H211.448C211.452 69.7347 211.457 69.6166 211.457 69.5026C211.457 69.3479 211.452 69.1891 211.444 69.0344H211.852C211.86 69.1891 211.864 69.3479 211.864 69.5026Z" fill="#7A2E56"/>
<path id="Vector_84" d="M211.457 69.5026C211.457 69.6166 211.453 69.7347 211.449 69.8487H211.041C211.045 69.7347 211.049 69.6207 211.049 69.5026C211.049 69.3438 211.045 69.1891 211.033 69.0344H211.444C211.453 69.1891 211.457 69.3479 211.457 69.5026Z" fill="#7A2E56"/>
<path id="Vector_85" d="M211.049 69.5026C211.049 69.6207 211.045 69.7347 211.041 69.8487H193.728V69.0344H211.033C211.045 69.1891 211.049 69.3438 211.049 69.5026Z" fill="#FEEACD"/>
</g>
<path id="Vector_86" d="M204.387 81.8926V102.377L201.859 106.534L201.643 106.888H184.696L184.024 106.534L182.249 102.23C182.249 102.23 182.151 82.9064 182.249 81.1882C182.35 79.47 183.511 76.8193 183.511 76.8193V72.3772C182.937 70.1175 184.696 69.1281 184.696 69.1281H202.123L202.856 70.7363L203.072 77.5685L204.171 81.1882L204.387 81.8926Z" fill="white"/>
<path id="Vector_87" d="M204.176 91.5261V92.035H185.38V81.1882H204.172L204.388 81.8926V91.5261H204.176Z" fill="#FF9595"/>
<path id="Vector_88" d="M204.583 91.526V92.035H204.388V102.377H185.38V91.526H204.583Z" fill="#FE5C6D"/>
<path id="Vector_89" d="M204.388 102.377L202.413 106.534H186.618L185.38 102.377H204.388Z" fill="#FB045C"/>
<g id="Group_50">
<path id="Vector_90" d="M183.34 72.7844C183.161 72.7844 182.994 72.6622 182.949 72.4831C182.929 72.4057 182.453 70.5735 183.295 69.4741C183.694 68.957 184.297 68.6924 185.091 68.6924H201.822C201.953 68.6842 202.368 68.6802 202.735 69.014C203.121 69.3642 203.301 69.9505 203.268 70.7526C203.26 70.9766 203.081 71.1516 202.844 71.1435C202.621 71.1353 202.445 70.944 202.454 70.72C202.474 70.1948 202.384 69.8039 202.193 69.6248C202.055 69.4904 201.892 69.5026 201.883 69.5026L201.839 69.5067H185.091C184.558 69.5067 184.179 69.6574 183.943 69.9709C183.446 70.6183 183.625 71.852 183.739 72.2713C183.796 72.4871 183.67 72.7111 183.45 72.7681C183.409 72.7803 183.377 72.7844 183.34 72.7844Z" fill="#772951"/>
</g>
<g id="Group_51">
<path id="Vector_91" d="M200.89 74.4578H182.249C182.025 74.4578 181.842 74.2746 181.842 74.0506C181.842 73.8267 182.025 73.6435 182.249 73.6435H200.89C201.114 73.6435 201.297 73.8267 201.297 74.0506C201.297 74.2746 201.114 74.4578 200.89 74.4578Z" fill="#772951"/>
</g>
<g id="Group_52">
<path id="Vector_92" d="M201.297 107.3H185.046C184.154 107.3 183.364 106.734 183.071 105.891L181.837 102.238C181.825 101.44 181.548 82.6703 181.841 80.5489C182.102 78.6516 182.916 77.1125 183.149 76.7094V74.0506C183.149 73.8267 183.332 73.6435 183.556 73.6435C183.78 73.6435 183.963 73.8267 183.963 74.0506V76.9333L183.902 77.0311C183.894 77.0473 182.92 78.6638 182.648 80.6629C182.375 82.6621 182.631 100.923 182.652 102.161L183.845 105.626C184.02 106.139 184.504 106.485 185.05 106.485H201.301C201.818 106.485 202.278 106.176 202.474 105.699L203.98 102.076V82.1002C203.911 81.7297 203.296 78.6312 202.518 77.4016L202.453 77.2998V72.6663C202.453 72.4423 202.636 72.2591 202.86 72.2591C203.084 72.2591 203.268 72.4423 203.268 72.6663V77.0677C204.143 78.5579 204.762 81.8437 204.786 81.9862L204.795 82.0595V102.238L203.227 106.013C202.901 106.795 202.144 107.3 201.297 107.3Z" fill="#772951"/>
</g>
<g id="Group_53">
<path id="Vector_93" d="M204.094 72.3487H185.38C185.156 72.3487 184.973 72.1655 184.973 71.9415C184.973 71.7176 185.156 71.5344 185.38 71.5344H204.094C204.318 71.5344 204.502 71.7176 204.502 71.9415C204.502 72.1655 204.318 72.3487 204.094 72.3487Z" fill="#772951"/>
</g>
</g>
<g id="Group_54">
<path id="Vector_94" d="M197.958 239.969C177.057 239.835 182.909 258.21 177.012 258.776C171.116 259.342 159.495 270.869 171.666 284.138C189.835 303.939 231.82 285.339 229.173 271.455C226.258 256.17 211.135 259.9 211.701 252.575C212.267 245.25 205.695 240.018 197.958 239.969Z" fill="#F1E3EF"/>
<g id="Group_55">
<path id="Vector_95" d="M206.452 282.102H186.109C183.519 282.102 181.422 280.006 181.422 277.416V275.816H211.139V277.416C211.139 280.006 209.042 282.102 206.452 282.102Z" fill="#FAB36E"/>
<path id="Vector_96" d="M207.783 282.396H184.781C182.77 282.396 181.133 280.759 181.133 278.747V275.527H211.436V278.747C211.432 280.759 209.795 282.396 207.783 282.396ZM181.715 276.109V278.747C181.715 280.437 183.092 281.813 184.781 281.813H207.783C209.473 281.813 210.85 280.437 210.85 278.747V276.109H181.715Z" fill="#7A2E56"/>
</g>
<path id="Vector_97" d="M201.745 278.234H181.712V275.425H203.036V276.94C203.04 277.656 202.462 278.234 201.745 278.234Z" fill="#FDD7B4"/>
<g id="Group_56">
<path id="Vector_98" d="M209.811 276.345H182.635C181.462 276.345 180.514 275.397 180.514 274.224V273.646C180.514 272.473 181.462 271.524 182.635 271.524H209.811C210.983 271.524 211.932 272.473 211.932 273.646V274.224C211.932 275.392 210.979 276.345 209.811 276.345Z" fill="#A84849"/>
<path id="Vector_99" d="M209.522 276.634H182.925C181.434 276.634 180.225 275.421 180.225 273.935C180.225 272.445 181.438 271.235 182.925 271.235H209.522C211.012 271.235 212.222 272.449 212.222 273.935C212.222 275.425 211.012 276.634 209.522 276.634ZM182.925 271.818C181.756 271.818 180.807 272.766 180.807 273.935C180.807 275.103 181.756 276.052 182.925 276.052H209.522C210.691 276.052 211.639 275.103 211.639 273.935C211.639 272.766 210.691 271.818 209.522 271.818H182.925Z" fill="#7A2E56"/>
</g>
<path id="Vector_100" d="M185.392 274.68H182.953C182.591 274.68 182.298 274.387 182.298 274.024V273.845C182.298 273.483 182.591 273.19 182.953 273.19H185.392C185.755 273.19 186.048 273.483 186.048 273.845V274.024C186.048 274.387 185.755 274.68 185.392 274.68Z" fill="#D25B5D"/>
<g id="Group_57">
<path id="Vector_101" d="M197.685 276.594L193.41 272.318C193.096 272.005 192.669 271.826 192.221 271.826H184.101C183.356 271.826 182.75 271.219 182.75 270.474V270.274C182.75 269.529 183.356 268.923 184.101 268.923H208.622C209.367 268.923 209.974 269.529 209.974 270.274C209.974 271.019 209.367 271.626 208.622 271.626H203.679C203.276 271.626 202.893 271.797 202.624 272.094L198.593 276.565C198.353 276.834 197.938 276.846 197.685 276.594Z" fill="#F6E8B2"/>
<path id="Vector_102" d="M198.129 277.066C197.889 277.066 197.653 276.968 197.482 276.797L193.206 272.522C192.946 272.261 192.595 272.115 192.225 272.115H184.106C183.202 272.115 182.465 271.378 182.465 270.474V270.274C182.465 269.37 183.202 268.634 184.106 268.634H208.626C209.53 268.634 210.267 269.37 210.267 270.274C210.267 271.178 209.53 271.915 208.626 271.915H203.683C203.366 271.915 203.056 272.05 202.844 272.29L198.813 276.76C198.646 276.948 198.406 277.058 198.158 277.062C198.141 277.066 198.137 277.066 198.129 277.066ZM184.102 269.22C183.519 269.22 183.043 269.696 183.043 270.278V270.478C183.043 271.06 183.519 271.537 184.102 271.537H192.221C192.746 271.537 193.243 271.74 193.613 272.115L197.889 276.39C197.954 276.455 198.044 276.496 198.133 276.488C198.227 276.484 198.312 276.447 198.373 276.378L202.405 271.907C202.73 271.549 203.195 271.341 203.679 271.341H208.622C209.205 271.341 209.681 270.865 209.681 270.283C209.681 269.7 209.205 269.224 208.622 269.224H184.102V269.22Z" fill="#7A2E56"/>
</g>
<g id="Group_58">
<path id="Vector_103" d="M208.618 265.727H183.882V268.662H208.618V265.727Z" fill="#EE3E2C"/>
<path id="Vector_104" d="M208.908 268.955H183.589V265.433H208.908V268.955ZM184.175 268.373H208.33V266.02H184.175V268.373Z" fill="#7A2E56"/>
</g>
<g id="Group_59">
<path id="Vector_105" d="M183.768 263.654L180.983 266.777C180.983 266.777 182.791 267.718 183.768 266.777C184.745 265.836 186.028 267.001 186.028 267.001C186.028 267.001 187.197 267.754 188.06 267.038C188.923 266.321 189.982 265.983 190.544 266.887C191.11 267.791 192.576 267.64 193.256 266.887C193.931 266.134 195.251 267.567 195.817 267.51C196.383 267.453 197.173 267.339 197.999 266.435C198.826 265.531 200.031 267.261 200.296 267.339C200.56 267.412 201.2 268.092 202.405 266.736C203.61 265.38 204.551 267.302 204.966 267.339C205.382 267.375 205.606 267.864 206.587 266.773C207.564 265.682 208.733 266.659 209.111 266.924C209.486 267.188 210.956 267.225 211.485 266.622L208.586 263.385L183.768 263.654Z" fill="#9ACD79"/>
<path id="Vector_106" d="M201.021 267.872C200.699 267.872 200.459 267.746 200.304 267.669C200.267 267.648 200.239 267.632 200.215 267.624C200.08 267.583 199.962 267.469 199.746 267.261C199.441 266.96 198.928 266.472 198.533 266.472C198.46 266.472 198.346 266.492 198.211 266.638C197.275 267.66 196.342 267.754 195.841 267.807C195.536 267.836 195.198 267.64 194.807 267.412C194.18 267.05 193.72 266.809 193.467 267.09C193.024 267.583 192.287 267.864 191.594 267.803C191.028 267.754 190.564 267.485 190.295 267.054C190.153 266.822 189.97 266.691 189.746 266.655C189.343 266.59 188.797 266.814 188.243 267.274C187.225 268.116 185.922 267.29 185.865 267.257L185.829 267.229C185.784 267.188 184.737 266.26 183.968 266.997C182.852 268.072 180.926 267.086 180.845 267.046L180.511 266.875L183.634 263.373L208.708 263.108L211.868 266.638L211.697 266.834C211.058 267.563 209.413 267.514 208.936 267.184L208.843 267.119C208.163 266.626 207.446 266.268 206.799 266.989C205.972 267.913 205.549 267.86 205.117 267.701C205.048 267.677 204.987 267.652 204.938 267.648C204.718 267.628 204.543 267.453 204.299 267.209C204.009 266.919 203.651 266.561 203.289 266.561C203.285 266.561 203.277 266.561 203.272 266.561C203.065 266.569 202.845 266.695 202.625 266.948C201.969 267.673 201.428 267.872 201.021 267.872ZM200.402 267.074C200.459 267.095 200.516 267.123 200.573 267.152C200.866 267.302 201.31 267.534 202.185 266.549C202.519 266.174 202.877 265.979 203.252 265.967C203.871 265.95 204.356 266.431 204.71 266.781C204.812 266.883 204.95 267.021 205.011 267.054C205.129 267.066 205.231 267.103 205.321 267.135C205.54 267.217 205.736 267.286 206.367 266.581C207.454 265.368 208.761 266.317 209.189 266.626L209.274 266.687C209.507 266.85 210.524 266.899 211.058 266.594L208.452 263.682L183.903 263.943L181.472 266.671C181.997 266.866 182.986 267.127 183.569 266.569C184.485 265.686 185.682 266.305 186.203 266.769C186.338 266.846 187.237 267.343 187.877 266.818C188.569 266.244 189.269 265.979 189.843 266.073C190.234 266.138 190.564 266.366 190.796 266.736C191.028 267.107 191.431 267.196 191.651 267.217C192.16 267.261 192.722 267.054 193.04 266.695C193.626 266.044 194.481 266.541 195.104 266.903C195.332 267.033 195.674 267.237 195.784 267.221C196.399 267.16 197.059 267.029 197.784 266.239C197.991 266.011 198.24 265.893 198.517 265.885C198.525 265.885 198.537 265.885 198.545 265.885C199.172 265.885 199.763 266.459 200.153 266.842C200.247 266.932 200.357 267.042 200.402 267.074Z" fill="#7A2E56"/>
</g>
<g id="Group_60">
<path id="Vector_107" d="M210.17 264.073L182.31 264.301C181.032 264.314 180.095 263.092 180.454 261.867C180.494 261.724 180.539 261.582 180.584 261.439H180.893C182.066 257.856 184.46 254.79 187.681 252.775L187.526 252.526L192.136 250.543L192.209 250.824C193.528 250.486 194.888 250.315 196.265 250.315C196.835 250.315 197.401 250.344 197.963 250.401C197.808 250.266 197.617 250.177 197.433 250.063C204.303 250.543 210.007 255.238 211.986 261.577C212.365 262.803 211.461 264.061 210.17 264.073Z" fill="#FAB36E"/>
<path id="Vector_108" d="M211.933 263.463C211.518 264.033 210.878 264.362 210.17 264.366L182.31 264.594H182.294C181.593 264.594 180.95 264.277 180.531 263.715C180.107 263.153 179.977 262.453 180.172 261.785C180.209 261.667 180.242 261.553 180.278 261.439H180.893C180.836 261.61 180.783 261.777 180.734 261.948C180.592 262.437 180.689 262.954 180.995 263.361C181.308 263.776 181.781 264.004 182.306 264.008L210.17 263.78C210.687 263.776 211.159 263.532 211.461 263.116C211.77 262.693 211.856 262.164 211.701 261.659C209.75 255.417 204.351 251.056 197.958 250.397C197.804 250.262 197.612 250.173 197.429 250.059C197.254 249.949 197.071 249.843 196.883 249.737C203.997 249.994 210.125 254.647 212.259 261.488C212.47 262.168 212.352 262.888 211.933 263.463Z" fill="#7A2E56"/>
</g>
<path id="Vector_109" d="M189.835 251.317C190.205 251.158 190.584 251.016 190.967 250.885" stroke="#7A2E56" stroke-width="2" stroke-miterlimit="10" stroke-linecap="round"/>
<path id="Vector_110" d="M187.526 252.522C184.272 254.562 181.78 257.709 180.583 261.435H180.278C181.475 257.644 183.979 254.399 187.371 252.274L187.526 252.522Z" fill="#7A2E56"/>
<path id="Vector_111" d="M187.681 252.771C184.46 254.786 182.066 257.852 180.893 261.435H180.584C181.781 257.705 184.273 254.562 187.526 252.522L187.681 252.771Z" fill="#7A2E56"/>
<path id="Vector_112" d="M197.958 250.397C197.396 250.34 196.83 250.311 196.26 250.311C194.888 250.311 193.524 250.482 192.205 250.82L192.131 250.539C193.451 250.197 194.831 250.018 196.26 250.018C196.651 250.018 197.042 250.034 197.429 250.059C197.612 250.173 197.803 250.262 197.958 250.397Z" fill="#7A2E56"/>
<path id="Vector_113" d="M197.429 250.059C197.042 250.034 196.651 250.018 196.26 250.018C194.835 250.018 193.451 250.197 192.131 250.539L192.058 250.258C193.422 249.904 194.835 249.729 196.26 249.729C196.468 249.729 196.676 249.733 196.883 249.741C197.071 249.843 197.254 249.949 197.429 250.059Z" fill="#7A2E56"/>
<path id="Vector_114" d="M201.313 261.439H180.893C182.066 257.856 184.46 254.79 187.681 252.775L187.526 252.526L192.135 250.543L192.209 250.824C193.528 250.486 194.888 250.315 196.264 250.315C196.834 250.315 197.4 250.344 197.962 250.401C201.085 253.108 202.628 256.309 203.378 258.568C203.846 259.977 202.799 261.439 201.313 261.439Z" fill="#FDD7B4"/>
<g id="Group_61">
<path id="Vector_115" d="M195.605 254.155C195.548 254.155 195.487 254.139 195.438 254.102L194.261 253.267C194.131 253.174 194.098 252.99 194.192 252.86C194.286 252.73 194.469 252.697 194.599 252.791L195.776 253.626C195.906 253.719 195.939 253.902 195.845 254.033C195.784 254.11 195.694 254.155 195.605 254.155Z" fill="#7A2E56"/>
</g>
<g id="Group_62">
<path id="Vector_116" d="M186.854 260.8C186.785 260.8 186.716 260.775 186.659 260.726L185.958 260.095C185.84 259.985 185.828 259.802 185.938 259.684C186.048 259.566 186.231 259.554 186.349 259.664L187.049 260.295C187.168 260.405 187.18 260.588 187.07 260.706C187.013 260.767 186.935 260.8 186.854 260.8Z" fill="#7A2E56"/>
</g>
<g id="Group_63">
<path id="Vector_117" d="M192.168 258.788C192.07 258.788 191.973 258.735 191.916 258.646C191.834 258.507 191.879 258.328 192.017 258.247L193.125 257.591C193.263 257.51 193.443 257.555 193.524 257.693C193.605 257.832 193.561 258.011 193.422 258.092L192.315 258.748C192.27 258.776 192.217 258.788 192.168 258.788Z" fill="#7A2E56"/>
</g>
<g id="Group_64">
<path id="Vector_118" d="M200.287 258.788C200.202 258.788 200.12 258.752 200.063 258.682L199.522 258.027C199.42 257.905 199.436 257.718 199.562 257.616C199.684 257.514 199.872 257.53 199.974 257.656L200.515 258.312C200.617 258.434 200.601 258.621 200.474 258.723C200.417 258.768 200.352 258.788 200.287 258.788Z" fill="#7A2E56"/>
</g>
<g id="Group_65">
<path id="Vector_119" d="M201.598 254.766C201.509 254.766 201.419 254.725 201.362 254.643C201.269 254.513 201.301 254.33 201.431 254.236L202.291 253.626C202.421 253.532 202.604 253.564 202.698 253.695C202.791 253.825 202.759 254.008 202.629 254.102L201.769 254.713C201.717 254.745 201.655 254.766 201.598 254.766Z" fill="#7A2E56"/>
</g>
<g id="Group_66">
<path id="Vector_120" d="M197.005 262.021H196.374C196.211 262.021 196.081 261.891 196.081 261.728C196.081 261.565 196.211 261.435 196.374 261.435H197.005C197.168 261.435 197.298 261.565 197.298 261.728C197.298 261.891 197.168 262.021 197.005 262.021Z" fill="#7A2E56"/>
</g>
</g>
<g id="Group_67">
<path id="Vector_121" d="M180.254 128.386C167.411 132.373 176.951 143.398 175.709 155.007C174.761 163.915 146.563 168.728 154.511 184.514C162.459 200.299 177.603 200.552 185.551 198.659C193.499 196.765 197.665 197.775 200.312 202.698C202.962 207.616 213.309 214.811 223.782 193.992C234.255 173.174 209.522 119.303 180.254 128.386Z" fill="#D6F2D6"/>
<g id="Group_68">
<path id="Vector_122" d="M179.948 164.347C179.948 164.347 179.586 162.12 181.398 161.448C181.398 161.448 179.586 159.453 181.398 157.771C183.568 155.76 185.592 158.806 185.592 158.806C185.592 158.806 187.819 156.525 189.216 159.453" fill="white"/>
<path id="Vector_123" d="M179.948 164.656C179.797 164.656 179.667 164.551 179.643 164.396C179.517 163.61 179.643 162.051 180.913 161.33C180.294 160.442 179.773 158.858 181.19 157.543C181.821 156.957 182.513 156.7 183.23 156.79C184.362 156.924 185.254 157.869 185.645 158.354C186.044 158.036 186.83 157.535 187.693 157.678C188.43 157.8 189.041 158.354 189.505 159.323C189.578 159.477 189.513 159.665 189.358 159.738C189.203 159.811 189.016 159.746 188.943 159.591C188.572 158.818 188.116 158.378 187.591 158.292C186.711 158.15 185.828 159.017 185.82 159.025L185.551 159.298L185.339 158.981C185.331 158.964 184.37 157.551 183.157 157.409C182.627 157.344 182.106 157.543 181.614 158.003C180.046 159.461 181.569 161.171 181.634 161.244L181.943 161.582L181.512 161.741C179.964 162.315 180.245 164.221 180.262 164.302C180.29 164.469 180.172 164.632 180.005 164.656C179.981 164.652 179.964 164.656 179.948 164.656Z" fill="#7C3157"/>
</g>
<path id="Vector_124" d="M180.803 165.719C180.803 165.719 180.653 162.368 183.023 162.393C183.023 162.393 182.823 159.852 185.787 160.471C185.787 160.471 189.786 158.867 190.723 162.413C191.659 165.959 182.322 165.072 182.322 165.072" fill="#9BD179"/>
<g id="Group_69">
<path id="Vector_125" d="M193.829 163.594C193.801 163.594 193.768 163.59 193.74 163.582C193.577 163.533 193.483 163.362 193.532 163.195C193.565 163.081 194.33 160.365 191.354 159.437C190.564 159.188 189.867 159.241 189.281 159.587C188.015 160.332 187.611 162.213 187.607 162.234C187.575 162.401 187.408 162.511 187.241 162.474C187.074 162.441 186.964 162.275 187.001 162.108C187.017 162.018 187.457 159.942 188.963 159.054C189.709 158.614 190.576 158.545 191.541 158.846C195.108 159.962 194.139 163.341 194.126 163.374C194.086 163.508 193.96 163.594 193.829 163.594Z" fill="#7C3157"/>
</g>
<path id="Vector_126" d="M183.417 152.747C183.903 152.747 184.297 152.353 184.297 151.868C184.297 151.382 183.903 150.988 183.417 150.988C182.931 150.988 182.538 151.382 182.538 151.868C182.538 152.353 182.931 152.747 183.417 152.747Z" fill="#7C3157"/>
<path id="Vector_127" d="M191.773 152.747C192.258 152.747 192.652 152.353 192.652 151.868C192.652 151.382 192.258 150.988 191.773 150.988C191.287 150.988 190.893 151.382 190.893 151.868C190.893 152.353 191.287 152.747 191.773 152.747Z" fill="#7C3157"/>
<path id="Vector_128" d="M196.9 146.269C197.385 146.269 197.779 145.875 197.779 145.39C197.779 144.904 197.385 144.51 196.9 144.51C196.414 144.51 196.02 144.904 196.02 145.39C196.02 145.875 196.414 146.269 196.9 146.269Z" fill="#7C3157"/>
<path id="Vector_129" d="M191.749 165.532C191.749 165.532 194.497 163.92 196.256 166.709" stroke="black" stroke-miterlimit="10" stroke-linecap="round"/>
<g id="Group_70">
<path id="Vector_130" d="M198.487 165.511L202.628 159.143L204.546 160.165C204.546 160.165 210.137 158.264 209.412 165.255L210.345 166.603L205.271 170.173L198.487 165.511Z" fill="#9BD179"/>
<path id="Vector_131" d="M205.275 170.548L198.064 165.593L202.527 158.732L204.579 159.827C205.1 159.677 207.018 159.237 208.398 160.336C209.506 161.22 209.954 162.845 209.734 165.169L210.776 166.676L205.275 170.548ZM198.911 165.426L205.267 169.795L209.913 166.521L209.09 165.332L209.103 165.218C209.327 163.06 208.96 161.582 208.011 160.825C206.704 159.779 204.66 160.45 204.64 160.455L204.514 160.495L202.73 159.547L198.911 165.426Z" fill="#7C3157"/>
</g>
<g id="Group_71">
<path id="Vector_132" d="M201.79 168.089C201.712 168.089 201.635 168.06 201.574 168.003C201.452 167.885 201.447 167.69 201.566 167.564L205.878 163.069C205.996 162.946 206.191 162.942 206.317 163.06C206.44 163.178 206.444 163.374 206.326 163.5L202.013 167.995C201.952 168.056 201.871 168.089 201.79 168.089Z" fill="#7C3157"/>
</g>
<g id="Group_72">
<path id="Vector_133" d="M202.026 151.582C202.026 151.582 194.913 152.307 198.02 159.453C198.02 159.453 205.703 159.013 202.026 151.582Z" fill="#9BD179"/>
<path id="Vector_134" d="M197.824 159.775L197.738 159.575C196.733 157.266 196.659 155.349 197.523 153.879C198.846 151.615 201.871 151.285 202.002 151.269L202.217 151.249L202.315 151.44C203.496 153.826 203.659 155.78 202.808 157.25C201.476 159.538 198.186 159.75 198.048 159.758L197.824 159.775ZM201.847 151.92C201.167 152.038 199.029 152.527 198.052 154.196C197.323 155.442 197.38 157.1 198.215 159.119C198.936 159.034 201.277 158.626 202.258 156.937C202.983 155.703 202.84 154.013 201.847 151.92Z" fill="#7C3157"/>
</g>
<path id="Vector_135" d="M175.693 168.211H212.853C213.521 168.211 214.026 168.801 213.928 169.461C213.399 173.04 211.069 183.247 201.537 185.943H186.402C186.402 185.943 175.489 182.763 174.606 169.38C174.561 168.753 175.062 168.211 175.693 168.211Z" fill="white" stroke="#7C3157" stroke-miterlimit="10"/>
<g id="Group_73">
<path id="Vector_136" d="M210.349 174.465L207.331 179.746C207.331 179.746 202.913 180.133 202.787 182.857C202.787 182.857 199.057 181.769 197.815 184.514H189.839C189.839 184.514 189.472 183.956 188.788 183.516C188.886 183.459 188.992 183.406 189.093 183.349C189.049 183.317 189.008 183.288 188.963 183.256C188.149 182.722 186.842 182.295 185.16 183.211C182.863 181.342 180.457 179.221 180.213 178.748C180.388 177.755 180.237 175.882 178.511 175.247L177.375 173.105C178.14 172.714 180.062 171.57 180.156 169.823V169.803H179.846L179.158 169.445C179.227 169.371 179.301 169.29 179.382 169.209L179.036 169.029C179.309 168.284 180.282 165.996 182.318 165.076C183.682 164.469 185.278 164.587 187.066 165.43L187.432 165.605L187.501 165.202C187.522 165.121 187.888 163.154 190.954 163.439L191.321 163.472L191.288 163.105C191.288 163.093 191.215 162.026 191.964 161.261C192.546 160.67 193.483 160.41 194.737 160.491C195.967 160.564 196.818 161.049 197.245 161.912C197.253 161.912 197.253 161.912 197.253 161.912C197.376 161.933 197.502 161.949 197.624 161.969C198.153 163.223 197.815 164.677 197.815 164.677C197.815 164.677 201.228 163.598 201.749 166.656C201.749 166.656 206.15 165.096 206.256 168.003C206.354 170.902 207.547 173.435 207.547 173.435C207.547 173.435 210.088 173.382 210.349 174.465Z" fill="#9BD179"/>
<path id="Vector_137" d="M210.654 174.392C210.382 173.268 208.439 173.134 207.755 173.117C207.487 172.498 206.652 170.357 206.57 167.983C206.546 167.25 206.265 166.696 205.752 166.346C204.648 165.597 202.755 166.029 201.985 166.253C201.794 165.507 201.403 164.954 200.825 164.604C199.929 164.058 198.822 164.152 198.199 164.261C198.26 163.704 198.284 162.735 197.914 161.839C197.559 161.008 196.729 159.99 194.778 159.864C193.333 159.77 192.241 160.092 191.525 160.821C190.861 161.493 190.706 162.323 190.674 162.796C188.137 162.686 187.278 164.038 187.005 164.722C185.181 163.932 183.515 163.858 182.066 164.51C179.37 165.719 178.397 168.96 178.36 169.099L178.287 169.339L179.521 169.986C179.252 171.623 176.854 172.669 176.825 172.682L176.516 172.812L178.079 175.76L178.202 175.805C180.026 176.387 179.61 178.618 179.59 178.708L179.578 178.765L179.59 178.822C179.7 179.53 183.365 182.559 184.932 183.83L185.099 183.968L185.287 183.858C186.781 182.962 187.925 183.325 188.622 183.785C189.236 184.184 189.578 184.693 189.578 184.693L189.672 184.835H198.015L198.097 184.656C199.212 182.193 202.56 183.121 202.702 183.166L203.081 183.276L203.101 182.877C203.211 180.454 207.324 180.063 207.36 180.063L207.523 180.051L210.683 174.522L210.654 174.392ZM185.128 183.585C185.128 183.585 180.001 179.441 179.896 178.769C179.896 178.769 180.417 176.179 178.295 175.503L176.947 172.967C176.947 172.967 179.741 171.782 179.847 169.807H180.156L180.168 169.628L179.378 169.213C179.297 169.294 179.224 169.375 179.154 169.449L178.654 169.188C178.654 169.188 180.726 162.087 187.196 165.153C187.196 165.153 187.563 162.82 190.975 163.13C190.975 163.13 190.719 159.921 194.754 160.182C196.431 160.288 197.242 161.082 197.62 161.969C197.498 161.949 197.372 161.933 197.25 161.912C197.286 161.969 197.311 162.022 197.335 162.087C197.812 163.227 197.515 164.595 197.51 164.608L197.392 165.137L197.909 164.974C197.922 164.966 199.457 164.498 200.499 165.137C201 165.446 201.326 165.976 201.448 166.709L201.509 167.075L201.855 166.953C202.527 166.717 204.469 166.24 205.398 166.871C205.744 167.108 205.927 167.486 205.943 168.02C206.041 170.951 207.214 173.463 207.267 173.569L207.352 173.757L207.552 173.748C208.26 173.736 209.718 173.891 210.003 174.445L207.136 179.465C206.334 179.563 202.942 180.116 202.519 182.486C201.533 182.295 198.777 181.985 197.62 184.212H189.994C189.843 184.021 189.546 183.671 189.094 183.357C188.996 183.414 188.89 183.467 188.788 183.524C187.982 182.983 186.732 182.629 185.128 183.585Z" fill="#7C3157"/>
</g>
<path id="Vector_138" d="M197.624 161.965C197.502 161.945 197.376 161.928 197.254 161.908C197.254 161.908 197.254 161.908 197.246 161.908C196.818 161.045 195.967 160.56 194.737 160.487C193.483 160.406 192.547 160.666 191.964 161.257C191.215 162.018 191.288 163.089 191.288 163.101L191.321 163.468L190.955 163.435C187.888 163.15 187.522 165.117 187.502 165.198L187.432 165.601L187.066 165.426C185.278 164.583 183.682 164.465 182.318 165.072C180.282 165.992 179.309 168.28 179.036 169.025L179.382 169.204C179.301 169.286 179.228 169.367 179.158 169.441L178.657 169.18C178.657 169.18 180.73 162.079 187.2 165.145C187.2 165.145 187.567 162.812 190.979 163.121C190.979 163.121 190.722 159.913 194.758 160.174C196.431 160.284 197.246 161.078 197.624 161.965Z" fill="#7C3157"/>
<path id="Vector_139" d="M197.246 161.908C192.559 161.306 191.79 164.832 191.79 164.832C189.424 164.31 188.443 166.676 188.443 166.676C184.595 164.604 181.06 167.441 179.379 169.208L179.032 169.029C179.305 168.284 180.278 165.996 182.314 165.076C183.678 164.469 185.275 164.587 187.062 165.43L187.429 165.605L187.498 165.202C187.518 165.121 187.885 163.154 190.951 163.439L191.317 163.472L191.285 163.105C191.285 163.093 191.211 162.026 191.961 161.261C192.543 160.67 193.48 160.41 194.734 160.491C195.967 160.564 196.818 161.049 197.246 161.908Z" fill="white"/>
<path id="Vector_140" d="M189.094 183.349C188.996 183.406 188.89 183.459 188.789 183.516C187.982 182.983 186.728 182.629 185.128 183.585C185.128 183.585 180.001 179.441 179.896 178.769C179.896 178.769 180.417 176.179 178.295 175.503L176.948 172.967C176.948 172.967 179.741 171.782 179.847 169.807H180.156V169.827C180.062 171.578 178.141 172.718 177.375 173.109L178.511 175.251C180.238 175.882 180.384 177.759 180.213 178.752C180.453 179.225 182.864 181.346 185.16 183.215C186.842 182.295 188.153 182.726 188.964 183.26C189.008 183.284 189.053 183.317 189.094 183.349Z" fill="#7C3157"/>
<path id="Vector_141" d="M189.093 183.349C189.049 183.317 189.008 183.288 188.963 183.256C188.149 182.722 186.842 182.295 185.16 183.211C182.863 181.342 180.457 179.221 180.213 178.748C180.388 177.755 180.237 175.882 178.511 175.247L177.375 173.105C178.14 172.714 180.062 171.57 180.156 169.823V169.803H198.776C198.776 169.807 200.144 177.254 189.093 183.349Z" fill="#C1E3AE"/>
<path id="Vector_142" d="M207.445 168.541H177.9V170.133H207.445V168.541Z" fill="white"/>
<g id="Group_74">
<path id="Vector_143" d="M184.362 175.548C184.24 175.548 184.122 175.475 184.073 175.353C183.625 174.245 182.9 173.472 181.923 173.06C179.781 172.156 177.085 173.239 177.061 173.252C176.906 173.317 176.723 173.239 176.658 173.081C176.593 172.922 176.67 172.743 176.829 172.678C176.947 172.629 179.785 171.485 182.167 172.486C183.303 172.963 184.142 173.85 184.655 175.121C184.72 175.279 184.643 175.459 184.484 175.524C184.439 175.544 184.403 175.548 184.362 175.548Z" fill="#7C3157"/>
</g>
<g id="Group_75">
<path id="Vector_144" d="M201.789 176.733C201.748 176.733 201.708 176.725 201.671 176.708C201.512 176.643 201.435 176.464 201.5 176.305C201.516 176.269 203.019 172.71 207.575 173.125C207.746 173.142 207.872 173.292 207.856 173.463C207.84 173.634 207.689 173.761 207.518 173.744C203.426 173.366 202.127 176.411 202.074 176.542C202.025 176.66 201.911 176.733 201.789 176.733Z" fill="#7C3157"/>
</g>
<path id="Vector_145" d="M192.501 172.559L186.903 176.419C186.581 175.902 186.402 175.296 186.402 174.652C186.402 172.771 187.929 171.244 189.81 171.244C190.901 171.244 191.874 171.761 192.501 172.559Z" fill="#FC887B" stroke="#7C3157" stroke-miterlimit="10"/>
<path id="Vector_146" d="M199.094 179.778L192.82 177.16C193.076 176.611 193.491 176.13 194.033 175.78C195.613 174.762 197.726 175.218 198.744 176.802C199.335 177.722 199.428 178.818 199.094 179.778Z" fill="#FC887B" stroke="#7C3157" stroke-miterlimit="10"/>
</g>
</g>
<g id="Group_76">
<path id="Vector_147" d="M204.766 337.843C204.766 339.879 175.779 338.568 175.779 338.568C175.779 338.568 175.257 336.275 175.457 333.869C175.603 332.179 176.104 330.437 177.395 329.39C180.526 326.85 185.718 329.39 185.718 329.39C185.718 329.39 194.664 334.728 196.989 334.02C199.31 333.315 204.766 335.807 204.766 337.843Z" fill="#FFA16D"/>
<path id="Vector_148" d="M204.766 337.843C204.766 339.879 175.779 338.568 175.779 338.568C175.779 338.568 175.257 336.275 175.457 333.869C180.624 334.549 195.246 336.259 196.989 334.02C199.31 333.315 204.766 335.807 204.766 337.843Z" fill="#38323F"/>
<path id="Vector_149" d="M120.124 337.843L92.0448 338.364C92.0448 338.364 91.0268 336.829 91.9185 332.961C92.2117 331.666 92.7248 330.111 93.5595 328.262C97.9612 328.926 106.048 330.644 112.152 332.819C116.439 334.341 119.75 336.088 120.124 337.843Z" fill="#FFA16D"/>
<path id="Vector_150" d="M120.124 337.843L92.0448 338.364C92.0448 338.364 91.0268 336.829 91.9185 332.961C97.4644 334.17 109.542 336.32 112.152 332.819C116.439 334.341 119.75 336.088 120.124 337.843Z" fill="#38323F"/>
<path id="Vector_151" d="M21.5156 338.25L38.8414 290.246H52.5596L27.1104 338.25H21.5156Z" fill="#8A3E24"/>
<path id="Vector_152" d="M136.847 338.25L119.521 290.246H105.803L131.252 338.25H136.847Z" fill="#8A3E24"/>
<path id="Vector_153" d="M124.42 295.144H32.8921C32.8921 294.04 32.9857 293.014 33.1608 292.062C35.4737 279.224 52.2335 279.586 52.2335 279.586H115.168C122.579 284.554 124.424 289.171 124.717 292.062C124.912 293.983 124.42 295.144 124.42 295.144Z" fill="#FEC56E"/>
<path id="Vector_154" d="M124.42 295.144H32.8921C32.8921 294.04 32.9857 293.014 33.1608 292.062H124.717C124.912 293.983 124.42 295.144 124.42 295.144Z" fill="#A6462D"/>
<g id="Group_77">
<path id="Vector_155" d="M53.9435 176.045C53.7277 175.805 48.6827 170.112 49.2731 163.834C49.5622 160.756 51.1625 158.085 54.0291 155.902C55.6049 154.701 57.0341 153.643 58.2964 152.71C65.2878 147.535 67.906 145.601 69.5917 138.537L70.7807 138.822C68.9891 146.318 66.0736 148.48 59.0212 153.696C57.763 154.624 56.3378 155.679 54.7701 156.876C52.1886 158.846 50.7471 161.224 50.4906 163.948C49.949 169.689 54.8068 175.178 54.8556 175.231L53.9435 176.045Z" fill="#CE2A0B"/>
</g>
<path id="Vector_156" d="M101.051 329.39C101.051 329.39 128.186 300.413 145.659 296.435C163.131 292.457 141.396 275.128 141.396 275.128L106.451 280.527C106.451 280.527 84.711 304.961 93.38 329.39C101.051 329.39 101.051 329.39 101.051 329.39Z" fill="#9965D9"/>
<path id="Vector_157" d="M185.718 329.39H176.059C176.059 329.39 153.9 306.235 145.944 298.849C137.987 291.459 142.25 285.067 140.117 283.222C137.987 281.374 129.322 282.937 89.4016 282.229C60.8944 281.72 48.4712 264.696 43.6989 255.002C41.7851 251.121 41.1011 248.418 41.1011 248.418C41.1011 248.418 65.7196 243.385 86.8037 239.033C95.9817 237.144 104.488 235.381 110.001 234.216C128.186 230.381 166.258 251.83 169.524 258.222C172.793 264.615 185.718 329.39 185.718 329.39Z" fill="#B184E2"/>
<path id="Vector_158" d="M92.94 248.051C89.5197 259.994 65.7644 260.718 64.3433 258.548C62.9181 256.374 54.2654 254.741 52.5593 254.928C51.7327 255.022 47.6649 255.022 43.6989 255.002C41.7851 251.121 41.1011 248.418 41.1011 248.418C41.1011 248.418 65.7196 243.385 86.8037 239.033C91.1891 242.013 93.787 245.099 92.94 248.051Z" fill="#9965D9"/>
<path id="Vector_159" d="M40.2214 227.718C40.2214 227.718 30.7136 249.31 41.504 251.17C52.2945 253.031 52.6365 249.603 61.8023 254.399C70.9681 259.195 88.0088 255.857 93.062 249.945C98.1193 244.037 40.2214 227.718 40.2214 227.718Z" fill="#FFA16D"/>
<path id="Vector_160" d="M170.22 167.03C170.22 167.03 172.692 174.355 162.809 176.627C162.809 176.627 156.983 214.469 148.09 219.607C139.197 224.741 112.518 218.32 112.518 218.32C112.518 218.32 109.948 222.274 106.984 223.064L106.785 227.722C106.785 227.722 110.938 226.126 111.231 229.684C111.231 229.684 112.713 233.438 114.888 233.736C114.888 233.736 109.354 253.593 87.0238 250.926C64.6937 248.259 38.0148 239.762 39.1997 228.3C39.6639 224.363 39.7657 223.5 39.7861 223.312C39.7902 223.296 39.7902 223.276 39.7942 223.259C39.7942 223.259 27.6397 224.644 28.8287 215.059C30.0136 205.479 32.6807 191.053 52.4415 176.822L52.246 175.54C52.246 175.54 59.7545 168.13 73.3912 171.094C73.3912 171.094 74.3115 181.273 99.1458 174.652C100.815 175.442 102.737 176.232 106.687 176.428C110.641 176.627 116.765 179.591 117.852 182.95C117.852 182.95 128.622 189.668 136.033 187.889C136.033 187.889 152.337 175.54 155.203 173.663C155.203 173.663 152.141 159.73 157.968 160.719C159.947 160.67 160.142 161.314 163.998 157.755C167.85 154.196 171.405 151.53 171.307 153.109C171.21 154.669 167.667 160.723 167.557 160.911C167.663 160.878 169.414 160.328 168.84 163.683C168.84 163.683 170.615 164.253 170.22 167.03Z" fill="#FEE146"/>
<path id="Vector_161" d="M55.8985 184.335C55.8985 184.335 43.6462 200.34 39.7942 223.259C39.7942 223.259 27.6397 224.644 28.8287 215.059C30.0136 205.479 32.6807 191.053 52.4415 176.822L55.8985 184.335Z" fill="#FEAF7A"/>
<path id="Vector_162" d="M170.22 167.026C170.22 167.026 172.692 174.351 162.809 176.623C162.809 176.623 156.982 214.465 148.089 219.603C139.196 224.737 112.517 218.316 112.517 218.316L110.449 217.612C107.387 220.413 104.398 221.716 101.629 221.908C90.1018 222.722 82.3205 204.416 88.4201 195.67C95.9897 184.823 117.852 182.946 117.852 182.946C117.852 182.946 128.622 189.664 136.032 187.885C136.032 187.885 152.336 175.536 155.203 173.659C155.203 173.659 152.141 159.726 157.968 160.715C159.947 160.666 160.142 161.31 163.998 157.751C167.85 154.192 171.405 151.525 171.307 153.105C171.209 154.665 167.667 160.719 167.557 160.906C167.663 160.874 169.414 160.324 168.84 163.679C168.84 163.679 170.615 164.249 170.22 167.026Z" fill="#FFA16D"/>
<path id="Vector_163" d="M101.629 221.908C90.1018 222.722 82.3205 204.416 88.4201 195.67C95.9897 184.823 117.852 182.946 117.852 182.946C80.5003 192.234 88.0659 206.342 90.4235 211.712C92.0644 215.458 96.6005 219.338 101.629 221.908Z" fill="#FC8A4B"/>
<path id="Vector_164" d="M107.098 127.173C97.1872 115.129 89.186 129.836 85.1874 129.836C81.1889 129.836 69.6451 130.133 67.8657 143.158C66.0863 156.183 59.4044 155.113 57.2096 157.828C55.0149 160.544 52.5107 166.183 57.7308 174.017H63.0568C63.0568 174.017 59.5061 165.556 66.1922 159.604C66.1922 159.604 62.5356 169.42 65.8786 174.017H77.7848L78.2042 170.78L79.1448 174.017H80.5007C80.5007 174.017 79.1448 169.734 80.8672 168.378C80.8672 168.378 82.5896 172.242 82.276 174.017H96.6905L105.779 144.144C105.783 144.148 112.383 133.59 107.098 127.173Z" fill="#EC401D"/>
<path id="Vector_165" d="M105.282 141.876C105.282 141.876 101.231 144.856 100.278 145.451C99.3251 146.045 95.8681 149.144 95.9291 153.317C95.9291 153.317 93.3679 149.323 90.029 151.888C86.6901 154.449 90.6235 158.858 92.2359 158.561C93.8484 158.264 71.7952 173.875 71.7952 173.875C71.7952 173.875 81.6857 182.694 99.15 174.648C99.15 174.648 97.0652 171.489 98.9097 169.644C100.754 167.8 107.909 168.394 107.192 156.118C107.192 156.118 109.635 154.034 109.456 153.138C109.277 152.242 106.357 150.28 106.357 150.28L106.06 143.785C106.06 143.785 105.522 145.096 105.107 145.035C104.692 144.974 105.282 141.876 105.282 141.876Z" fill="#FFA16D"/>
<path id="Vector_166" d="M91.3766 158.757H67.7435C67.7435 158.757 62.5804 162.682 64.9787 174.318H77.2717L77.5608 170.32C77.5608 170.32 77.8906 173.455 78.2163 174.318H79.9672C79.9958 173.182 80.1342 169.066 80.7613 168.5C80.7613 168.5 81.1684 173.463 81.7874 174.318H91.3766C91.3766 174.314 97.9934 168.353 91.3766 158.757Z" fill="#EC401D"/>
<g id="Group_78">
<path id="Vector_167" d="M110.449 218.023C110.413 218.023 110.376 218.019 110.339 218.007C105.954 216.785 98.7997 212.649 98.4983 212.474C98.3029 212.36 98.2377 212.111 98.3518 211.916C98.4658 211.72 98.7142 211.655 98.9096 211.769C98.9829 211.81 106.276 216.032 110.559 217.221C110.775 217.282 110.901 217.506 110.844 217.722C110.791 217.905 110.628 218.023 110.449 218.023Z" fill="#E87942"/>
</g>
<g id="Group_79">
<path id="Vector_168" d="M98.7065 215.275C98.5477 215.275 98.397 215.181 98.3319 215.027C98.2423 214.819 98.34 214.579 98.5477 214.493L101.361 213.296C101.565 213.211 101.805 213.304 101.895 213.512C101.984 213.72 101.887 213.96 101.679 214.045L98.8653 215.242C98.8123 215.267 98.7594 215.275 98.7065 215.275Z" fill="#E87942"/>
</g>
<g id="Group_80">
<path id="Vector_169" d="M131.203 194.827C131.134 194.827 131.065 194.811 131.004 194.774C130.808 194.664 130.739 194.416 130.849 194.221C130.967 194.013 133.781 189.082 135.788 187.563C135.967 187.429 136.224 187.462 136.358 187.641C136.493 187.82 136.46 188.076 136.281 188.211C134.408 189.628 131.586 194.571 131.558 194.62C131.484 194.754 131.346 194.827 131.203 194.827Z" fill="#E87942"/>
</g>
<path id="Vector_170" d="M100.811 167.877C100.811 167.877 95.0742 164.148 94.6751 158.757L93.0708 159.791C93.0667 159.787 95.3633 166.155 100.811 167.877Z" fill="#E87942"/>
<path id="Vector_171" d="M105.319 145.846C105.319 145.846 102.839 144.986 100.815 149.009C100.815 149.009 103.067 146.607 104.964 146.68L105.319 145.846Z" fill="#A54838"/>
<g id="Group_81">
<path id="Vector_172" d="M94.5202 155.222C94.4428 155.222 94.3654 155.178 94.3329 155.1C93.8646 154.034 91.507 153.956 90.6397 154.017C90.5297 154.029 90.432 153.94 90.4239 153.83C90.4157 153.716 90.5012 153.622 90.6112 153.614C90.7496 153.602 94.0234 153.39 94.7034 154.942C94.7482 155.043 94.7034 155.165 94.5975 155.21C94.5772 155.214 94.5487 155.222 94.5202 155.222Z" fill="#E87942"/>
</g>
<g id="Group_82">
<path id="Vector_173" d="M91.9956 155.736C91.9142 155.736 91.8368 155.687 91.8083 155.605C91.7961 155.577 91.5233 154.868 91.7961 154.298C91.9305 154.017 92.1748 153.818 92.5168 153.716C92.6227 153.683 92.7367 153.745 92.7693 153.85C92.8019 153.956 92.7408 154.07 92.6349 154.103C92.4069 154.172 92.2522 154.294 92.1667 154.473C91.9712 154.881 92.187 155.451 92.187 155.455C92.2277 155.56 92.1748 155.679 92.073 155.719C92.0445 155.731 92.0201 155.736 91.9956 155.736Z" fill="#E87942"/>
</g>
<path id="Vector_174" d="M93.0669 160.121C94.144 160.121 95.0173 159.248 95.0173 158.17C95.0173 157.093 94.144 156.22 93.0669 156.22C91.9897 156.22 91.1165 157.093 91.1165 158.17C91.1165 159.248 91.9897 160.121 93.0669 160.121Z" fill="white"/>
<path id="Vector_175" d="M104.272 151.749C104.652 151.749 104.961 151.286 104.961 150.715C104.961 150.144 104.652 149.681 104.272 149.681C103.892 149.681 103.584 150.144 103.584 150.715C103.584 151.286 103.892 151.749 104.272 151.749Z" fill="black"/>
</g>
</g>
</g>
</svg>
