<svg width="436" height="425" viewBox="0 0 436 425" fill="none" xmlns="http://www.w3.org/2000/svg">
<g id="Frame 1">
<g id="Group 1">
<path id="XMLID 124" d="M319.811 155.483C310.138 161.458 332.784 226.495 343.254 225.015C349.797 224.105 357.137 196.395 344.505 175.114C337.905 163.905 324.59 152.525 319.811 155.483Z" fill="#65BDFF"/>
<path id="XMLID 179" d="M156.224 102.168C139.723 109.167 121.23 117.19 113.605 135.17C101.315 164.075 129.594 186.778 116.166 215.342C108.371 231.843 97.5027 227.234 82.0828 246.523C63.761 269.511 53.0638 308.772 69.0527 339.612C81.2293 363.168 104.103 372.443 123.563 380.352C130.277 383.083 174.716 400.495 216.993 385.929C227.121 382.458 231.218 377.45 239.867 378.304C260.806 380.466 263.935 408.404 283.054 412.956C299.099 416.768 317.763 402.031 329.541 387.237C331.874 384.278 333.979 381.32 335.743 378.475C345.985 358.73 354.236 335.913 356.398 313.04C356.91 307.293 357.081 301.603 356.796 295.913C355.715 281.346 352.756 267.178 343.823 254.262C327.777 229.51 303.367 210.107 303.253 179.268C302.57 174.602 302.115 169.765 301.66 164.872C299.327 140.291 297.336 113.946 273.039 98.2421C240.891 77.6443 203.394 85.8948 171.018 96.8196C165.669 98.4697 160.776 100.234 156.224 102.168Z" fill="#65BDFF"/>
<g id="XMLID 229">
<g id="XMLID 119">
<path id="XMLID 228" d="M25.9791 199.524L23.3048 199.866C20.8581 200.207 18.639 198.5 18.2976 196.053L14.7129 169.538C14.3715 167.091 16.0785 164.872 18.5252 164.531L21.1995 164.189C23.6462 163.848 25.8653 165.555 26.2067 168.002L29.7914 194.517C30.1328 196.964 28.4258 199.183 25.9791 199.524Z" fill="white"/>
<path id="XMLID 123" d="M13.7455 195.484C11.2988 195.826 9.07975 194.119 8.73835 191.672L6.68995 176.309C6.34855 173.862 8.05555 171.643 10.5022 171.302C12.9489 170.96 15.168 172.667 15.5094 175.114L17.5579 190.42C17.8993 192.867 16.1922 195.143 13.7455 195.484Z" fill="white"/>
<path id="XMLID 121" d="M67.8007 193.891L70.475 193.55C72.9217 193.208 74.6287 190.989 74.2873 188.542L70.7026 162.027C70.3612 159.58 68.1421 157.873 65.6954 158.215L63.021 158.556C60.5743 158.898 58.8673 161.117 59.2087 163.563L62.7935 190.079C63.1349 192.525 65.3539 194.232 67.8007 193.891Z" fill="white"/>
<path id="XMLID 120" d="M78.5546 186.722C81.0013 186.38 82.7084 184.161 82.367 181.714L80.3185 166.408C79.9771 163.962 77.758 162.255 75.3113 162.596C72.8646 162.937 71.1576 165.157 71.499 167.603L73.5474 182.909C73.8319 185.356 76.1079 187.063 78.5546 186.722Z" fill="white"/>
<path id="XMLID 223" d="M28.6584 185.792L61.6487 181.355L60.42 172.22L27.4297 176.657L28.6584 185.792Z" fill="white"/>
</g>
<g id="XMLID 115">
<path id="XMLID 118" d="M25.9791 199.524L23.3048 199.866C20.8581 200.207 18.639 198.5 18.2976 196.053L14.7129 169.538C14.3715 167.091 16.0785 164.872 18.5252 164.531L21.1995 164.189C23.6462 163.848 25.8653 165.555 26.2067 168.002L29.7914 194.517C30.1328 196.964 28.4258 199.183 25.9791 199.524Z" stroke="#4E5A7D" stroke-width="3" stroke-miterlimit="10" stroke-linecap="round" stroke-linejoin="round"/>
<path id="XMLID 200" d="M13.7455 195.484C11.2988 195.826 9.07975 194.119 8.73835 191.672L6.68995 176.309C6.34855 173.862 8.05555 171.643 10.5022 171.302C12.9489 170.96 15.168 172.667 15.5094 175.114L17.5579 190.42C17.8993 192.867 16.1922 195.143 13.7455 195.484Z" stroke="#4E5A7D" stroke-width="3" stroke-miterlimit="10" stroke-linecap="round" stroke-linejoin="round"/>
<path id="XMLID 117" d="M67.8007 193.891L70.475 193.55C72.9217 193.208 74.6287 190.989 74.2873 188.542L70.7026 162.027C70.3612 159.58 68.1421 157.873 65.6954 158.215L63.021 158.556C60.5743 158.898 58.8673 161.117 59.2087 163.563L62.7935 190.079C63.1349 192.525 65.3539 194.232 67.8007 193.891Z" stroke="#4E5A7D" stroke-width="3" stroke-miterlimit="10" stroke-linecap="round" stroke-linejoin="round"/>
<path id="XMLID 201" d="M78.5546 186.722C81.0013 186.38 82.7084 184.161 82.367 181.714L80.3185 166.408C79.9771 163.962 77.758 162.255 75.3113 162.596C72.8646 162.937 71.1576 165.157 71.499 167.603L73.5474 182.909C73.8319 185.356 76.1079 187.063 78.5546 186.722Z" stroke="#4E5A7D" stroke-width="3" stroke-miterlimit="10" stroke-linecap="round" stroke-linejoin="round"/>
<path id="XMLID 199" d="M28.6584 185.792L61.6487 181.355L60.42 172.22L27.4297 176.657L28.6584 185.792Z" stroke="#4E5A7D" stroke-width="3" stroke-miterlimit="10" stroke-linecap="round" stroke-linejoin="round"/>
</g>
</g>
<g id="XMLID 152">
<path id="XMLID 158" d="M282.826 361.917H159.58L164.189 342.172C166.579 331.93 179.211 324.477 194.005 324.477H248.401C263.195 324.477 275.827 331.987 278.217 342.172L282.826 361.917Z" fill="#E08484"/>
<path id="XMLID 131" d="M282.826 361.917H159.58L164.189 342.172C166.579 331.93 179.211 324.477 194.005 324.477H248.401C263.195 324.477 275.827 331.987 278.217 342.172L282.826 361.917Z" stroke="#4E5A7D" stroke-width="6" stroke-miterlimit="10" stroke-linecap="round" stroke-linejoin="round"/>
<path id="XMLID 109" d="M265.585 346.895H250.108C244.191 346.895 239.411 342.115 239.411 336.198V311.674H202.995V336.198C202.995 342.115 198.215 346.895 192.298 346.895H176.821C154.175 346.895 135.853 365.217 135.853 387.863V421.263H306.553V387.863C306.553 365.217 288.174 346.895 265.585 346.895Z" fill="#FBE3D5"/>
<path id="XMLID 172" d="M220.52 322.94C230.953 322.94 239.411 317.973 239.411 311.845C239.411 305.717 230.953 300.749 220.52 300.749C210.087 300.749 201.629 305.717 201.629 311.845C201.629 317.973 210.087 322.94 220.52 322.94Z" fill="#D5B6A5"/>
<path id="XMLID 175" d="M306.553 387.863V421.263H135.853V387.863C135.853 365.217 154.175 346.895 176.821 346.895H192.298C192.696 346.895 193.094 346.895 193.493 346.838C197.703 358.275 208.742 366.469 221.658 366.469C234.575 366.469 245.556 358.332 249.767 346.895C249.881 346.895 249.994 346.895 250.165 346.895H265.585C288.174 346.895 306.553 365.217 306.553 387.863Z" fill="#E08484"/>
<path id="XMLID 182" d="M205.271 389.911C189.282 389.911 176.252 376.881 176.252 360.893V346.781H267.235V360.893C267.235 376.881 254.205 389.911 238.216 389.911H205.271Z" fill="#D87171"/>
<path id="XMLID 136" d="M265.585 346.895H250.108C244.191 346.895 239.411 342.115 239.411 336.198V311.674H202.995V336.198C202.995 342.115 198.215 346.895 192.298 346.895H176.821C154.175 346.895 135.853 365.217 135.853 387.863V421.263H306.553V387.863C306.553 365.217 288.174 346.895 265.585 346.895Z" stroke="#4E5A7D" stroke-width="6" stroke-miterlimit="10" stroke-linecap="round" stroke-linejoin="round"/>
<path id="XMLID 108" d="M260.748 174.716C260.123 166.067 262.399 159.523 266.438 158.101C270.421 156.678 275.087 160.604 276.68 161.97C291.759 174.602 282.484 216.879 279.924 227.746L260.748 174.716Z" fill="#BCAFAA"/>
<path id="XMLID 150" d="M259.611 174.716C258.985 166.067 261.261 159.523 265.301 158.101C266.097 157.816 266.894 157.759 267.69 157.816" stroke="#4E5A7D" stroke-width="6" stroke-miterlimit="10" stroke-linecap="round" stroke-linejoin="round"/>
<path id="XMLID 106" d="M268.828 157.816C272.129 158.101 275.372 160.832 276.681 161.97C291.759 174.602 282.484 216.879 279.924 227.747L260.749 174.773" stroke="#4E5A7D" stroke-width="6" stroke-miterlimit="10" stroke-linecap="round" stroke-linejoin="round"/>
<path id="XMLID 105" d="M161.743 231.616V212.44C161.743 190.648 181.032 196.281 202.767 196.281L242.996 197.817C255.628 197.817 263.252 178.983 270.422 188.201C270.194 181.487 268.942 172.952 265.016 164.018C262.854 159.011 253.807 140.064 232.981 131.358C225.926 128.399 220.065 127.716 216.48 127.318C202.767 125.782 197.134 123.335 173.578 129.879C158.67 133.975 147.973 141.429 147.802 144.673C147.631 147.631 154.858 146.892 160.775 151.33C170.391 158.499 156.963 174.659 155.085 195.143C154.289 203.905 155.028 216.196 161.743 231.616Z" fill="#BCAFAA"/>
<path id="XMLID 103" d="M267.69 171.302C266.951 168.343 265.471 165.1 265.016 164.018C262.854 159.011 253.807 140.064 232.981 131.358C225.926 128.399 220.065 127.716 216.48 127.318C202.767 125.782 193.493 124.302 169.936 130.846C155.028 134.943 146.607 138.413 147.802 144.672C148.542 148.599 157.361 147.517 162.482 154.914C169.31 164.815 156.963 174.659 155.085 195.2C154.289 203.962 155.028 216.253 161.743 231.673V212.497C161.743 190.705 181.032 196.338 202.767 196.338L242.996 197.874C255.628 197.874 263.252 179.04 270.422 188.258" stroke="#4E5A7D" stroke-width="6" stroke-miterlimit="10" stroke-linecap="round" stroke-linejoin="round"/>
<path id="XMLID 102" d="M268.43 185.754C265.585 182.682 261.317 181.373 257.221 182.227C247.036 184.389 234.631 185.641 221.203 185.641C207.206 185.641 194.289 184.275 183.82 181.942C179.723 181.032 175.398 182.283 172.553 185.356C165.896 192.412 161.799 201.914 161.799 212.384V260.976C161.799 292.157 187.12 317.478 218.301 317.478H222.398C253.579 317.478 278.9 292.157 278.9 260.976V212.384C278.843 202.142 274.86 192.81 268.43 185.754Z" fill="#FBE3D5"/>
<path id="XMLID 185" d="M222.341 310.536H218.244C187.063 310.536 161.743 285.216 161.743 254.034V259.895C161.743 291.076 187.063 316.397 218.244 316.397H222.341C253.522 316.397 278.843 291.076 278.843 259.895V254.034C278.843 285.216 253.522 310.536 222.341 310.536Z" fill="#D5B6A5"/>
<path id="XMLID 101" d="M224.276 263.935C224.276 263.935 230.023 262.171 232.697 263.024C234.631 254.66 228.714 247.036 228.714 247.036" stroke="#4E5A7D" stroke-width="6" stroke-miterlimit="10" stroke-linecap="round" stroke-linejoin="round"/>
<path id="XMLID 100" d="M235.77 288.06C232.469 290.223 228.259 291.531 223.593 291.531C213.237 291.531 204.816 285.045 204.816 277.079" stroke="#4E5A7D" stroke-width="6" stroke-miterlimit="10" stroke-linecap="round" stroke-linejoin="round"/>
<path id="XMLID 99" d="M202.767 235.087C205.973 235.087 208.571 231.826 208.571 227.803C208.571 223.781 205.973 220.52 202.767 220.52C199.562 220.52 196.964 223.781 196.964 227.803C196.964 231.826 199.562 235.087 202.767 235.087Z" fill="#4E5A7D"/>
<path id="XMLID 132" d="M245.784 234.802C248.989 234.802 251.588 231.541 251.588 227.519C251.588 223.497 248.989 220.236 245.784 220.236C242.579 220.236 239.98 223.497 239.98 227.519C239.98 231.541 242.579 234.802 245.784 234.802Z" fill="#4E5A7D"/>
<path id="XMLID 183" d="M257.221 182.283C247.036 184.446 234.631 185.697 221.203 185.697C207.206 185.697 194.289 184.332 183.82 181.999C179.723 181.088 175.398 182.34 172.553 185.413C165.896 192.468 161.799 201.971 161.799 212.44V215.627C180.975 216.992 200.434 217.732 219.667 217.732C239.354 217.732 259.212 216.992 278.9 215.513V212.44C278.9 202.142 274.973 192.81 268.487 185.754C265.585 182.682 261.317 181.373 257.221 182.283Z" fill="#D5B6A5"/>
<path id="XMLID 94" d="M268.43 185.754C265.585 182.682 261.317 181.373 257.221 182.227C247.036 184.389 234.631 185.641 221.203 185.641C207.206 185.641 194.289 184.275 183.82 181.942C179.723 181.032 175.398 182.283 172.553 185.356C165.896 192.412 161.799 201.914 161.799 212.384V260.976C161.799 292.157 187.12 317.478 218.301 317.478H222.398C253.579 317.478 278.9 292.157 278.9 260.976V212.384C278.843 202.142 274.86 192.81 268.43 185.754Z" stroke="#4E5A7D" stroke-width="6" stroke-miterlimit="10" stroke-linecap="round" stroke-linejoin="round"/>
<path id="XMLID 91" d="M280.777 211.359C240.037 213.749 199.126 213.749 158.385 211.359C155.54 211.189 153.321 209.026 153.321 206.352V193.379C153.321 190.477 155.996 188.201 159.125 188.372C199.41 190.762 239.809 190.762 280.094 188.372C283.224 188.201 285.898 190.477 285.898 193.379V206.352C285.898 209.026 283.679 211.189 280.777 211.359Z" fill="#84BDE1"/>
<path id="XMLID 184" opacity="0.3" d="M280.094 188.429C239.809 190.818 199.41 190.818 159.125 188.429C155.996 188.258 153.321 190.534 153.321 193.436V197.76C153.321 194.858 155.996 192.582 159.125 192.753C199.41 195.143 239.809 195.143 280.094 192.753C283.224 192.582 285.898 194.858 285.898 197.76V193.379C285.898 190.534 283.224 188.258 280.094 188.429Z" fill="#84BDE1"/>
<path id="XMLID 141" d="M280.777 211.359C240.037 213.749 199.126 213.749 158.385 211.359C155.54 211.189 153.321 209.026 153.321 206.352V193.379C153.321 190.477 155.996 188.201 159.125 188.372C199.41 190.762 239.809 190.762 280.094 188.372C283.224 188.201 285.898 190.477 285.898 193.379V206.352C285.898 209.026 283.679 211.189 280.777 211.359Z" stroke="#4E5A7D" stroke-width="6" stroke-miterlimit="10" stroke-linecap="round" stroke-linejoin="round"/>
<path id="XMLID 151" d="M265.016 163.051C265.016 163.051 276.738 163.051 278.786 185.299" stroke="#4E5A7D" stroke-width="4" stroke-miterlimit="10" stroke-linecap="round" stroke-linejoin="round"/>
<path id="XMLID 177" d="M199.41 135.512C223.593 136.763 246.182 148.826 248.913 169.822" stroke="#4E5A7D" stroke-width="4" stroke-miterlimit="10" stroke-linecap="round" stroke-linejoin="round"/>
<path id="XMLID 180" d="M182.909 137.332C186.039 136.365 190.022 135.455 194.118 135.512" stroke="#4E5A7D" stroke-width="4" stroke-miterlimit="10" stroke-linecap="round" stroke-linejoin="round"/>
<path id="XMLID 181" d="M201.402 148.485C214.489 150.59 231.445 152.638 237.761 174.204" stroke="#4E5A7D" stroke-width="4" stroke-miterlimit="10" stroke-linecap="round" stroke-linejoin="round"/>
<path id="XMLID 154" d="M219.61 298.246C219.61 298.246 222.853 300.18 228.714 298.246" stroke="#4E5A7D" stroke-width="6" stroke-miterlimit="10" stroke-linecap="round" stroke-linejoin="round"/>
<path id="XMLID 90" d="M193.379 268.373C199.287 268.373 204.076 263.584 204.076 257.676C204.076 251.768 199.287 246.979 193.379 246.979C187.471 246.979 182.682 251.768 182.682 257.676C182.682 263.584 187.471 268.373 193.379 268.373Z" fill="#F5CFC4"/>
<path id="XMLID 89" d="M249.824 268.373C255.732 268.373 260.521 263.584 260.521 257.676C260.521 251.768 255.732 246.979 249.824 246.979C243.916 246.979 239.126 251.768 239.126 257.676C239.126 263.584 243.916 268.373 249.824 268.373Z" fill="#F5CFC4"/>
<path id="XMLID 160" d="M160.149 245.898H161.287V215.968H160.149C156.394 215.968 153.321 219.041 153.321 222.796V239.07C153.321 242.825 156.394 245.898 160.149 245.898Z" fill="#FEF0E3"/>
<path id="XMLID 159" d="M160.149 245.898H161.287V215.968H160.149C156.394 215.968 153.321 219.041 153.321 222.796V239.07C153.321 242.825 156.394 245.898 160.149 245.898Z" stroke="#4E5A7D" stroke-width="6" stroke-miterlimit="10" stroke-linecap="round" stroke-linejoin="round"/>
<path id="XMLID 190" d="M279.981 245.898H278.843V215.968H279.981C283.736 215.968 286.809 219.041 286.809 222.796V239.07C286.809 242.825 283.736 245.898 279.981 245.898Z" fill="#FEF0E3"/>
<path id="XMLID 157" d="M279.981 245.898H278.843V215.968H279.981C283.736 215.968 286.809 219.041 286.809 222.796V239.07C286.809 242.825 283.736 245.898 279.981 245.898Z" stroke="#4E5A7D" stroke-width="6" stroke-miterlimit="10" stroke-linecap="round" stroke-linejoin="round"/>
<path id="XMLID 163" d="M238.216 385.36H205.271C191.786 385.36 180.804 374.378 180.804 360.893V338.133H262.683V360.893C262.683 374.435 251.758 385.36 238.216 385.36Z" fill="#E08484"/>
<path id="XMLID 88" d="M262.683 338.133V360.893C262.683 374.378 251.701 385.36 238.216 385.36H205.271C191.786 385.36 180.804 374.378 180.804 360.893V338.133" stroke="#4E5A7D" stroke-width="6" stroke-miterlimit="10" stroke-linecap="round" stroke-linejoin="round"/>
<path id="XMLID 83" d="M249.71 346.895C245.499 358.332 234.461 366.469 221.601 366.469C208.685 366.469 197.646 358.275 193.436 346.838C198.784 346.269 202.995 341.717 202.995 336.198V334.206H239.411V336.198C239.411 341.945 243.963 346.668 249.71 346.895Z" fill="#FBE3D5"/>
<path id="XMLID 188" d="M245.841 345.985C242.028 355.885 232.526 362.486 221.601 362.486C210.563 362.486 201.003 355.715 197.248 345.643C196.11 346.269 194.801 346.668 193.436 346.838C197.646 358.275 208.685 366.469 221.601 366.469C234.518 366.469 245.499 358.332 249.71 346.895C248.344 346.838 247.036 346.497 245.841 345.985Z" fill="#EDD4C6"/>
<path id="XMLID 166" d="M239.411 334.15V336.141C239.411 341.091 242.768 345.302 247.377 346.497C248.572 346.838 249.255 348.147 248.743 349.285C243.906 359.413 233.607 366.412 221.658 366.412C209.595 366.412 199.24 359.299 194.46 349.057C193.948 347.976 194.517 346.668 195.712 346.326C199.979 344.904 203.052 340.921 203.052 336.141V334.15" stroke="#4E5A7D" stroke-width="6" stroke-miterlimit="10" stroke-linecap="round" stroke-linejoin="round"/>
<path id="XMLID 170" d="M192.355 343.197C195.427 356.511 207.319 366.469 221.601 366.469C235.883 366.469 247.775 356.511 250.848 343.197" stroke="#4E5A7D" stroke-width="6" stroke-miterlimit="10" stroke-linecap="round" stroke-linejoin="round"/>
<path id="XMLID 161" d="M200.548 375.402C203.062 375.402 205.1 374.23 205.1 372.785C205.1 371.339 203.062 370.167 200.548 370.167C198.034 370.167 195.996 371.339 195.996 372.785C195.996 374.23 198.034 375.402 200.548 375.402Z" fill="#4E5A7D"/>
<path id="XMLID 78" d="M200.548 372.785V402.43" stroke="#4E5A7D" stroke-width="8" stroke-miterlimit="10" stroke-linecap="round" stroke-linejoin="round"/>
<path id="XMLID 77" d="M241.801 375.402C244.315 375.402 246.353 374.23 246.353 372.785C246.353 371.339 244.315 370.167 241.801 370.167C239.287 370.167 237.249 371.339 237.249 372.785C237.249 374.23 239.287 375.402 241.801 375.402Z" fill="#4E5A7D"/>
<path id="XMLID 168" d="M241.801 372.785V394.464" stroke="#4E5A7D" stroke-width="8" stroke-miterlimit="10" stroke-linecap="round" stroke-linejoin="round"/>
<path id="XMLID 171" d="M202.199 410.282H198.785C196.622 410.282 195.029 408.29 195.541 406.185L197.021 399.585H203.962L205.442 406.185C205.954 408.29 204.361 410.282 202.199 410.282Z" fill="#FEF0E3"/>
<path id="XMLID 164" d="M202.199 410.282H198.785C196.622 410.282 195.029 408.29 195.541 406.185L197.021 399.585H203.962L205.442 406.185C205.954 408.29 204.361 410.282 202.199 410.282Z" stroke="#4E5A7D" stroke-width="6" stroke-miterlimit="10" stroke-linecap="round" stroke-linejoin="round"/>
<path id="XMLID 174" d="M243.508 404.933H240.094C237.932 404.933 236.338 402.942 236.851 400.836L238.33 394.236H245.272L246.751 400.836C247.263 402.942 245.67 404.933 243.508 404.933Z" fill="#FEF0E3"/>
<path id="XMLID 173" d="M243.508 404.933H240.094C237.932 404.933 236.338 402.942 236.851 400.836L238.33 394.236H245.272L246.751 400.836C247.263 402.942 245.67 404.933 243.508 404.933Z" stroke="#4E5A7D" stroke-width="6" stroke-miterlimit="10" stroke-linecap="round" stroke-linejoin="round"/>
<path id="XMLID 186" opacity="0.58" d="M216.651 344.562C216.651 344.562 218.472 344.733 220.52 346.838C220.52 346.838 222.91 344.562 224.958 344.562" stroke="#D5B6A5" stroke-width="6" stroke-miterlimit="10" stroke-linecap="round" stroke-linejoin="round"/>
<path id="XMLID 187" d="M223.593 171.814C223.593 171.814 222.341 164.644 209.709 160.718" stroke="#4E5A7D" stroke-width="4" stroke-miterlimit="10" stroke-linecap="round" stroke-linejoin="round"/>
<path id="XMLID 73" d="M170.619 399.585V421.263" stroke="#4E5A7D" stroke-width="6" stroke-miterlimit="10" stroke-linecap="round" stroke-linejoin="round"/>
<path id="XMLID 189" d="M270.479 399.585V421.263" stroke="#4E5A7D" stroke-width="6" stroke-miterlimit="10" stroke-linecap="round" stroke-linejoin="round"/>
</g>
<g id="XMLID 204">
<path id="XMLID 194" d="M238.501 60.9726H208.685C205.556 60.9726 202.995 58.4121 202.995 55.2826V18.1269C202.995 14.9974 205.556 12.4369 208.685 12.4369H238.501C241.63 12.4369 244.191 14.9974 244.191 18.1269V55.2826C244.191 58.4121 241.63 60.9726 238.501 60.9726Z" fill="white"/>
<path id="XMLID 52" d="M238.501 60.9726H208.685C205.556 60.9726 202.995 58.4121 202.995 55.2826V18.1269C202.995 14.9974 205.556 12.4369 208.685 12.4369H238.501C241.63 12.4369 244.191 14.9974 244.191 18.1269V55.2826C244.191 58.4121 241.63 60.9726 238.501 60.9726Z" stroke="#4E5A7D" stroke-width="3" stroke-miterlimit="10" stroke-linecap="round" stroke-linejoin="round"/>
<path id="XMLID 191" d="M241.403 71.2715C247.719 71.2715 252.84 66.151 252.84 59.8346C252.84 53.5182 247.719 48.3977 241.403 48.3977C235.086 48.3977 229.966 53.5182 229.966 59.8346C229.966 66.151 235.086 71.2715 241.403 71.2715Z" fill="white"/>
<path id="XMLID 155" d="M241.403 71.2715C247.719 71.2715 252.84 66.151 252.84 59.8346C252.84 53.5182 247.719 48.3977 241.403 48.3977C235.086 48.3977 229.966 53.5182 229.966 59.8346C229.966 66.151 235.086 71.2715 241.403 71.2715Z" stroke="#4E5A7D" stroke-width="3" stroke-miterlimit="10" stroke-linecap="round" stroke-linejoin="round"/>
<path id="XMLID 192" d="M236.168 59.7208L239.753 63.3055L246.638 56.3637" stroke="#4E5A7D" stroke-width="4" stroke-miterlimit="10" stroke-linecap="round" stroke-linejoin="round"/>
<path id="XMLID 193" d="M227.234 9.4212V4.6985C227.234 2.6501 225.584 1 223.536 1C221.488 1 219.837 2.6501 219.837 4.6985V9.4212H215.798V10.9006V15.8509H231.274V10.9006V9.4212H227.234Z" fill="white"/>
<path id="XMLID 197" d="M227.234 9.87641V5.49512C227.234 3.61742 225.584 2.08112 223.536 2.08112C221.488 2.08112 219.837 3.61742 219.837 5.49512V9.87641H215.798V11.242V15.8509H231.274V11.242V9.87641H227.234Z" stroke="#4E5A7D" stroke-width="3" stroke-miterlimit="10" stroke-linecap="round" stroke-linejoin="round"/>
<path id="XMLID 195" d="M213.977 29.6207H235.144" stroke="#4E5A7D" stroke-width="3" stroke-miterlimit="10" stroke-linecap="round" stroke-linejoin="round"/>
<path id="XMLID 196" d="M213.977 36.6763H235.144" stroke="#4E5A7D" stroke-width="3" stroke-miterlimit="10" stroke-linecap="round" stroke-linejoin="round"/>
<path id="XMLID 198" d="M217.846 43.5043H231.274" stroke="#4E5A7D" stroke-width="3" stroke-miterlimit="10" stroke-linecap="round" stroke-linejoin="round"/>
</g>
<g id="XMLID 48">
<path id="XMLID 51" d="M347.123 55.6809L341.547 49.8771C336.141 44.244 327.151 44.1302 321.859 49.8771C316.738 55.4533 315.088 65.6384 322.03 76.9615C329.029 88.2846 347.066 95.9661 347.066 95.9661C347.066 95.9661 365.16 88.2846 372.102 76.9615C379.101 65.6384 377.451 55.4533 372.273 49.8771C366.981 44.1302 357.991 44.244 352.585 49.8771L347.123 55.6809Z" fill="white"/>
<path id="XMLID 50" d="M347.123 55.6809L341.547 49.8771C336.141 44.244 327.151 44.1302 321.859 49.8771C316.738 55.4533 315.088 65.6384 322.03 76.9615C329.029 88.2846 347.066 95.9661 347.066 95.9661C347.066 95.9661 365.16 88.2846 372.102 76.9615C379.101 65.6384 377.451 55.4533 372.273 49.8771C366.981 44.1302 357.991 44.244 352.585 49.8771L347.123 55.6809Z" stroke="#4E5A7D" stroke-width="3" stroke-miterlimit="10" stroke-linecap="round" stroke-linejoin="round"/>
<path id="XMLID 206" d="M327.834 74.0596H336.824L341.205 62.5658L347.123 82.7653L351.334 73.5475L354.577 78.6116L358.901 62.5658L362.884 72.694H367.835" stroke="#4E5A7D" stroke-width="3" stroke-miterlimit="10" stroke-linecap="round" stroke-linejoin="round"/>
</g>
<g id="XMLID 214">
<path id="XMLID 46" d="M382.401 137.844C382.401 137.844 369.542 168.286 369.542 180.235C369.542 192.184 370.566 195.427 370.566 195.427C370.566 195.427 398.504 199.524 413.98 192.241C429.514 184.958 433.952 174.829 433.952 174.829C433.952 174.829 433.782 157.247 423.653 156.109C419.5 155.654 413.639 156.394 411.534 161.856C408.632 169.367 410.68 172.155 410.68 172.155C408.29 169.765 404.421 166.408 396.683 166.408C388.944 166.408 384.848 174.829 384.848 174.829L385.417 150.362L399.186 149.168L401.747 137.844L393.553 128.285L382.401 137.844Z" fill="white"/>
<path id="XMLID 44" d="M382.401 137.844C382.401 137.844 369.542 168.286 369.542 180.235C369.542 192.184 370.566 195.427 370.566 195.427C370.566 195.427 398.504 199.524 413.98 192.241C429.514 184.958 433.952 174.829 433.952 174.829C433.952 174.829 433.782 157.247 423.653 156.109C419.5 155.654 413.639 156.394 411.534 161.856C408.632 169.367 410.68 172.155 410.68 172.155C408.29 169.765 404.421 166.408 396.683 166.408C388.944 166.408 384.848 174.829 384.848 174.829L385.417 150.362L399.186 149.168L401.747 137.844L393.553 128.285L382.401 137.844Z" stroke="#4E5A7D" stroke-width="3" stroke-miterlimit="10" stroke-linecap="round" stroke-linejoin="round"/>
<path id="XMLID 213" d="M393.667 182.17C393.667 182.17 400.894 184.958 407.665 182.17" stroke="#4E5A7D" stroke-width="3" stroke-miterlimit="10" stroke-linecap="round" stroke-linejoin="round"/>
<path id="XMLID 43" d="M376.995 183.364V190.022H382.401" stroke="#4E5A7D" stroke-width="3" stroke-miterlimit="10" stroke-linecap="round" stroke-linejoin="round"/>
</g>
<g id="XMLID 39">
<path id="XMLID 216" d="M67.1746 72.6371C67.1746 72.6371 82.2531 43.2198 103.875 37.416C107.403 36.4487 114.8 35.3676 120.49 39.692C126.635 44.4147 128.911 54.3153 125.042 61.4847C119.352 71.9543 102.566 72.3526 97.7299 66.8902C95.966 64.8987 96.0229 62.3951 96.0798 61.7692C96.1936 55.9654 102.965 50.2754 108.882 51.1289C112.296 51.641 114.458 54.2015 114.686 54.4291C119.01 59.7208 117.247 70.0197 110.532 80.3186" stroke="#4E5A7D" stroke-width="3" stroke-miterlimit="10" stroke-linecap="round" stroke-linejoin="round"/>
<path id="XMLID 42" d="M70.7593 73.9458L63.4192 70.5318C62.0536 69.9059 60.2328 70.987 59.3224 72.9216C58.412 74.8562 58.8103 76.9615 60.119 77.5874L60.5742 77.815L54.2583 89.195C52.3806 92.5521 52.8927 96.4213 55.3394 97.5593C57.7861 98.6973 61.0863 96.5351 62.395 92.9504L67.0039 80.7738L67.4591 81.0014C68.8247 81.6273 70.6455 80.5462 71.5559 78.6116C72.5232 76.677 72.1249 74.6286 70.7593 73.9458Z" fill="white"/>
<path id="XMLID 41" d="M70.7593 73.9458L63.4192 70.5318C62.0536 69.9059 60.2328 70.987 59.3224 72.9216C58.412 74.8562 58.8103 76.9615 60.119 77.5874L60.5742 77.815L54.2583 89.195C52.3806 92.5521 52.8927 96.4213 55.3394 97.5593C57.7861 98.6973 61.0863 96.5351 62.395 92.9504L67.0039 80.7738L67.4591 81.0014C68.8247 81.6273 70.6455 80.5462 71.5559 78.6116C72.5232 76.677 72.1249 74.6286 70.7593 73.9458Z" stroke="#4E5A7D" stroke-width="3" stroke-miterlimit="10" stroke-linecap="round" stroke-linejoin="round"/>
<path id="XMLID 215" d="M114.743 79.2944L107.005 76.9046C105.582 76.4494 103.932 77.7581 103.306 79.8065C102.68 81.8549 103.306 83.9033 104.785 84.3016L105.241 84.4723L100.575 96.592C99.2093 100.177 100.233 103.932 102.794 104.729C105.354 105.525 108.313 102.965 109.167 99.2094L112.069 86.5207L112.524 86.6914C113.946 87.1466 115.596 85.8379 116.222 83.7895C116.848 81.7411 116.165 79.7496 114.743 79.2944Z" fill="white"/>
<path id="XMLID 40" d="M114.743 79.2944L107.005 76.9046C105.582 76.4494 103.932 77.7581 103.306 79.8065C102.68 81.8549 103.306 83.9033 104.785 84.3016L105.241 84.4723L100.575 96.592C99.2093 100.177 100.233 103.932 102.794 104.729C105.354 105.525 108.313 102.965 109.167 99.2094L112.069 86.5207L112.524 86.6914C113.946 87.1466 115.596 85.8379 116.222 83.7895C116.848 81.7411 116.165 79.7496 114.743 79.2944Z" stroke="#4E5A7D" stroke-width="3" stroke-miterlimit="10" stroke-linecap="round" stroke-linejoin="round"/>
</g>
<g id="XMLID 37">
<path id="XMLID 231" d="M247.093 12.949H251.246" stroke="white" stroke-width="2" stroke-miterlimit="10" stroke-linecap="round" stroke-linejoin="round"/>
<path id="XMLID 230" d="M244.248 8.68147L247.093 4.81226" stroke="white" stroke-width="2" stroke-miterlimit="10" stroke-linecap="round" stroke-linejoin="round"/>
<path id="XMLID 38" d="M246.239 10.4454L250.506 7.77106" stroke="white" stroke-width="2" stroke-miterlimit="10" stroke-linecap="round" stroke-linejoin="round"/>
</g>
<g id="XMLID 32">
<path id="XMLID 36" d="M120.149 82.7084H123.62" stroke="white" stroke-width="2" stroke-miterlimit="10" stroke-linecap="round" stroke-linejoin="round"/>
<path id="XMLID 35" d="M117.816 79.1806L120.149 75.9942" stroke="white" stroke-width="2" stroke-miterlimit="10" stroke-linecap="round" stroke-linejoin="round"/>
<path id="XMLID 34" d="M119.466 80.66L122.994 78.4409" stroke="white" stroke-width="2" stroke-miterlimit="10" stroke-linecap="round" stroke-linejoin="round"/>
</g>
<g id="XMLID 22">
<path id="XMLID 31" d="M82.6514 160.775L86.5205 159.694" stroke="white" stroke-width="2" stroke-miterlimit="10" stroke-linecap="round" stroke-linejoin="round"/>
<path id="XMLID 27" d="M78.896 157.589L80.5461 153.264" stroke="white" stroke-width="2" stroke-miterlimit="10" stroke-linecap="round" stroke-linejoin="round"/>
<path id="XMLID 26" d="M81.1719 158.727L84.4721 155.142" stroke="white" stroke-width="2" stroke-miterlimit="10" stroke-linecap="round" stroke-linejoin="round"/>
</g>
<g id="XMLID 23">
<path id="XMLID 28" d="M8.56764 200.491L7.60034 204.361" stroke="white" stroke-width="2" stroke-miterlimit="10" stroke-linecap="round" stroke-linejoin="round"/>
<path id="XMLID 25" d="M5.26751 196.85L1 198.614" stroke="white" stroke-width="2" stroke-miterlimit="10" stroke-linecap="round" stroke-linejoin="round"/>
<path id="XMLID 24" d="M6.46236 199.069L2.99146 202.483" stroke="white" stroke-width="2" stroke-miterlimit="10" stroke-linecap="round" stroke-linejoin="round"/>
</g>
<g id="XMLID 18">
<path id="XMLID 21" d="M75.7097 75.9941H79.7496" stroke="white" stroke-width="2" stroke-miterlimit="10" stroke-linecap="round" stroke-linejoin="round"/>
<path id="XMLID 20" d="M72.9785 71.8974L75.7097 68.142" stroke="white" stroke-width="2" stroke-miterlimit="10" stroke-linecap="round" stroke-linejoin="round"/>
<path id="XMLID 19" d="M74.8562 73.6044L79.0099 70.987" stroke="white" stroke-width="2" stroke-miterlimit="10" stroke-linecap="round" stroke-linejoin="round"/>
</g>
<g id="XMLID 14">
<path id="XMLID 17" d="M349.513 46.4631L351.448 42.6508" stroke="white" stroke-width="2" stroke-miterlimit="10" stroke-linecap="round" stroke-linejoin="round"/>
<path id="XMLID 16" d="M345.189 47.0321L343.14 42.6508" stroke="white" stroke-width="2" stroke-miterlimit="10" stroke-linecap="round" stroke-linejoin="round"/>
<path id="XMLID 15" d="M347.123 46.4631V40.3748" stroke="white" stroke-width="2" stroke-miterlimit="10" stroke-linecap="round" stroke-linejoin="round"/>
</g>
<g id="XMLID 10">
<path id="XMLID 13" d="M408.177 160.889L407.665 156.678" stroke="white" stroke-width="2" stroke-miterlimit="10" stroke-linecap="round" stroke-linejoin="round"/>
<path id="XMLID 12" d="M404.933 163.791L400.836 161.287" stroke="white" stroke-width="2" stroke-miterlimit="10" stroke-linecap="round" stroke-linejoin="round"/>
<path id="XMLID 11" d="M406.185 162.255L402.828 157.19" stroke="white" stroke-width="2" stroke-miterlimit="10" stroke-linecap="round" stroke-linejoin="round"/>
</g>
<path id="XMLID 29" d="M108.143 40.4886C108.143 40.4886 113.15 38.0419 117.759 42.7077" stroke="white" stroke-width="2" stroke-miterlimit="10" stroke-linecap="round" stroke-linejoin="round"/>
<path id="XMLID 3" d="M57.1035 421.263H330.224" stroke="#4E5A7D" stroke-width="6" stroke-miterlimit="10" stroke-linecap="round" stroke-linejoin="round"/>
<path id="XMLID 2" d="M345.871 421.263H365.502" stroke="#4E5A7D" stroke-width="6" stroke-miterlimit="10" stroke-linecap="round" stroke-linejoin="round"/>
<path id="XMLID 251" d="M381.434 421.263H391.903" stroke="#4E5A7D" stroke-width="6" stroke-miterlimit="10" stroke-linecap="round" stroke-linejoin="round"/>
</g>
</g>
</svg>
